SplineFontDB: 3.2
FontName: Untitled1
FullName: Untitled1
FamilyName: Untitled1
Weight: Regular
Copyright: Copyright (c) 2023, twelve
UComments: "2023-7-8: Created with FontForge (http://fontforge.org)"
Version: 001.000
ItalicAngle: 0
UnderlinePosition: -36
UnderlineWidth: 18
Ascent: 0
Descent: 360
InvalidEm: 0
LayerCount: 2
Layer: 0 0 "Back" 1
Layer: 1 1 "Fore" 0
XUID: [1021 677 1622773792 2229825]
StyleMap: 0x0000
FSType: 0
OS2Version: 0
OS2_WeightWidthSlopeOnly: 0
OS2_UseTypoMetrics: 1
CreationTime: 1688857346
ModificationTime: 1689117219
OS2TypoAscent: 0
OS2TypoAOffset: 1
OS2TypoDescent: 0
OS2TypoDOffset: 1
OS2TypoLinegap: 32
OS2WinAscent: 0
OS2WinAOffset: 1
OS2WinDescent: 0
OS2WinDOffset: 1
HheadAscent: 0
HheadAOffset: 1
HheadDescent: 0
HheadDOffset: 1
OS2Vendor: 'PfEd'
MarkAttachClasses: 1
DEI: 91125
Encoding: Custom
Compacted: 1
UnicodeInterp: none
NameList: AGL For New Fonts
DisplaySize: -72
AntiAlias: 1
FitToEm: 1
WinInfo: 0 18 8
BeginPrivate: 0
EndPrivate
BeginChars: 177 107

StartChar: eyebrow.13
Encoding: 65 -1 0
Width: 360
GlyphClass: 5
Flags: W
LayerCount: 2
Back
SplineSet
0 0 m 0
 0 0 160 40 240 200 c 1024
-9.71875 38.80859375 m 2
 -27.10546875 34.4609375 -40 18.7265625 -40 0 c 0
 -40 -22.078125 -22.078125 -40 0 -40 c 0
 3.3515625 -40 6.60546875 -39.5859375 9.71875 -38.80859375 c 0
 12.59375 -38.08984375 66.0703125 -24.6015625 129.14453125 17.44921875 c 0
 179.55859375 51.05859375 236.4765625 103.5 275.80078125 182.1484375 c 0
 278.48828125 187.5234375 280 193.5859375 280 200 c 0
 280 222.078125 262.078125 240 240 240 c 0
 224.3359375 240 210.76171875 230.9765625 204.19921875 217.8515625 c 0
 172.4140625 154.27734375 126.61328125 111.90625 84.84765625 84.05859375 c 0
 61.6875 68.62109375 39.88671875 57.78125 23.03125 50.60546875 c 0
 0.8125 41.1484375 -9.71875 38.80859375 -9.71875 38.80859375 c 2
EndSplineSet
Fore
SplineSet
8 -40 m 1,1,2
 -8 -44 -8 -44 -22 -34 c 129,-1,3
 -36 -24 -36 -24 -40 -8 c 129,-1,4
 -44 8 -44 8 -34 22 c 129,-1,5
 -24 36 -24 36 -8 40 c 1,6,7
 128 80 128 80 204 216 c 5,8,9
 212 232 212 232 226 238 c 133,-1,10
 240 244 240 244 256 236 c 133,-1,11
 272 228 272 228 278 213 c 5,12,13
 284 200 284 200 276 184 c 5,14,15
 196 20 196 20 8 -40 c 1,1,2
EndSplineSet
EndChar

StartChar: eyebrow.12b
Encoding: 66 -1 1
Width: 360
GlyphClass: 5
Flags: W
LayerCount: 2
Back
SplineSet
0 0 m 17
 0 0 -160 40 -240 -40 c 1033
-9.71875 -38.80859375 m 1
 -6.60546875 -39.5859375 -3.3515625 -40 0 -40 c 1
 22.078125 -40 40 -22.078125 40 0 c 1
 40 18.7265625 27.10546875 34.4609375 9.71875 38.80859375 c 1
 7.8203125 39.28515625 -34.6953125 50 -90 50 c 1
 -120.7578125 50 -155.671875 46.7421875 -190.08984375 35.26953125 c 1
 -217.578125 26.10546875 -245.15234375 11.40625 -268.27734375 -11.72265625 c 1
 -275.51953125 -18.9609375 -280 -28.9609375 -280 -40 c 1
 -280 -62.078125 -262.078125 -80 -240 -80 c 1
 -228.9609375 -80 -218.9609375 -75.51953125 -211.72265625 -68.27734375 c 1
 -199.29296875 -55.8515625 -183.41015625 -46.84765625 -164.8046875 -40.6484375 c 1
 -141.61328125 -32.9140625 -114.796875 -30 -90 -30 c 1
 -43.87890625 -30 -9.71875 -38.80859375 -9.71875 -38.80859375 c 1
EndSplineSet
Fore
SplineSet
-240 -40 m 1053,0,-1
-268 -12 m 5,1,2
 -217 38 -217 38 -138 47 c 133,-1,3
 -59 56 -59 56 9 39 c 5,4,5
 25 35 25 35 34 21 c 133,-1,6
 43 7 43 7 39 -9 c 133,-1,7
 35 -25 35 -25 21 -34 c 133,-1,8
 7 -43 7 -43 -9 -39 c 5,9,10
 -65 -25 -65 -25 -124 -32 c 133,-1,11
 -183 -39 -183 -39 -212 -68 c 5,12,13
 -224 -80 -224 -80 -240 -80 c 133,-1,14
 -256 -80 -256 -80 -268 -68 c 133,-1,15
 -280 -56 -280 -56 -280 -40 c 133,-1,16
 -280 -24 -280 -24 -268 -12 c 5,1,2
EndSplineSet
EndChar

StartChar: eyebrow.15
Encoding: 67 -1 2
Width: 360
GlyphClass: 5
Flags: W
LayerCount: 2
Back
SplineSet
0 0 m 4
 0 0 80 0 160 80 c 1028
-0.28125 40 m 4
 -22.2265625 39.84765625 -40 21.984375 -40 0 c 4
 -40 -22.078125 -22.078125 -40 0 -40 c 4
 6.27734375 -40 98.2109375 -38.34765625 188.27734375 51.72265625 c 4
 195.51953125 58.9609375 200 68.9609375 200 80 c 4
 200 102.078125 182.078125 120 160 120 c 4
 148.9609375 120 138.9609375 115.51953125 131.72265625 108.27734375 c 4
 100.4296875 76.98828125 69.96875 60.27734375 46.015625 51.06640625 c 4
 32.71484375 45.94921875 21.4296875 43.1875 13.296875 41.703125 c 4
 4.9375 40.17578125 0.55859375 40.015625 -0.28125 40 c 4
EndSplineSet
Fore
SplineSet
160 80 m 1049,0,-1
0 40 m 5,1,2
 20 40 20 40 58 56 c 129,-1,3
 96 72 96 72 132 108 c 1,4,5
 144 120 144 120 160 120 c 131,-1,6
 176 120 176 120 188 108 c 129,-1,7
 200 96 200 96 200 80 c 131,-1,8
 200 64 200 64 188 52 c 1,9,10
 140 4 140 4 88 -18 c 129,-1,11
 36 -40 36 -40 0 -40 c 5,12,13
 -17 -40 -17 -40 -28.5 -28 c 133,-1,14
 -40 -16 -40 -16 -40 0 c 133,-1,15
 -40 16 -40 16 -28.5 28 c 133,-1,16
 -17 40 -17 40 0 40 c 5,1,2
EndSplineSet
EndChar

StartChar: eyebrow.14
Encoding: 68 -1 3
Width: 360
GlyphClass: 5
Flags: W
LayerCount: 2
Back
SplineSet
7.87551049672 39.2235037675 m 0
 26.2507544591 35.5613565373 40.0668192597 19.3785795004 40.0668192597 -0.00564817246036 c 0
 40.0668192597 -22.0857387634 22.1405853425 -40.0119726806 0.0604947516232 -40.0119726806 c 0
 -2.63536816637 -40.0119726806 -5.26930902155 -39.7447440616 -7.81626096335 -39.2353536741 c 2
 -7.87551049672 -39.2235037675 l 1
 -7.87551049672 -39.2235037675 -7.74269889099 -39.2496826446 -7.80050507471 -39.2384096381 c 0
 -7.89203178981 -39.220560661 -10.3008025122 -38.752926518 -14.6435550108 -38.0956450587 c 0
 -18.5519159956 -37.5041093421 -24.0267679882 -36.759013649 -30.785318652 -36.0475872633 c 0
 -42.950059661 -34.7670882097 -59.2769840131 -33.6 -78.08 -33.6 c 0
 -97.6660325054 -33.6 -119.97688521 -34.8716033228 -143.118634645 -38.5011123308 c 0
 -161.633084002 -41.4048841873 -180.665786624 -45.8153296245 -199.292412459 -52.1943110747 c 0
 -232.878513197 -63.6964003687 -264.856047883 -81.4134978833 -291.721275 -108.278725 c 0
 -298.960280229 -115.517730229 -308.958319334 -119.997701582 -319.99445484 -119.997701582 c 0
 -342.066725852 -119.997701582 -359.986611262 -102.077816171 -359.986611262 -80.0055451599 c 0
 -359.986611262 -68.9694096542 -355.506639909 -58.9713705488 -348.278725 -51.721275 c 0
 -311.143952117 -14.5865021167 -267.743709025 8.94084481318 -225.193513467 23.5128295933 c 0
 -201.522196915 31.6194448508 -178.022846496 37.0123830442 -155.5919928 40.5303964846 c 0
 -127.552113418 44.9281190978 -101.160634161 46.4 -78.08 46.4 c 0
 -55.9230159869 46.4 -36.8524094748 45.038693148 -22.3285359433 43.5098643552 c 0
 -4.17606343778 41.5990777757 6.87517068221 39.42357173 7.87551049672 39.2235037675 c 0
EndSplineSet
Fore
SplineSet
9 39 m 5,0,1
 25 35 25 35 34 21 c 133,-1,2
 43 7 43 7 39 -9 c 133,-1,3
 35 -25 35 -25 21 -34 c 133,-1,4
 7 -43 7 -43 -9 -39 c 5,5,6
 -89 -27 -89 -27 -164 -42.5 c 133,-1,7
 -239 -58 -239 -58 -292 -108 c 5,8,9
 -304 -120 -304 -120 -320 -120 c 135,-1,10
 -336 -120 -336 -120 -348 -108 c 133,-1,11
 -360 -96 -360 -96 -360 -80 c 135,-1,12
 -360 -64 -360 -64 -348 -52 c 5,13,14
 -289 9 -289 9 -192 33 c 133,-1,15
 -95 57 -95 57 9 39 c 5,0,1
EndSplineSet
EndChar

StartChar: circle32
Encoding: 64 -1 4
Width: 360
GlyphClass: 5
Flags: W
LayerCount: 2
Back
SplineSet
20 -180 m 4
 20 -92 92 -20 180 -20 c 4
 268 -20 340 -92 340 -180 c 4
 340 -268 268 -340 180 -340 c 4
 92 -340 20 -268 20 -180 c 4
180 -180 m 1049
EndSplineSet
Fore
SplineSet
-160 0 m 128,-1,1
 -160 66 -160 66 -113 113 c 128,-1,2
 -66 160 -66 160 0 160 c 128,-1,3
 66 160 66 160 113 113 c 128,-1,4
 160 66 160 66 160 0 c 128,-1,5
 160 -66 160 -66 113 -113 c 128,-1,6
 66 -160 66 -160 0 -160 c 128,-1,7
 -66 -160 -66 -160 -113 -113 c 128,-1,0
 -160 -66 -160 -66 -160 0 c 128,-1,1
EndSplineSet
EndChar

StartChar: a
Encoding: 97 -1 5
Width: 360
GlyphClass: 5
Flags: W
LayerCount: 2
Back
SplineSet
133.534840624 -246.465159374 m 1
 133.534840624 -246.465159374 133.43011969 -246.364317651 133.430409191 -246.364579905 c 2
 133.430409191 -246.364579905 133.651697157 -246.579792708 134.414082409 -247.062152918 c 0
 135.328758539 -247.640867379 136.939028999 -248.526430165 139.474173293 -249.501485663 c 0
 145.889071083 -251.968754044 158.244068229 -255 180 -255 c 0
 201.755931771 -255 214.110928917 -251.968754044 220.525826707 -249.501485663 c 0
 223.060971001 -248.526430165 224.671241461 -247.640867379 225.585917591 -247.062152918 c 0
 226.348302843 -246.579792708 226.569590809 -246.364579905 226.569590809 -246.364579905 c 1
 226.569590809 -246.364579905 226.464883372 -246.465435378 226.465159586 -246.465159164 c 0
 227.370212694 -245.560106163 228.620212607 -245 230 -245 c 0
 232.759575 -245 235 -247.240425 235 -250 c 0
 235 -250.418932075 234.948366302 -250.825899618 234.851121096 -251.21488044 c 0
 234.781625909 -251.492861188 233.307779723 -257.348664276 229.263727526 -264.780976422 c 0
 226.031723614 -270.720875504 221.129402365 -277.720858348 213.860677304 -283.535838397 c 0
 209.319806432 -287.168535094 203.853737534 -290.32156734 197.391015514 -292.389638386 c 0
 192.222157986 -294.043672795 186.429759184 -295 180 -295 c 0
 173.570240816 -295 167.777842014 -294.043672795 162.608984486 -292.389638386 c 0
 156.146262466 -290.32156734 150.680193568 -287.168535094 146.139322696 -283.535838397 c 0
 138.870597635 -277.720858348 133.968276386 -270.720875504 130.736272474 -264.780976422 c 0
 126.692220311 -257.348664338 125.21837406 -251.49286103 125.148878937 -251.214880573 c 0
 125.05163371 -250.825899711 125 -250.418932122 125 -250 c 0
 125 -247.240425 127.240425 -245 130 -245 c 0
 131.3797875 -245 132.629787499 -245.56010625 133.534840624 -246.465159374 c 1
360 -180 m 0
 360 -279.41015625 279.41015625 -360 180 -360 c 0
 80.599609375 -360 0 -279.41015625 0 -180 c 0
 0 -80.599609375 80.599609375 0 180 0 c 0
 279.41015625 0 360 -80.599609375 360 -180 c 1024
240 -220 m 0
 240 -247.614257812 262.385742188 -270 290 -270 c 0
 317.614257812 -270 340 -247.614257812 340 -220 c 0
 340 -192.385742188 317.614257812 -170 290 -170 c 0
 262.385742188 -170 240 -192.385742188 240 -220 c 0
20 -220 m 0
 20 -247.614257812 42.3857421875 -270 70 -270 c 0
 97.6142578125 -270 120 -247.614257812 120 -220 c 0
 120 -192.385742188 97.6142578125 -170 70 -170 c 0
 42.3857421875 -170 20 -192.385742188 20 -220 c 0
290 -140 m 0
 287.440429688 -140 284.879882812 -139.01953125 282.9296875 -137.0703125 c 0
 257.16015625 -111.3203125 212.379882812 -119.709960938 211.940429688 -119.809570312 c 0
 206.459960938 -120.900390625 201.26953125 -117.33984375 200.200195312 -111.940429688 c 0
 199.129882812 -106.530273438 202.620117188 -101.280273438 208.030273438 -100.200195312 c 0
 210.299804688 -99.740234375 263.66015625 -89.5498046875 297.059570312 -122.9296875 c 0
 300.969726562 -126.83984375 300.969726562 -133.16015625 297.059570312 -137.0703125 c 0
 295.120117188 -139.01953125 292.559570312 -140 290 -140 c 0
70 -140 m 0
 67.4404296875 -140 64.8798828125 -139.01953125 62.9296875 -137.0703125 c 0
 59.01953125 -133.16015625 59.01953125 -126.83984375 62.9296875 -122.9296875 c 0
 96.330078125 -89.51953125 149.709960938 -99.75 151.959960938 -100.200195312 c 0
 157.379882812 -101.280273438 160.889648438 -106.549804688 159.799804688 -111.969726562 c 0
 158.719726562 -117.370117188 153.469726562 -120.889648438 148.049804688 -119.8203125 c 0
 147.360351562 -119.669921875 102.759765625 -111.389648438 77.0703125 -137.080078125 c 0
 75.1201171875 -139.01953125 72.5595703125 -140 70 -140 c 0
260 -190 m 0
 257.440429688 -190 254.879882812 -189.01953125 252.9296875 -187.0703125 c 0
 239.889648438 -174.01953125 212.030273438 -177.330078125 202.41015625 -179.709960938 c 0
 197.009765625 -181.030273438 191.639648438 -177.759765625 190.299804688 -172.41015625 c 0
 188.969726562 -167.049804688 192.219726562 -161.639648438 197.580078125 -160.299804688 c 0
 199.440429688 -159.83984375 243.330078125 -149.190429688 267.0703125 -172.9296875 c 0
 270.98046875 -176.83984375 270.98046875 -183.16015625 267.0703125 -187.0703125 c 0
 265.120117188 -189.01953125 262.559570312 -190 260 -190 c 0
100 -190 m 0
 97.4404296875 -190 94.8798828125 -189.01953125 92.9296875 -187.0703125 c 0
 89.01953125 -183.16015625 89.01953125 -176.83984375 92.9296875 -172.9296875 c 0
 116.66015625 -149.200195312 160.5703125 -159.83984375 162.4296875 -160.299804688 c 0
 167.780273438 -161.639648438 171.030273438 -167.049804688 169.700195312 -172.41015625 c 0
 168.379882812 -177.76953125 162.969726562 -181.040039062 157.599609375 -179.709960938 c 0
 147.959960938 -177.33984375 120.110351562 -174.040039062 107.080078125 -187.0703125 c 0
 105.120117188 -189.01953125 102.559570312 -190 100 -190 c 0
EndSplineSet
Fore
Refer: 40 -1 N 1 0 0 1 0 0 2
Refer: 39 -1 N 1 0 0 1 0 0 2
EndChar

StartChar: b
Encoding: 98 -1 6
Width: 360
GlyphClass: 5
Flags: W
LayerCount: 2
Back
SplineSet
0 -180 m 0
 0 -279.411132812 80.5888671875 -360 180 -360 c 0
 279.411132812 -360 360 -279.411132812 360 -180 c 0
 360 -80.5888671875 279.411132812 0 180 0 c 0
 80.5888671875 0 0 -80.5888671875 0 -180 c 0
160 -169.580078125 m 0
 155.809570312 -169.580078125 151.91015625 -166.9296875 150.509765625 -162.740234375 c 0
 148.48046875 -156.75 140.330078125 -139.580078125 130 -139.580078125 c 0
 119.379882812 -139.580078125 111.120117188 -157.849609375 109.490234375 -162.740234375 c 0
 107.740234375 -167.969726562 102.110351562 -170.8203125 96.83984375 -169.059570312 c 0
 91.599609375 -167.3203125 88.76953125 -161.650390625 90.51953125 -156.41015625 c 0
 91.76953125 -152.639648438 103.559570312 -119.5703125 130.009765625 -119.5703125 c 0
 156.459960938 -119.5703125 168.240234375 -152.639648438 169.5 -156.41015625 c 0
 171.25 -161.650390625 168.419921875 -167.3203125 163.1796875 -169.059570312 c 0
 162.120117188 -169.419921875 161.049804688 -169.580078125 160 -169.580078125 c 0
260 -169.580078125 m 0
 255.809570312 -169.580078125 251.91015625 -166.9296875 250.51953125 -162.740234375 c 0
 248.490234375 -156.75 240.330078125 -139.580078125 230 -139.580078125 c 0
 219.379882812 -139.580078125 211.110351562 -157.849609375 209.48046875 -162.740234375 c 0
 207.73046875 -167.969726562 202.120117188 -170.8203125 196.830078125 -169.059570312 c 0
 191.599609375 -167.3203125 188.759765625 -161.650390625 190.509765625 -156.41015625 c 0
 191.759765625 -152.639648438 203.549804688 -119.5703125 229.990234375 -119.5703125 c 0
 256.4296875 -119.5703125 268.219726562 -152.639648438 269.469726562 -156.41015625 c 0
 271.219726562 -161.650390625 268.389648438 -167.3203125 263.150390625 -169.059570312 c 0
 262.110351562 -169.419921875 261.049804688 -169.580078125 260 -169.580078125 c 0
273.349609375 -206.91015625 m 0
 271.5703125 -205.299804688 268.91015625 -205.200195312 267 -206.620117188 c 0
 266.610351562 -206.91015625 227.780273438 -235.620117188 180 -235.620117188 c 0
 132.33984375 -235.620117188 93.3798828125 -206.91015625 93 -206.620117188 c 0
 91.08984375 -205.200195312 88.4296875 -205.3203125 86.650390625 -206.91015625 c 0
 84.8798828125 -208.509765625 84.48046875 -211.150390625 85.7099609375 -213.190429688 c 0
 87 -215.33984375 117.879882812 -265.620117188 180 -265.620117188 c 0
 242.120117188 -265.620117188 273.009765625 -215.33984375 274.290039062 -213.190429688 c 0
 275.51953125 -211.139648438 275.129882812 -208.51953125 273.349609375 -206.91015625 c 0
212.290039062 -39.4697265625 m 0
 212.290039062 -41.8701171875 212.58984375 -44.1904296875 213.110351562 -46.4296875 c 0
 217.360351562 -72.8603515625 246.75 -100.740234375 267.809570312 -108.400390625 c 0
 284.459960938 -102.349609375 306.26953125 -83.6396484375 316.790039062 -63.009765625 c 0
 295.900390625 -38.6103515625 268.599609375 -19.8701171875 237.5 -9.3896484375 c 0
 223.1796875 -11.9599609375 212.290039062 -24.41015625 212.290039062 -39.4697265625 c 0
137.4296875 -290.780273438 m 0
 138 -288.360351562 138.330078125 -285.83984375 138.330078125 -283.240234375 c 0
 138.330078125 -264.91015625 123.469726562 -250.049804688 105.139648438 -250.049804688 c 0
 94.009765625 -250.049804688 84.2001953125 -255.540039062 78.169921875 -263.940429688 c 1
 72.150390625 -255.549804688 62.330078125 -250.049804688 51.2001953125 -250.049804688 c 0
 38.7900390625 -250.049804688 28.08984375 -256.940429688 22.400390625 -267.030273438 c 0
 40.6396484375 -299.98046875 68.900390625 -326.599609375 103.080078125 -342.76953125 c 0
 119.450195312 -329.259765625 134.389648438 -309.700195312 137.4296875 -290.780273438 c 0
343.009765625 -256.419921875 m 0
 340.190429688 -246.919921875 331.490234375 -239.950195312 321.0703125 -239.950195312 c 0
 313.360351562 -239.950195312 306.559570312 -243.75 302.389648438 -249.5703125 c 1
 298.219726562 -243.75 291.419921875 -239.950195312 283.709960938 -239.950195312 c 0
 271.009765625 -239.950195312 260.719726562 -250.240234375 260.719726562 -262.940429688 c 0
 260.719726562 -264.740234375 260.950195312 -266.48046875 261.33984375 -268.16015625 c 0
 264.41015625 -287.209960938 284.8203125 -307.120117188 300.4296875 -313.76953125 c 0
 318.190429688 -297.76953125 332.740234375 -278.299804688 343.009765625 -256.419921875 c 0
336.25 -32.6904296875 m 0
 336.25 -15.76953125 322.530273438 -2.0595703125 305.620117188 -2.0595703125 c 0
 295.349609375 -2.0595703125 286.290039062 -7.1298828125 280.73046875 -14.8798828125 c 1
 275.169921875 -7.1298828125 266.110351562 -2.0595703125 255.83984375 -2.0595703125 c 0
 238.919921875 -2.0595703125 225.209960938 -15.76953125 225.209960938 -32.6904296875 c 0
 225.209960938 -35.08984375 225.509765625 -37.41015625 226.030273438 -39.650390625 c 0
 230.290039062 -66.080078125 259.669921875 -93.9599609375 280.73046875 -101.620117188 c 0
 301.790039062 -93.9599609375 331.169921875 -66.080078125 335.419921875 -39.66015625 c 0
 335.950195312 -37.41015625 336.25 -35.08984375 336.25 -32.6904296875 c 0
122.080078125 -284.080078125 m 0
 122.080078125 -265.75 107.219726562 -250.889648438 88.8896484375 -250.889648438 c 0
 77.759765625 -250.889648438 67.9501953125 -256.379882812 61.919921875 -264.780273438 c 1
 55.900390625 -256.379882812 46.080078125 -250.889648438 34.9501953125 -250.889648438 c 0
 16.6201171875 -250.889648438 1.759765625 -265.75 1.759765625 -284.080078125 c 0
 1.759765625 -286.6796875 2.08984375 -289.190429688 2.650390625 -291.620117188 c 0
 7.259765625 -320.25 39.08984375 -350.459960938 61.91015625 -358.759765625 c 0
 84.73046875 -350.469726562 116.559570312 -320.259765625 121.169921875 -291.629882812 c 0
 121.75 -289.190429688 122.080078125 -286.669921875 122.080078125 -284.080078125 c 0
359.48046875 -261.26953125 m 0
 359.48046875 -248.5703125 349.190429688 -238.280273438 336.490234375 -238.280273438 c 0
 328.780273438 -238.280273438 321.98046875 -242.080078125 317.809570312 -247.900390625 c 1
 313.639648438 -242.080078125 306.83984375 -238.280273438 299.129882812 -238.280273438 c 0
 286.4296875 -238.280273438 276.139648438 -248.5703125 276.139648438 -261.26953125 c 0
 276.139648438 -263.0703125 276.370117188 -264.809570312 276.759765625 -266.490234375 c 0
 279.950195312 -286.3203125 302 -307.25 317.809570312 -312.990234375 c 0
 333.610351562 -307.25 355.669921875 -286.3203125 358.849609375 -266.490234375 c 0
 359.25 -264.809570312 359.48046875 -263.0703125 359.48046875 -261.26953125 c 0
EndSplineSet
Fore
Refer: 33 -1 S 1 0 0 1 0 0 2
Refer: 32 -1 N 1 0 0 1 0 0 2
Refer: 28 -1 N 1 0 0 1 0 0 2
EndChar

StartChar: lickinglipsmouth
Encoding: 96 -1 7
Width: 360
GlyphClass: 5
Flags: W
LayerCount: 2
Back
SplineSet
-478.808968769 310.280956474 m 6
 -478.808968769 310.280956474 -478.823414021 310.277338907 -478.816875268 310.312582473 c 4
 -479.601520451 313.389764622 -480.014666912 316.646110888 -480.014666912 319.998191217 c 4
 -480.014666912 342.078899829 -462.087931239 360.005635502 -440.007222626 360.005635502 c 4
 -421.278594341 360.005635502 -405.538440802 347.108681769 -401.191031231 329.719043526 c 5
 -401.191031231 329.719043526 -401.245047956 329.930634444 -401.214552426 329.812757313 c 4
 -401.131139544 329.490333964 -399.863229145 324.637963793 -397.079320992 316.436192233 c 4
 -394.573842267 309.054711586 -390.84043209 298.960959117 -385.650603879 287.014562103 c 4
 -376.306864073 265.506330851 -362.238928779 238.023319026 -342.242743775 209.457340449 c 4
 -317.226070798 173.719236197 -283.077818231 136.422346091 -237.149985479 106.006562811 c 4
 -205.237067413 84.8721799856 -167.556003078 66.9498994708 -122.635187744 55.0915750138 c 4
 -86.6948699628 45.6039478152 -46.0677343842 40 0 40 c 4
 46.0677343842 40 86.6948699628 45.6039478152 122.635187744 55.0915750138 c 4
 167.556003078 66.9498994708 205.237067413 84.8721799856 237.149985479 106.006562811 c 4
 283.077818231 136.422346091 317.226070798 173.719236197 342.242743775 209.457340449 c 4
 362.238928779 238.023319026 376.306864073 265.506330851 385.650603879 287.014562103 c 4
 390.84043209 298.960959117 394.573842267 309.054711586 397.079320992 316.436192233 c 4
 399.863229145 324.637963793 401.131139544 329.490333964 401.214552426 329.812757313 c 4
 401.24504826 329.930635616 401.19103096 329.719042442 401.19103096 329.719042442 c 4
 405.538440148 347.108681233 421.278593952 360.005635502 440.007222626 360.005635502 c 4
 462.087931238 360.005635502 480.014666911 342.07889983 480.014666911 319.998191217 c 4
 480.014666911 316.646111278 479.601520546 313.389765378 478.816875543 310.312583575 c 4
 478.823414291 310.277339992 478.80896904 310.280957558 478.80896904 310.280957558 c 6
 478.401451432 308.650886935 473.214913946 288.264489728 460.19927161 257.831713767 c 4
 449.787262322 233.486672795 434.356160874 202.685311887 412.185750446 169.985067248 c 4
 394.452318782 143.829143991 372.387767252 116.444014416 345.109051035 90.3480419826 c 4
 311.018216288 57.7353091587 268.738067828 27.1624733457 217.116551476 3.89643780696 c 4
 183.942281783 -11.0553457168 146.960465466 -22.9704794274 106.005511865 -30.5789468599 c 4
 73.2412536972 -36.6657756632 37.9423703404 -40 0 -40 c 4
 -37.9423703404 -40 -73.2412536972 -36.6657756632 -106.005511865 -30.5789468599 c 4
 -146.960465466 -22.9704794274 -183.942281783 -11.0553457168 -217.116551476 3.89643780696 c 4
 -268.738067828 27.1624733457 -311.018216288 57.7353091587 -345.109051035 90.3480419826 c 4
 -372.387767252 116.444014416 -394.452318782 143.829143991 -412.185750446 169.985067248 c 4
 -434.356160874 202.685311887 -449.787262322 233.486672795 -460.19927161 257.831713767 c 4
 -473.214913695 288.264489142 -478.401451717 308.650888271 -478.808968769 310.280956474 c 6
EndSplineSet
Fore
SplineSet
-478.808968769 310.280956474 m 0,0,1
 -480.014666912 315.010021702 -480.014666912 315.010021702 -480.014666912 319.998191217 c 0,2,3
 -480.014666912 336.558722676 -480.014666912 336.558722676 -468.291210499 348.282179089 c 128,-1,4
 -456.567754086 360.005635502 -456.567754086 360.005635502 -440.007222626 360.005635502 c 0,5,6
 -426.099085448 360.005635502 -426.099085448 360.005635502 -415.292400719 351.451709015 c 128,-1,7
 -404.485715989 342.897782527 -404.485715989 342.897782527 -401.191031231 329.719043526 c 0,8,9
 -399.916096411 324.79371794 -399.916096411 324.79371794 -397.079320992 316.436192233 c 0,10,11
 -392.245759798 302.195864407 -392.245759798 302.195864407 -385.650603879 287.014562103 c 0,12,13
 -367.849482341 246.038395544 -367.849482341 246.038395544 -342.242743775 209.457340449 c 0,14,15
 -298.066767039 146.348802254 -298.066767039 146.348802254 -237.149985479 106.006562811 c 0,16,17
 -185.212586949 71.6109346456 -185.212586949 71.6109346456 -122.635187744 55.0915750138 c 0,18,19
 -65.4664151452 40 -65.4664151452 40 0 40 c 128,-1,20
 65.4664151452 40 65.4664151452 40 122.635187744 55.0915750138 c 0,21,22
 185.212586949 71.6109346456 185.212586949 71.6109346456 237.149985479 106.006562811 c 0,23,24
 298.066767039 146.348802254 298.066767039 146.348802254 342.242743775 209.457340449 c 0,25,26
 367.849482341 246.038395544 367.849482341 246.038395544 385.650603879 287.014562103 c 0,27,28
 392.245759798 302.195864407 392.245759798 302.195864407 397.079320992 316.436192233 c 0,29,30
 399.916096411 324.79371794 399.916096411 324.79371794 401.214552426 329.812757313 c 0,31,32
 404.485715424 342.897781845 404.485715424 342.897781845 415.292400285 351.451708674 c 128,-1,33
 426.099085146 360.005635502 426.099085146 360.005635502 440.007222626 360.005635502 c 0,34,35
 456.567754085 360.005635502 456.567754085 360.005635502 468.291210498 348.282179089 c 128,-1,36
 480.014666911 336.558722676 480.014666911 336.558722676 480.014666911 319.998191217 c 0,37,38
 480.014666911 315.010022271 480.014666911 315.010022271 478.816875543 310.312583575 c 0,39,40
 473.431395132 288.770659402 473.431395132 288.770659402 460.19927161 257.831713767 c 0,41,42
 440.471833451 211.705622542 440.471833451 211.705622542 412.185750446 169.985067248 c 0,43,44
 382.341273602 125.965959117 382.341273602 125.965959117 345.109051035 90.3480419826 c 0,45,46
 288.254569925 35.9586433052 288.254569925 35.9586433052 217.116551476 3.89643780696 c 0,47,48
 164.900176898 -19.6377028479 164.900176898 -19.6377028479 106.005511865 -30.5789468599 c 0,49,50
 55.2937492591 -40 55.2937492591 -40 0 -40 c 128,-1,51
 -55.2937492591 -40 -55.2937492591 -40 -106.005511865 -30.5789468599 c 0,52,53
 -164.900176898 -19.6377028479 -164.900176898 -19.6377028479 -217.116551476 3.89643780696 c 0,54,55
 -288.254569925 35.9586433052 -288.254569925 35.9586433052 -345.109051035 90.3480419826 c 0,56,57
 -382.341273602 125.965959117 -382.341273602 125.965959117 -412.185750446 169.985067248 c 0,58,59
 -440.471833451 211.705622542 -440.471833451 211.705622542 -460.19927161 257.831713767 c 0,60,61
 -473.431393583 288.770655781 -473.431393583 288.770655781 -478.808968769 310.280956474 c 0,0,1
EndSplineSet
EndChar

StartChar: mouth.smiling1
Encoding: 69 -1 8
Width: 360
GlyphClass: 5
Flags: W
LayerCount: 2
Back
SplineSet
-185.860637503 194.139362503 m 1
 -185.860637503 194.139362503 -186.278652738 194.541942634 -186.278363237 194.54168038 c 1
 -186.278363237 194.54168038 -186.297890417 194.559151405 -186.290060133 194.552210651 c 0
 -186.281210255 194.544366129 -185.949475475 194.250813926 -185.236682813 193.720647742 c 0
 -184.595191936 193.243514926 -183.64498237 192.57472683 -182.343670365 191.751388328 c 0
 -178.684965845 189.436530485 -172.243884004 185.894279341 -162.103306828 181.99405735 c 0
 -136.443715667 172.124983826 -87.0237270833 160 0 160 c 0
 87.0237270833 160 136.443715667 172.124983826 162.103306828 181.99405735 c 0
 172.243884004 185.894279341 178.684965845 189.436530485 182.343670365 191.751388328 c 0
 183.64498237 192.57472683 184.595191936 193.243514926 185.236682813 193.720647742 c 0
 185.949475475 194.250813926 186.281210255 194.544366129 186.290060133 194.552210651 c 0
 186.297890417 194.559151405 186.278363237 194.54168038 186.278363237 194.54168038 c 1
 186.278363237 194.54168038 185.86036213 194.13908713 185.860638343 194.139363343 c 0
 188.220643773 196.499368491 191.203633378 198.29979334 194.64690432 199.253265965 c 0
 205.284567626 202.198930401 216.312895813 195.952600153 219.259038595 185.313209397 c 0
 220.212666054 181.869379303 220.203356981 178.384692766 219.393814216 175.146521711 c 5
 219.636349841 176.116664211 219.161948759 174.170335738 219.404484385 175.140478238 c 1
 219.249107262 174.518969748 217.34677173 167.019662135 212.928423026 155.378142681 c 0
 209.393566469 146.064459193 204.247948394 134.09573225 197.054910103 120.876094311 c 0
 189.862686404 107.657953458 180.619721867 93.1778524801 168.83871608 78.9016738858 c 0
 159.415495167 67.4826501512 148.360592725 56.1909532208 135.442709215 45.8566464129 c 0
 117.27922573 31.3258596245 95.4149501361 18.7137306395 69.5640620565 10.4414464541 c 0
 48.8886319456 3.82530881855 25.7190367343 0 0 0 c 0
 -25.7190367343 0 -48.8886319456 3.82530881855 -69.5640620565 10.4414464541 c 0
 -95.4149501361 18.7137306395 -117.27922573 31.3258596245 -135.442709215 45.8566464129 c 0
 -148.360592725 56.1909532208 -159.415495167 67.4826501512 -168.83871608 78.9016738858 c 0
 -180.619721867 93.1778524801 -189.862686404 107.657953458 -197.054910103 120.876094311 c 0
 -204.247948394 134.09573225 -209.393566469 146.064459193 -212.928423026 155.378142681 c 0
 -217.346771616 167.019661834 -219.249107409 174.51897041 -219.404484252 175.140477706 c 0
 -220.214027175 178.378649011 -220.223336277 181.863335853 -219.269708681 185.307166228 c 0
 -216.323565731 195.946556936 -205.295237442 202.192887005 -194.657574179 199.2472224 c 0
 -191.214302956 198.293749638 -188.231313161 196.493324514 -185.860637503 194.139362503 c 1
EndSplineSet
Fore
SplineSet
0 160 m 129,-1,1
 70 160 70 160 119 170 c 129,-1,2
 168 180 168 180 188 196 c 257,3,4
 194 200 194 200 200 200 c 257,5,6
 208 200 208 200 214 194 c 129,-1,7
 220 188 220 188 220 180 c 257,8,9
 220 177 220 177 219 173.5 c 129,-1,10
 218 170 218 170 217 167 c 1,11,12
 192 92 192 92 135.5 46 c 129,-1,13
 79 0 79 0 0 0 c 129,-1,14
 -79 0 -79 0 -135.5 46 c 129,-1,15
 -192 92 -192 92 -217 167 c 1,16,17
 -218 170 -218 170 -219 173.5 c 129,-1,18
 -220 177 -220 177 -220 180 c 257,19,20
 -220 188 -220 188 -214 194 c 129,-1,21
 -208 200 -208 200 -200 200 c 257,22,23
 -194 200 -194 200 -188 196 c 257,24,25
 -168 180 -168 180 -119 170 c 129,-1,0
 -70 160 -70 160 0 160 c 129,-1,1
EndSplineSet
EndChar

StartChar: eye.smiling
Encoding: 70 -1 9
Width: 360
GlyphClass: 5
Flags: W
LayerCount: 2
Back
SplineSet
0 0 m 1
 80 0 120 -120 120 -120 c 1033
-82.0423241541 -132.642448784 m 1
 -82.0423241541 -132.642448784 -82.027698219 -132.647320201 -82.0483900602 -132.660646503 c 0
 -87.3250512188 -148.539379184 -102.329869807 -160.010142152 -119.992687032 -160.010142152 c 0
 -142.073540334 -160.010142152 -160.000393476 -142.08328901 -160.000393476 -120.002435708 c 0
 -160.000393476 -115.584399631 -159.28271343 -111.332663964 -157.957675846 -107.357551216 c 0
 -157.568730813 -106.190716119 -153.244399708 -93.3113147403 -144.621960201 -75.427736504 c 0
 -140.787074366 -67.4738992162 -136.09589047 -58.5230688421 -130.452414264 -49.1404993474 c 0
 -125.937162556 -41.633661117 -120.811642852 -33.8476315889 -114.981980467 -26.0747484084 c 0
 -106.243241747 -14.4230967818 -95.9177132719 -2.74429868581 -83.458552511 7.71524368138 c 0
 -73.5003943361 16.0751789393 -62.1166776507 23.6822113578 -49.1356502095 29.4515568872 c 0
 -42.650085908 32.3340299101 -35.7734816435 34.7476954817 -28.547283907 36.5319418364 c 0
 -19.5150795348 38.7621157555 -9.94386665593 40 0 40 c 0
 9.94386665593 40 19.5150795348 38.7621157555 28.547283907 36.5319418364 c 0
 35.7734816435 34.7476954817 42.650085908 32.3340299101 49.1356502095 29.4515568872 c 0
 62.1166776507 23.6822113578 73.5003943361 16.0751789393 83.458552511 7.71524368138 c 0
 95.9177132719 -2.74429868581 106.243241747 -14.4230967818 114.981980467 -26.0747484084 c 0
 120.811642852 -33.8476315889 125.937162556 -41.633661117 130.452414264 -49.1404993474 c 0
 136.09589047 -58.5230688421 140.787074366 -67.4738992162 144.621960201 -75.427736504 c 0
 153.244399827 -93.3113149877 157.568730644 -106.190715564 157.957675994 -107.357551661 c 0
 159.282713484 -111.332664282 160.000393476 -115.584399796 160.000393476 -120.002435708 c 0
 160.000393476 -142.08328901 142.073540334 -160.010142152 119.992687032 -160.010142152 c 0
 102.329869642 -160.010142152 87.325050938 -148.53937897 82.0483899089 -132.66064605 c 0
 82.0276980702 -132.647319755 82.0423240055 -132.642448339 82.0423240055 -132.642448339 c 1
 82.0423240055 -132.642448339 82.0944824246 -132.797197688 82.0723655168 -132.732111077 c 0
 82.0415883586 -132.641538699 81.121957116 -129.946004843 79.3459135535 -125.531476811 c 0
 77.7477801859 -121.559161774 75.4552789011 -116.194695047 72.5156712575 -110.097731046 c 0
 69.5765219692 -104.001717707 65.9883296034 -97.1743428144 61.8470884089 -90.2893163018 c 0
 58.5345661965 -84.7820777264 54.8688936516 -79.2408203747 50.9439454594 -74.0075561184 c 0
 45.0507683128 -66.1499865897 38.5766896815 -59.0421272768 32.068552097 -53.5785056009 c 0
 26.8528715956 -49.1999096244 21.6754272114 -45.9010465624 16.7079711896 -43.6932883306 c 0
 14.2192937598 -42.5872094728 11.7748256944 -41.7445210936 9.33312050285 -41.1416309228 c 0
 6.28044621502 -40.3878841851 3.2248576239 -40 0 -40 c 0
 -3.2248576239 -40 -6.28044621502 -40.3878841851 -9.33312050285 -41.1416309228 c 0
 -11.7748256944 -41.7445210936 -14.2192937598 -42.5872094728 -16.7079711896 -43.6932883306 c 0
 -21.6754272114 -45.9010465624 -26.8528715956 -49.1999096244 -32.068552097 -53.5785056009 c 0
 -38.5766896815 -59.0421272768 -45.0507683128 -66.1499865897 -50.9439454594 -74.0075561184 c 0
 -54.8688936516 -79.2408203747 -58.5345661965 -84.7820777264 -61.8470884089 -90.2893163018 c 0
 -65.9883296034 -97.1743428144 -69.5765219692 -104.001717707 -72.5156712575 -110.097731046 c 0
 -75.4552789011 -116.194695047 -77.7477801859 -121.559161774 -79.3459135535 -125.531476811 c 0
 -81.121957116 -129.946004843 -82.0415883586 -132.641538699 -82.0723655168 -132.732111077 c 0
 -82.0944822608 -132.797197206 -82.0423241541 -132.642448784 -82.0423241541 -132.642448784 c 1
EndSplineSet
Fore
SplineSet
0 40 m 129,-1,1
 49 40 49 40 90 2 c 129,-1,2
 131 -36 131 -36 158 -107 c 257,3,4
 160 -113 160 -113 160 -120 c 1,5,6
 160 -136 160 -136 148.5 -148 c 129,-1,7
 137 -160 137 -160 120 -160 c 1,8,9
 106 -160 106 -160 96 -152 c 129,-1,10
 86 -144 86 -144 82 -133 c 257,11,12
 68 -94 68 -94 45.5 -67 c 129,-1,13
 23 -40 23 -40 0 -40 c 129,-1,14
 -23 -40 -23 -40 -45.5 -67 c 129,-1,15
 -68 -94 -68 -94 -82 -133 c 261,16,17
 -86 -144 -86 -144 -96 -152 c 133,-1,18
 -106 -160 -106 -160 -120 -160 c 5,19,20
 -137 -160 -137 -160 -148.5 -148 c 133,-1,21
 -160 -136 -160 -136 -160 -120 c 5,22,23
 -160 -113 -160 -113 -158 -107 c 261,24,25
 -131 -36 -131 -36 -90 2 c 129,-1,0
 -49 40 -49 40 0 40 c 129,-1,1
EndSplineSet
EndChar

StartChar: heart
Encoding: 71 -1 10
Width: 360
GlyphClass: 5
Flags: W
LayerCount: 2
Back
SplineSet
0 0 m 1
 -55 19.9931640625 -131.736328125 92.8046875 -142.84375 161.822265625 c 0
 -144.205078125 167.66796875 -145 173.732421875 -145 179.991210938 c 0
 -145 224.18359375 -109.181640625 259.995117188 -64.99609375 259.995117188 c 0
 -38.185546875 259.995117188 -14.5205078125 246.755859375 0 226.51953125 c 1
 14.5205078125 246.755859375 38.185546875 259.995117188 65.0048828125 259.995117188 c 0
 109.181640625 259.995117188 145 224.17578125 145 179.991210938 c 0
 145 173.724609375 144.205078125 167.66015625 142.827148438 161.814453125 c 4
 131.736328125 92.8046875 54.9921875 19.9931640625 0 0 c 1
EndSplineSet
Fore
SplineSet
-145 180 m 1,0,1
 -145 213 -145 213 -121.5 236.5 c 129,-1,2
 -98 260 -98 260 -65 260 c 1,3,4
 -25 260 -25 260 0 226 c 1,5,6
 25 260 25 260 65 260 c 1,7,8
 98 260 98 260 121.568359375 236.564453125 c 129,-1,9
 145 213 145 213 145 180 c 1,10,11
 145 172 145 172 143 162 c 1,12,13
 134 113 134 113 90.5 65.5 c 129,-1,14
 47 18 47 18 0 0 c 1,15,16
 -47 18 -47 18 -90.5 65.5 c 129,-1,17
 -134 113 -134 113 -143 162 c 1,18,19
 -145 172 -145 172 -145 180 c 1,0,1
EndSplineSet
EndChar

StartChar: mouth.smiling2
Encoding: 72 -1 11
Width: 360
GlyphClass: 5
Flags: W
LayerCount: 2
Back
SplineSet
-348.016601562 236.009765625 m 2
 -348.016601562 236.009765625 -344.112304688 233.051757812 -335.448242188 227.297851562 c 0
 -328.689453125 222.809570312 -319.3359375 216.846679688 -307.708007812 210.028320312 c 0
 -286.77734375 197.754882812 -258.473632812 182.711914062 -224.680664062 168.483398438 c 0
 -190.88671875 154.25390625 -151.608398438 140.844726562 -108.750976562 131.762695312 c 0
 -74.46484375 124.497070312 -37.89453125 120 0 120 c 0
 37.89453125 120 74.46484375 124.497070312 108.750976562 131.762695312 c 0
 151.608398438 140.844726562 190.88671875 154.25390625 224.680664062 168.483398438 c 0
 258.473632812 182.711914062 286.77734375 197.754882812 307.708007812 210.028320312 c 0
 319.3359375 216.846679688 328.689453125 222.809570312 335.448242188 227.297851562 c 0
 344.112304688 233.051757812 348.016601562 236.009765625 348.016601562 236.009765625 c 2
 351.0859375 238.311523438 354.848632812 239.756835938 358.96484375 239.969726562 c 0
 369.986328125 240.5390625 379.396484375 232.0546875 379.965820312 221.03515625 c 0
 380.177734375 216.919921875 379.127929688 213.029296875 377.154296875 209.739257812 c 5
 377.66796875 210.596679688 376.6484375 208.874023438 377.162109375 209.731445312 c 5
 376.696289062 208.954101562 364.6484375 188.967773438 340.815429688 161.505859375 c 0
 321.75 139.538085938 295.12890625 112.767578125 260.776367188 87.3212890625 c 0
 233.297851562 66.9658203125 200.857421875 47.4580078125 163.428710938 32.0546875 c 0
 116.643554688 12.8017578125 62.0693359375 0 0 0 c 0
 -62.0693359375 0 -116.643554688 12.8017578125 -163.428710938 32.0546875 c 0
 -200.857421875 47.4580078125 -233.297851562 66.9658203125 -260.776367188 87.3212890625 c 0
 -295.12890625 112.767578125 -321.75 139.538085938 -340.815429688 161.505859375 c 0
 -364.6484375 188.967773438 -376.696289062 208.954101562 -377.162109375 209.731445312 c 0
 -379.13671875 213.021484375 -380.186523438 216.912109375 -379.973632812 221.02734375 c 0
 -379.404296875 232.046875 -369.994140625 240.53125 -358.973632812 239.961914062 c 0
 -354.857421875 239.749023438 -351.094726562 238.303710938 -348.016601562 236.009765625 c 2
-360 220 m 1
 -360 220 -200 100 0 100 c 0
 200 100 360 220 360 220 c 1
 360 220 240 20 0 20 c 0
 -240 20 -360 220 -360 220 c 1
EndSplineSet
Fore
SplineSet
0 0 m 129,-1,1
 -117 0 -117 0 -216.5 58.5 c 129,-1,2
 -316 117 -316 117 -376 208 c 1,3,4
 -380 213 -380 213 -380 220.5 c 129,-1,5
 -380 228 -380 228 -374 234 c 129,-1,6
 -368 240 -368 240 -360 240 c 1,7,8
 -354 240 -354 240 -348 236 c 1,9,10
 -276 185 -276 185 -183 152.5 c 129,-1,11
 -90 120 -90 120 0 120 c 129,-1,12
 90 120 90 120 183 152.5 c 129,-1,13
 276 185 276 185 348 236 c 1,14,15
 354 240 354 240 360 240 c 1,16,17
 368 240 368 240 374 234 c 129,-1,18
 380 228 380 228 380 220.5 c 129,-1,19
 380 213 380 213 376 208 c 1,20,21
 316 117 316 117 216.5 58.5 c 129,-1,0
 117 0 117 0 0 0 c 129,-1,1
EndSplineSet
EndChar

StartChar: eyebrow.2
Encoding: 73 -1 12
Width: 360
GlyphClass: 5
Flags: W
LayerCount: 2
Back
SplineSet
0 40 m 1
 22.07660004 40 40.00000004 22.0766 40.00000004 0 c 1
 40.00000004 -22.0766 22.07660004 -40 4.0000000025e-08 -40 c 9
 0 -40 l 1
 0 -40 0.457590164936 -39.9949380491 0.156809803714 -40.0002084252 c 1
 -0.85194704799 -40.0178842067 -13.0748662695 -40.3165045434 -32.2995617231 -43.9923545345 c 1
 -49.6059600915 -47.30141732 -72.5606720632 -53.3403553369 -98.2207885171 -64.2595538279 c 1
 -118.753883672 -72.9970411279 -141.01596968 -84.8468605395 -163.656427385 -100.952608878 c 1
 -191.959314816 -121.086441336 -220.900137624 -147.858610692 -247.980982496 -183.966403855 c 9
 -248.026927398 -184.027663724 l 17
 -255.325189589 -193.758679978 -266.953603083 -200.059278243 -280.041987604 -200.059278243 c 1
 -302.115859111 -200.059278243 -320.03704392 -182.138093434 -320.03704392 -160.064221927 c 1
 -320.03704392 -151.078734942 -317.067478228 -142.781354021 -312.019017504 -136.033596145 c 1
 -287.889301251 -103.860641142 -262.059740418 -77.3906265916 -236.013565272 -55.7673868475 c 1
 -215.176012068 -38.468286074 -194.210762796 -24.2716681029 -173.87686037 -12.6522952884 c 1
 -133.197844404 10.5928566921 -95.0967765856 23.526147888 -65.0731180861 30.7607643939 c 1
 -27.5302836481 39.8072305235 -2.50857446576 39.9999999987 0 40 c 1
EndSplineSet
Fore
SplineSet
-312 -136 m 5,0,1
 -257 -63 -257 -63 -184.5 -19 c 129,-1,2
 -112 25 -112 25 -33 37 c 257,3,4
 -13 40 -13 40 0 40 c 257,5,6
 17 40 17 40 28.5 28 c 129,-1,7
 40 16 40 16 40 0 c 129,-1,8
 40 -16 40 -16 28.5 -28 c 129,-1,9
 17 -40 17 -40 0 -40 c 257,10,11
 -10 -40 -10 -40 -32 -44 c 257,12,13
 -92 -56 -92 -56 -146.5 -89.5 c 129,-1,14
 -201 -123 -201 -123 -248 -184 c 5,15,16
 -261 -200 -261 -200 -280 -200 c 5,17,18
 -297 -200 -297 -200 -308.5 -188 c 133,-1,19
 -320 -176 -320 -176 -320 -160 c 5,20,21
 -320 -147 -320 -147 -312 -136 c 5,0,1
EndSplineSet
EndChar

StartChar: c
Encoding: 99 -1 13
Width: 360
GlyphClass: 5
Flags: W
LayerCount: 2
Back
SplineSet
360 -180 m 0
 360 -279.41015625 279.41015625 -360 180 -360 c 0
 80.599609375 -360 0 -279.41015625 0 -180 c 0
 0 -80.599609375 80.599609375 0 180 0 c 0
 279.41015625 0 360 -80.599609375 360 -180 c 1024
173.120117188 -176.120117188 m 0
 171.360351562 -174.690429688 168.849609375 -174.650390625 167.01953125 -175.98046875 c 0
 166.900390625 -176.0703125 154.419921875 -185 130 -185 c 0
 105.58984375 -185 93.099609375 -176.0703125 93 -176 c 0
 91.169921875 -174.629882812 88.650390625 -174.669921875 86.8896484375 -176.08984375 c 0
 85.1103515625 -177.509765625 84.509765625 -179.950195312 85.4296875 -182.030273438 c 0
 86.0302734375 -183.379882812 100.4296875 -215 130 -215 c 0
 159.580078125 -215 173.969726562 -183.379882812 174.5703125 -182.030273438 c 0
 175.490234375 -179.959960938 174.889648438 -177.540039062 173.120117188 -176.120117188 c 0
273.120117188 -176.120117188 m 0
 271.360351562 -174.690429688 268.860351562 -174.639648438 267.01953125 -175.98046875 c 0
 266.900390625 -176.0703125 254.41015625 -185 230 -185 c 0
 205.599609375 -185 193.099609375 -176.0703125 193 -176 c 0
 191.169921875 -174.629882812 188.66015625 -174.669921875 186.889648438 -176.08984375 c 0
 185.110351562 -177.509765625 184.509765625 -179.950195312 185.4296875 -182.030273438 c 0
 186.030273438 -183.379882812 200.4296875 -215 230 -215 c 0
 259.580078125 -215 273.969726562 -183.379882812 274.5703125 -182.030273438 c 0
 275.490234375 -179.959960938 274.889648438 -177.540039062 273.120117188 -176.120117188 c 0
220 -280 m 2
 140 -280 l 2
 134.48046875 -280 130 -275.530273438 130 -270 c 0
 130 -264.469726562 134.48046875 -260 140 -260 c 2
 220 -260 l 2
 225.530273438 -260 230 -264.469726562 230 -270 c 0
 230 -275.530273438 225.530273438 -280 220 -280 c 2
60 -140 m 0
 54.48046875 -140 50 -135.51953125 50 -130 c 0
 50 -124.490234375 54.4501953125 -120.01953125 59.9599609375 -120 c 0
 61.51953125 -119.98046875 95.650390625 -119.139648438 122.009765625 -84 c 0
 125.3203125 -79.599609375 131.580078125 -78.6796875 136.009765625 -82 c 0
 140.4296875 -85.3095703125 141.3203125 -91.580078125 138.009765625 -96 c 0
 105.379882812 -139.5 61.83984375 -140 60 -140 c 0
300 -140 m 0
 298.16015625 -140 254.629882812 -139.5 222 -96 c 0
 218.6796875 -91.580078125 219.580078125 -85.3095703125 224 -82 c 0
 228.41015625 -78.669921875 234.669921875 -79.580078125 237.990234375 -84 c 0
 264.400390625 -119.209960938 298.599609375 -119.990234375 300.049804688 -120 c 0
 305.549804688 -120.059570312 309.990234375 -124.559570312 309.959960938 -130.049804688 c 0
 309.940429688 -135.559570312 305.5 -140 300 -140 c 0
EndSplineSet
EndChar

StartChar: J
Encoding: 74 -1 14
Width: 360
GlyphClass: 5
Flags: W
LayerCount: 2
Back
SplineSet
-148.393688911 156.285390381 m 1
 -148.393688911 156.285390381 -148.555625223 156.398707535 -148.44707394 156.323646045 c 0
 -148.076188935 156.067184947 -143.61114763 153.014696685 -135.236177223 148.785676462 c 0
 -127.69816953 144.979288447 -116.993868968 140.219684052 -103.245382528 135.674729856 c 0
 -78.4963224098 127.493222379 -43.8928873353 120 0 120 c 0
 43.8928873353 120 78.4963224098 127.493222379 103.245382528 135.674729856 c 0
 116.993868968 140.219684052 127.69816953 144.979288447 135.236177223 148.785676462 c 0
 143.61114763 153.014696685 148.076188935 156.067184947 148.44707394 156.323646045 c 0
 148.555625652 156.398707831 148.393688519 156.285390101 148.393688519 156.285390101 c 1
 151.105606671 158.222474591 154.338802777 159.507025576 157.886517591 159.883217102 c 0
 168.860203748 161.046841564 178.71422256 153.08173498 179.877922821 142.107333991 c 0
 180.254138852 138.559388076 179.676294612 135.128488375 178.351149345 132.07046084 c 1
 178.748756783 132.988016466 177.963071623 131.145202246 178.360679061 132.062757871 c 1
 178.052167213 131.350807453 172.686770782 119.042063256 161.923874665 102.071940801 c 0
 153.313539162 88.4958134936 141.242167889 71.9052334034 125.335057018 55.9315655835 c 0
 112.613917897 43.1571999392 97.4013020552 30.7470635704 79.4855685944 20.8260298127 c 0
 69.5352786328 15.3159476927 58.7519683884 10.5818219109 47.1529987388 7.02803454956 c 0
 32.6546866361 2.58592289065 16.8903106926 0 0 0 c 0
 -16.8903106926 0 -32.6546866361 2.58592289065 -47.1529987388 7.02803454956 c 0
 -58.7519683884 10.5818219109 -69.5352786328 15.3159476927 -79.4855685944 20.8260298127 c 0
 -97.4013020552 30.7470635704 -112.613917897 43.1571999392 -125.335057018 55.9315655835 c 0
 -141.242167889 71.9052334034 -153.313539162 88.4958134936 -161.923874665 102.071940801 c 0
 -172.686770809 119.042063299 -178.052167173 131.350807353 -178.360679096 132.062757953 c 0
 -179.685824313 135.120785409 -180.263668543 138.551685011 -179.887452557 142.09963083 c 0
 -178.723752403 153.07403183 -168.869733668 161.03913851 -157.896047501 159.875514155 c 0
 -154.348332784 159.499322674 -151.115136749 158.214771783 -148.393688911 156.285390381 c 1
-160 140 m 1
 -160 140 -108 20 0 20 c 0
 108 20 160 140 160 140 c 1
 160 140 104 100 0 100 c 0
 -104 100 -160 140 -160 140 c 1
EndSplineSet
Fore
SplineSet
180 140 m 1,0,1
 180 138 180 138 179.5 135.5 c 129,-1,2
 179 133 179 133 176 127 c 1,3,4
 144 65 144 65 98 32.5 c 129,-1,5
 52 0 52 0 0 0 c 129,-1,6
 -52 0 -52 0 -98 32.5 c 129,-1,7
 -144 65 -144 65 -176 127 c 1,8,9
 -179 133 -179 133 -179.5 135.5 c 129,-1,10
 -180 138 -180 138 -180 140 c 1,11,12
 -180 148 -180 148 -174 154 c 129,-1,13
 -168 160 -168 160 -160 160 c 1,14,15
 -154 160 -154 160 -148 156 c 1,16,17
 -120 139 -120 139 -82 129.5 c 129,-1,18
 -44 120 -44 120 0 120 c 129,-1,19
 44 120 44 120 82 129.5 c 129,-1,20
 120 139 120 139 148 156 c 1,21,22
 154 160 154 160 160 160 c 1,23,24
 168 160 168 160 174 154 c 129,-1,25
 180 148 180 148 180 140 c 1,0,1
EndSplineSet
EndChar

StartChar: d
Encoding: 100 -1 15
Width: 360
GlyphClass: 5
Flags: W
LayerCount: 2
Back
SplineSet
180 -290 m 0
 163.4296875 -290 150 -286.5703125 150 -270 c 0
 150 -253.4296875 163.4296875 -250 180 -250 c 0
 196.5703125 -250 210 -253.4296875 210 -270 c 0
 210 -286.5703125 196.5703125 -290 180 -290 c 0
360 -180 m 0
 360 -279.41015625 279.41015625 -360 180 -360 c 0
 80.58984375 -360 0 -279.41015625 0 -180 c 0
 0 -80.58984375 80.58984375 0 180 0 c 0
 279.41015625 0 360 -80.58984375 360 -180 c 1024
220 -270 m 0
 220 -297.629882812 202.08984375 -300 180 -300 c 0
 157.900390625 -300 140 -297.629882812 140 -270 c 0
 140 -242.389648438 157.900390625 -210 180 -210 c 0
 202.08984375 -210 220 -242.389648438 220 -270 c 0
300 -150 m 0
 298.759765625 -150 297.5 -149.76953125 296.290039062 -149.280273438 c 0
 244 -128.370117188 222.5703125 -96.8701171875 221.6796875 -95.5400390625 c 0
 218.610351562 -90.9404296875 219.849609375 -84.73046875 224.450195312 -81.669921875 c 0
 229.040039062 -78.6103515625 235.219726562 -79.830078125 238.299804688 -84.41015625 c 0
 238.490234375 -84.6796875 257.599609375 -112.259765625 303.709960938 -130.700195312 c 0
 308.83984375 -132.759765625 311.33984375 -138.5703125 309.290039062 -143.700195312 c 0
 307.719726562 -147.620117188 303.959960938 -150 300 -150 c 0
60 -150 m 0
 56.0302734375 -150 52.2802734375 -147.620117188 50.7099609375 -143.709960938 c 0
 48.66015625 -138.580078125 51.150390625 -132.759765625 56.2802734375 -130.709960938 c 0
 102.400390625 -112.26953125 121.509765625 -84.6904296875 121.700195312 -84.419921875 c 0
 124.780273438 -79.8603515625 130.990234375 -78.650390625 135.5703125 -81.7197265625 c 0
 140.139648438 -84.7998046875 141.379882812 -90.9697265625 138.3203125 -95.5498046875 c 0
 137.4296875 -96.8798828125 116 -128.379882812 63.7197265625 -149.290039062 c 0
 62.5 -149.76953125 61.240234375 -150 60 -150 c 0
240 -160 m 1
 280 -160 l 1
 280 -350 l 1
 240 -349.540039062 l 1
 240 -160 l 1
80 -350 m 1
 120 -349.540039062 l 1
 120 -160 l 1
 80 -160 l 1
 80 -350 l 1
149.990234375 -180 m 0
 148.490234375 -180 146.959960938 -179.66015625 145.530273438 -178.950195312 c 0
 110.41015625 -161.389648438 74.830078125 -178.76953125 74.48046875 -178.950195312 c 0
 69.5302734375 -181.440429688 63.5302734375 -179.41015625 61.0595703125 -174.48046875 c 0
 58.58984375 -169.540039062 60.58984375 -163.530273438 65.5302734375 -161.059570312 c 0
 67.349609375 -160.16015625 110.509765625 -139.08984375 154.48046875 -161.059570312 c 0
 159.419921875 -163.530273438 161.419921875 -169.540039062 158.950195312 -174.48046875 c 0
 157.190429688 -177.98046875 153.66015625 -180 149.990234375 -180 c 0
289.990234375 -180 m 0
 288.490234375 -180 286.959960938 -179.66015625 285.530273438 -178.950195312 c 0
 250.400390625 -161.389648438 214.830078125 -178.76953125 214.48046875 -178.950195312 c 0
 209.540039062 -181.4296875 203.540039062 -179.419921875 201.059570312 -174.48046875 c 0
 198.58984375 -169.540039062 200.58984375 -163.530273438 205.530273438 -161.059570312 c 0
 207.349609375 -160.16015625 250.540039062 -139.099609375 294.48046875 -161.059570312 c 0
 299.419921875 -163.530273438 301.419921875 -169.540039062 298.950195312 -174.48046875 c 0
 297.190429688 -177.98046875 293.66015625 -180 289.990234375 -180 c 0
0 -340 m 0
 0 -351.045898438 80.5888671875 -360 180 -360 c 0
 279.411132812 -360 360 -351.045898438 360 -340 c 0
 360 -328.954101562 279.411132812 -320 180 -320 c 0
 80.5888671875 -320 0 -328.954101562 0 -340 c 0
EndSplineSet
Fore
Refer: 38 -1 N 1 0 0 1 0 0 2
Refer: 37 -1 N 1 0 0 1 0 0 2
Refer: 21 -1 N 0.25 0 0 0.25 180 -290 2
EndChar

StartChar: mouth.flat2
Encoding: 75 -1 16
Width: 360
GlyphClass: 5
Flags: W
LayerCount: 2
Fore
SplineSet
320 -40 m 9,0,1
 320 -40 320 -40 0 -40 c 5,2,3
 -17 -40 -17 -40 -28.5 -28 c 133,-1,4
 -40 -16 -40 -16 -40 0 c 133,-1,5
 -40 16 -40 16 -28.5 28 c 133,-1,6
 -17 40 -17 40 0 40 c 5,7,8
 0 40 0 40 320 40 c 17,9,10
 337 40 337 40 348.5 28 c 129,-1,11
 360 16 360 16 360 0 c 129,-1,12
 360 -16 360 -16 348.5 -28 c 129,-1,13
 337 -40 337 -40 320 -40 c 9,0,1
EndSplineSet
EndChar

StartChar: eyebrow.6
Encoding: 76 -1 17
Width: 360
GlyphClass: 5
Flags: W
LayerCount: 2
Back
SplineSet
-280 -200 m 1024
-33.3058793047 22.1475962171 m 1
 -33.3058793047 22.1475962171 -33.3016205587 22.1447642551 -33.2538885295 22.2255823797 c 0
 -26.1295864946 32.9028153413 -13.885545997 39.9960266651 0.00212937297427 39.9960266651 c 0
 22.077317931 39.9960266651 39.9995720191 22.073772577 39.9995720191 -0.0014159810164 c 0
 39.9995720191 -8.18892916913 37.5341696356 -15.8051607266 33.3058793047 -22.1475962171 c 0
 31.9155770647 -24.2330495751 14.2732887618 -50.2935105604 -23.3800980094 -86.064227993 c 0
 -70.4343398755 -130.765757766 -148.839420024 -190.624188859 -265.167643564 -237.155478275 c 0
 -269.755875455 -238.990771032 -274.762177048 -240.000468948 -280.002445264 -240.000468948 c 0
 -302.082684816 -240.000468948 -320.00903967 -222.074114094 -320.00903967 -199.993874543 c 0
 -320.00903967 -183.153903208 -309.581853604 -168.730113466 -294.883795874 -162.8650975 c 0
 -294.837246965 -162.83227081 -294.832356436 -162.844521725 -294.832356436 -162.844521725 c 2
 -210.103490426 -128.952975321 -148.553928012 -87.7964627791 -106.441225187 -52.8737336067 c 0
 -83.0475421724 -33.4740940337 -65.6630450165 -15.9954489212 -53.713602151 -2.77915967744 c 0
 -40.4375043265 11.9044327588 -33.874087749 21.3250973367 -33.2589891761 22.2189876123 c 0
 -33.0996380108 22.4505642462 -33.3058793047 22.1475962171 -33.3058793047 22.1475962171 c 1
EndSplineSet
Fore
SplineSet
32 -24 m 1,0,1
 -10 -82 -10 -82 -87.5 -139.5 c 129,-1,2
 -165 -197 -165 -197 -265 -237 c 1,3,4
 -272 -240 -272 -240 -280 -240 c 1,5,6
 -297 -240 -297 -240 -308.5 -228 c 129,-1,7
 -320 -216 -320 -216 -320 -200 c 1,8,9
 -320 -188 -320 -188 -313.5 -178 c 129,-1,10
 -307 -168 -307 -168 -295 -163 c 1,11,12
 -198 -123 -198 -123 -131.5 -72.5 c 129,-1,13
 -65 -22 -65 -22 -32 24 c 1,14,15
 -19 40 -19 40 0 40 c 1,16,17
 17 40 17 40 28.5 28 c 129,-1,18
 40 16 40 16 40 0 c 1,19,20
 40 -13 40 -13 32 -24 c 1,0,1
EndSplineSet
EndChar

StartChar: eye.closed
Encoding: 77 -1 18
Width: 360
GlyphClass: 5
Flags: W
LayerCount: 2
Back
SplineSet
17.8496817857 -35.8004133332 m 1
 12.3970454691 -38.5345215192 6.33411786397 -40.0470211668 -0.0792852947408 -40.0470211668 c 0
 -22.1578078929 -40.0470211668 -40.0827687989 -22.1220602608 -40.0827687989 -0.0435376625762 c 0
 -40.0827687989 15.6215817769 -31.0590486017 29.1957299318 -17.9305215665 35.7599934428 c 2
 -17.8496817857 35.8004133332 l 2
 -16.0915490089 36.6794797207 8.11120842037 48.6692239964 47.1791166841 59.3241080684 c 0
 64.5470834144 64.0608262675 84.8641193691 68.5303235679 107.493465558 71.5814713686 c 0
 125.59686305 74.0223788957 145.182985359 75.5555555556 165.925925926 75.5555555556 c 0
 218.387548979 75.5555555556 278.101379281 65.6745645854 337.8496818 35.800413326 c 2
 337.930521581 35.7599934356 l 2
 351.059048608 29.1957299219 360.082768799 15.6215817712 360.082768799 -0.0435376626397 c 0
 360.082768799 -22.1220602608 342.157807893 -40.0470211668 320.079285295 -40.0470211668 c 0
 313.66588213 -40.0470211668 307.60295452 -38.5345215166 302.1503182 -35.800413326 c 0
 255.231954052 -12.3412312521 208.279117688 -4.44444444444 165.925925926 -4.44444444444 c 0
 149.211161875 -4.44444444444 133.189342756 -5.68591257109 118.265332656 -7.69813865202 c 0
 99.6104193536 -10.2134078613 82.6752799336 -13.9329663546 68.2504418182 -17.8670131133 c 0
 53.8257198893 -21.8010281848 41.9138853094 -25.9469977539 33.2903906706 -29.2698122019 c 0
 23.7084225991 -32.9619466882 18.1875257261 -35.6363466296 17.766582256 -35.8419508407 c 0
 17.6319871274 -35.9076920321 17.8496817857 -35.8004133332 17.8496817857 -35.8004133332 c 1
EndSplineSet
Fore
SplineSet
-13 38 m 257,0,1
 69 74 69 74 160.5 75.5 c 129,-1,2
 252 77 252 77 333 38 c 257,3,4
 344 34 344 34 352 24 c 129,-1,5
 360 14 360 14 360 0 c 1,6,7
 360 -17 360 -17 348 -28.5 c 129,-1,8
 336 -40 336 -40 320 -40 c 1,9,10
 313 -40 313 -40 307 -38 c 257,11,12
 238 -3 238 -3 160.5 -4.5 c 129,-1,13
 83 -6 83 -6 13 -38 c 257,14,15
 7 -40 7 -40 0 -40 c 1,16,17
 -16 -40 -16 -40 -28 -28.5 c 129,-1,18
 -40 -17 -40 -17 -40 0 c 1,19,20
 -40 14 -40 14 -32 24 c 129,-1,21
 -24 34 -24 34 -13 38 c 257,0,1
EndSplineSet
EndChar

StartChar: tears2
Encoding: 78 -1 19
Width: 360
GlyphClass: 5
Flags: W
LayerCount: 2
Back
SplineSet
80 -350 m 5
 120 -350 l 5
 120 -160 l 5
 80 -160 l 5
 80 -350 l 5
240 -350 m 5
 280 -350 l 5
 280 -160 l 5
 240 -160 l 5
 240 -350 l 5
EndSplineSet
Fore
SplineSet
80 -350 m 1,0,-1
 80 -160 l 1,1,-1
 120 -160 l 1,2,-1
 120 -350 l 1,3,-1
 80 -350 l 1,0,-1
240 -350 m 1,4,-1
 240 -160 l 1,5,-1
 280 -160 l 1,6,-1
 280 -350 l 1,7,-1
 240 -350 l 1,4,-1
EndSplineSet
EndChar

StartChar: cryingmouth1
Encoding: 79 -1 20
Width: 360
GlyphClass: 5
Flags: W
LayerCount: 2
Back
SplineSet
0 0 m 4
 -88.359375 0 -160 9.55859375 -160 120 c 4
 -160 230.44140625 -88.359375 360 0 360 c 4
 88.359375 360 160 230.44140625 160 120 c 4
 160 9.55859375 88.359375 0 0 0 c 4
EndSplineSet
Fore
SplineSet
0 360 m 129,-1,1
 62 360 62 360 111 284 c 129,-1,2
 160 208 160 208 160 120 c 1,3,4
 160 60 160 60 130 30 c 129,-1,5
 100 0 100 0 0 0 c 129,-1,6
 -100 0 -100 0 -130 30 c 129,-1,7
 -160 60 -160 60 -160 120 c 1,8,9
 -160 208 -160 208 -111 284 c 129,-1,0
 -62 360 -62 360 0 360 c 129,-1,1
EndSplineSet
EndChar

StartChar: cryingmouth2
Encoding: 80 -1 21
Width: 360
GlyphClass: 5
Flags: W
LayerCount: 2
Back
SplineSet
0 0 m 4
 -66.28125 0 -120 13.71875 -120 80 c 4
 -120 146.28125 -66.28125 160 0 160 c 4
 66.28125 160 120 146.28125 120 80 c 4
 120 13.71875 66.28125 0 0 0 c 4
EndSplineSet
Fore
SplineSet
-120 80 m 129,-1,1
 -120 122 -120 122 -91.5 141 c 129,-1,2
 -63 160 -63 160 0 160 c 129,-1,3
 63 160 63 160 91.5 141 c 129,-1,4
 120 122 120 122 120 80 c 129,-1,5
 120 38 120 38 91.5 19 c 129,-1,6
 63 0 63 0 0 0 c 129,-1,7
 -63 0 -63 0 -91.5 19 c 129,-1,0
 -120 38 -120 38 -120 80 c 129,-1,1
EndSplineSet
EndChar

StartChar: e
Encoding: 101 -1 22
Width: 360
GlyphClass: 5
Flags: W
LayerCount: 2
Back
SplineSet
360 -180 m 0
 360 -279.41015625 279.41015625 -360 180 -360 c 0
 80.599609375 -360 0 -279.41015625 0 -180 c 0
 0 -80.599609375 80.599609375 0 180 0 c 0
 279.41015625 0 360 -80.599609375 360 -180 c 1024
240 -230 m 0
 240 -257.614257812 262.385742188 -280 290 -280 c 0
 317.614257812 -280 340 -257.614257812 340 -230 c 0
 340 -202.385742188 317.614257812 -180 290 -180 c 0
 262.385742188 -180 240 -202.385742188 240 -230 c 0
20 -230 m 0
 20 -257.614257812 42.3857421875 -280 70 -280 c 0
 97.6142578125 -280 120 -257.614257812 120 -230 c 0
 120 -202.385742188 97.6142578125 -180 70 -180 c 0
 42.3857421875 -180 20 -202.385742188 20 -230 c 0
190 -165 m 0
 190 -195.375976562 214.624023438 -220 245 -220 c 0
 275.375976562 -220 300 -195.375976562 300 -165 c 0
 300 -134.624023438 275.375976562 -110 245 -110 c 0
 214.624023438 -110 190 -134.624023438 190 -165 c 0
60 -165 m 0
 60 -195.375976562 84.6240234375 -220 115 -220 c 0
 145.375976562 -220 170 -195.375976562 170 -165 c 0
 170 -134.624023438 145.375976562 -110 115 -110 c 0
 84.6240234375 -110 60 -134.624023438 60 -165 c 0
90 -165 m 0
 90 -178.806640625 101.193359375 -190 115 -190 c 0
 128.806640625 -190 140 -178.806640625 140 -165 c 0
 140 -151.193359375 128.806640625 -140 115 -140 c 0
 101.193359375 -140 90 -151.193359375 90 -165 c 0
220 -165 m 0
 220 -178.806640625 231.193359375 -190 245 -190 c 0
 258.806640625 -190 270 -178.806640625 270 -165 c 0
 270 -151.193359375 258.806640625 -140 245 -140 c 0
 231.193359375 -140 220 -151.193359375 220 -165 c 0
220 -300 m 2
 140 -300 l 2
 134.48046875 -300 130 -295.530273438 130 -290 c 0
 130 -284.469726562 134.48046875 -280 140 -280 c 2
 220 -280 l 2
 225.530273438 -280 230 -284.469726562 230 -290 c 0
 230 -295.530273438 225.530273438 -300 220 -300 c 2
300.009765625 -110 m 0
 296.959960938 -110 293.969726562 -108.620117188 292 -106 c 0
 265.599609375 -70.7900390625 231.389648438 -70.01953125 229.940429688 -70 c 0
 224.440429688 -69.9404296875 220 -65.4404296875 220.030273438 -59.9501953125 c 0
 220.059570312 -54.4404296875 224.5 -50 230 -50 c 0
 231.83984375 -50 275.370117188 -50.5 308 -94 c 0
 311.3203125 -98.419921875 310.419921875 -104.690429688 306 -108 c 0
 304.200195312 -109.349609375 302.099609375 -110 300.009765625 -110 c 0
59.990234375 -110 m 0
 57.91015625 -110 55.7998046875 -109.349609375 54 -108 c 0
 49.580078125 -104.690429688 48.6904296875 -98.419921875 52 -94 c 0
 84.6201171875 -50.5 128.16015625 -50 130 -50 c 0
 135.51953125 -50 140 -54.48046875 140 -60 c 0
 140 -65.509765625 135.549804688 -69.98046875 130.040039062 -70 c 0
 128.490234375 -70.01953125 94.3603515625 -70.8603515625 68 -106 c 0
 66.0400390625 -108.620117188 63.0302734375 -110 59.990234375 -110 c 0
EndSplineSet
Fore
Refer: 44 -1 N 1 0 0 1 0 0 2
Refer: 43 -1 N 1 0 0 1 0 0 2
Refer: 42 -1 N 1 0 0 1 0 0 2
Refer: 41 -1 N 1 0 0 1 0 0 2
EndChar

StartChar: f
Encoding: 102 -1 23
Width: 360
GlyphClass: 5
Flags: W
LayerCount: 2
Back
SplineSet
0 -180 m 0
 0 -279.411132812 80.5888671875 -360 180 -360 c 0
 279.411132812 -360 360 -279.411132812 360 -180 c 0
 360 -80.5888671875 279.411132812 0 180 0 c 0
 80.5888671875 0 0 -80.5888671875 0 -180 c 0
180 -210 m 4
 143.76953125 -210 119.73046875 -205.780273438 90 -200 c 4
 83.2099609375 -198.690429688 70 -200 70 -220 c 4
 70 -260 115.950195312 -310 180 -310 c 4
 244.040039062 -310 290 -260 290 -220 c 4
 290 -200 276.790039062 -198.6796875 270 -200 c 4
 240.26953125 -205.780273438 216.23046875 -210 180 -210 c 4
90 -220 m 5
 90 -220 120 -230 180 -230 c 4
 240 -230 270 -220 270 -220 c 5
 270 -220 250 -260 180 -260 c 4
 110 -260 90 -220 90 -220 c 5
95 -135 m 0
 95 -154.330078125 106.193359375 -170 120 -170 c 0
 133.806640625 -170 145 -154.330078125 145 -135 c 0
 145 -115.669921875 133.806640625 -100 120 -100 c 0
 106.193359375 -100 95 -115.669921875 95 -135 c 0
215 -135 m 0
 215 -154.330078125 226.193359375 -170 240 -170 c 0
 253.806640625 -170 265 -154.330078125 265 -135 c 0
 265 -115.669921875 253.806640625 -100 240 -100 c 0
 226.193359375 -100 215 -115.669921875 215 -135 c 0
EndSplineSet
Fore
Refer: 4 -1 S 0.15625 0 0 0.21875 240 -135 2
Refer: 4 -1 N 0.15625 0 0 0.21875 120 -135 2
Refer: 47 -1 N 0.25 0 0 0.25 180 -310 2
Refer: 36 -1 N 0.25 0 0 0.25 180 -310 2
EndChar

StartChar: g
Encoding: 103 -1 25
Width: 360
GlyphClass: 5
Flags: W
LayerCount: 2
Back
SplineSet
140 -125 m 0
 140 -149.849609375 128.809570312 -180 115 -180 c 0
 101.190429688 -180 90 -149.849609375 90 -125 c 0
 90 -100.150390625 101.190429688 -70 115 -70 c 0
 128.809570312 -70 140 -100.150390625 140 -125 c 0
270 -125 m 4
 270 -149.849609375 258.809570312 -180 245 -180 c 4
 231.190429688 -180 220 -149.849609375 220 -125 c 4
 220 -100.150390625 231.190429688 -70 245 -70 c 4
 258.809570312 -70 270 -100.150390625 270 -125 c 4
360 -180 m 0
 360 -279.41015625 279.41015625 -360 180 -360 c 0
 80.599609375 -360 0 -279.41015625 0 -180 c 0
 0 -80.599609375 80.599609375 0 180 0 c 0
 279.41015625 0 360 -80.599609375 360 -180 c 1024
180 -220 m 0
 143.76953125 -220 119.73046875 -215.780273438 90 -210 c 0
 83.2099609375 -208.690429688 70 -210 70 -230 c 0
 70 -270 115.950195312 -320 180 -320 c 0
 244.040039062 -320 290 -270 290 -230 c 0
 290 -210 276.790039062 -208.6796875 270 -210 c 0
 240.26953125 -215.780273438 216.23046875 -220 180 -220 c 0
90 -230 m 1
 90 -230 120 -240 180 -240 c 0
 240 -240 270 -230 270 -230 c 1
 270 -230 250 -270 180 -270 c 0
 110 -270 90 -230 90 -230 c 1
EndSplineSet
Fore
Refer: 47 -1 S 0.25 0 0 0.25 180 -320 2
Refer: 36 -1 S 0.25 0 0 0.25 180 -320 2
Refer: 49 -1 N 0.25 0 0 0.25 245 -180 2
Refer: 49 -1 N 0.25 0 0 0.25 115 -180 2
EndChar

StartChar: r
Encoding: 114 -1 26
Width: 360
Flags: W
LayerCount: 2
Back
SplineSet
0 -180 m 5
 0 -279.411132812 80.5888671875 -360 180 -360 c 5
 279.411132812 -360 360 -279.411132812 360 -180 c 5
 360 -80.5888671875 279.411132812 0 180 0 c 5
 80.5888671875 0 0 -80.5888671875 0 -180 c 5
273.349609375 -226.290039062 m 5
 271.5703125 -224.6796875 268.91015625 -224.580078125 267 -226 c 5
 266.610351562 -226.290039062 227.780273438 -255 180 -255 c 5
 132.33984375 -255 93.3798828125 -226.290039062 93 -226 c 5
 91.08984375 -224.580078125 88.4296875 -224.700195312 86.650390625 -226.290039062 c 5
 84.8798828125 -227.889648438 84.48046875 -230.530273438 85.7099609375 -232.5703125 c 5
 87 -234.719726562 117.879882812 -285 180 -285 c 5
 242.120117188 -285 273.009765625 -234.719726562 274.290039062 -232.5703125 c 5
 275.51953125 -230.51953125 275.129882812 -227.889648438 273.349609375 -226.290039062 c 5
260 -190 m 5
 255.809570312 -190 251.91015625 -187.349609375 250.51953125 -183.16015625 c 5
 248.490234375 -177.169921875 240.330078125 -160 230 -160 c 5
 219.379882812 -160 211.110351562 -178.26953125 209.48046875 -183.16015625 c 5
 207.73046875 -188.389648438 202.120117188 -191.240234375 196.830078125 -189.48046875 c 5
 191.599609375 -187.740234375 188.759765625 -182.080078125 190.509765625 -176.830078125 c 5
 191.76953125 -173.0703125 203.549804688 -140 230 -140 c 5
 256.450195312 -140 268.23046875 -173.0703125 269.48046875 -176.83984375 c 5
 271.23046875 -182.080078125 268.400390625 -187.75 263.16015625 -189.490234375 c 5
 262.110351562 -189.830078125 261.040039062 -190 260 -190 c 5
160 -190 m 5
 155.809570312 -190 151.91015625 -187.349609375 150.509765625 -183.16015625 c 5
 148.48046875 -177.169921875 140.33984375 -160 130 -160 c 5
 119.379882812 -160 111.120117188 -178.26953125 109.490234375 -183.16015625 c 5
 107.740234375 -188.389648438 102.110351562 -191.240234375 96.83984375 -189.48046875 c 5
 91.599609375 -187.740234375 88.76953125 -182.080078125 90.51953125 -176.830078125 c 5
 91.76953125 -173.0703125 103.549804688 -140 130 -140 c 5
 156.450195312 -140 168.23046875 -173.0703125 169.490234375 -176.83984375 c 5
 171.240234375 -182.080078125 168.41015625 -187.75 163.169921875 -189.490234375 c 5
 162.110351562 -189.830078125 161.040039062 -190 160 -190 c 5
331.75 -83.16015625 m 5
 331.75 -83.16015625 241.330078125 -84.76953125 180 -84.76953125 c 5
 140.950195312 -84.76953125 27.9404296875 -83.58984375 27.9404296875 -83.58984375 c 5
 22.73046875 -92.349609375 l 21
 53.16015625 -110.91015625 113.370117188 -121.51953125 180 -121.51953125 c 5
 245.959960938 -121.51953125 305.759765625 -111.120117188 336.51953125 -92.919921875 c 13
 337.299804688 -92.4501953125 l 5
 337.299804688 -92.4501953125 333.559570312 -85.8095703125 331.75 -83.16015625 c 5
237.76953125 -3.4501953125 m 5
 225.650390625 -2.509765625 213.040039062 -1.8603515625 200.040039062 -1.5498046875 c 5
 193.4296875 -1.3896484375 186.759765625 -1.2900390625 180 -1.2900390625 c 5
 173.280273438 -1.2900390625 166.639648438 -1.3896484375 160.0703125 -1.5400390625 c 5
 147.049804688 -1.849609375 134.4296875 -2.5 122.299804688 -3.4404296875 c 5
 53.400390625 -8.7998046875 1.6904296875 -24.509765625 1.6904296875 -52.8701171875 c 5
 1.6904296875 -88.75 84.330078125 -110.580078125 180 -110.580078125 c 5
 275.669921875 -110.580078125 358.309570312 -88.75 358.309570312 -52.8701171875 c 5
 358.309570312 -24.51953125 306.629882812 -8.8203125 237.76953125 -3.4501953125 c 5
180 -73.830078125 m 5
 111.389648438 -73.830078125 50.900390625 -65.5 50.900390625 -46.4697265625 c 5
 50.900390625 -41.1103515625 55.83984375 -36.240234375 64.2900390625 -31.98046875 c 5
 75.8203125 -26.169921875 94.0703125 -21.5400390625 116.1796875 -18.490234375 c 5
 135.290039062 -15.8701171875 157.16015625 -14.3896484375 180 -14.3896484375 c 5
 202.91015625 -14.3896484375 224.849609375 -15.8701171875 244 -18.51953125 c 5
 266.419921875 -21.6201171875 284.860351562 -26.349609375 296.3203125 -32.2900390625 c 5
 304.389648438 -36.4697265625 309.099609375 -41.23046875 309.099609375 -46.4697265625 c 5
 309.099609375 -65.5 248.610351562 -73.830078125 180 -73.830078125 c 5
244 -18.5302734375 m 21
 266.419921875 -21.6298828125 284.860351562 -26.3603515625 296.3203125 -32.2998046875 c 13
 296.940429688 -32.4697265625 l 5
 274.08984375 -15.73046875 251.240234375 -6.8701171875 237.76953125 -3.4501953125 c 5
 225.650390625 -2.509765625 213.040039062 -1.8603515625 200.040039062 -1.5498046875 c 5
 200.219726562 -1.6201171875 l 5
 244 -18.5302734375 l 21
64.2900390625 -31.990234375 m 5
 75.8203125 -26.1796875 94.0703125 -21.5498046875 116.1796875 -18.5 c 13
 159.83984375 -1.6201171875 l 5
 160.0703125 -1.5400390625 l 5
 147.049804688 -1.849609375 134.4296875 -2.5 122.299804688 -3.4404296875 c 5
 108.830078125 -6.8603515625 85.9697265625 -15.7099609375 63.1103515625 -32.4599609375 c 5
 64.2900390625 -31.990234375 l 5
284.719726562 -33.75 m 5
 278.120117188 -29.3203125 271.259765625 -24.650390625 264.709960938 -21.150390625 c 5
 239.469726562 -7.650390625 210.629882812 0 180 0 c 5
 150.709960938 0 123.049804688 -7 98.599609375 -19.41015625 c 5
 87.7099609375 -24.9404296875 79.7900390625 -29.400390625 76.900390625 -33.75 c 5
 284.719726562 -33.75 l 5
EndSplineSet
Fore
Refer: 71 -1 N 1 0 0 1 0 0 2
Refer: 70 -1 N 1 0 0 1 0 0 2
Refer: 11 -1 N 0.25 0 0 0.25 180 -285 2
Refer: 9 -1 N 0.25 0 0 0.25 130 -150 2
Refer: 9 -1 N 0.25 0 0 0.25 230 -150 2
EndChar

StartChar: v
Encoding: 118 -1 27
Width: 360
Flags: W
LayerCount: 2
Back
SplineSet
360 -180 m 0
 360 -279.41015625 279.41015625 -360 180 -360 c 0
 80.599609375 -360 0 -279.41015625 0 -180 c 0
 0 -80.599609375 80.599609375 0 180 0 c 0
 279.41015625 0 360 -80.599609375 360 -180 c 1024
100 -155 m 0
 100 -174.330078125 111.193359375 -190 125 -190 c 0
 138.806640625 -190 150 -174.330078125 150 -155 c 0
 150 -135.669921875 138.806640625 -120 125 -120 c 0
 111.193359375 -120 100 -135.669921875 100 -155 c 0
210 -155 m 0
 210 -174.330078125 221.193359375 -190 235 -190 c 0
 248.806640625 -190 260 -174.330078125 260 -155 c 0
 260 -135.669921875 248.806640625 -120 235 -120 c 0
 221.193359375 -120 210 -135.669921875 210 -155 c 0
208.709960938 -280 m 1
 222.059570312 -275.879882812 235 -268.440429688 235 -255 c 0
 235 -228.809570312 185.879882812 -225.3203125 180.280273438 -225.009765625 c 0
 177.540039062 -224.740234375 175.190429688 -226.940429688 175.009765625 -229.690429688 c 0
 174.83984375 -232.4296875 176.91015625 -234.799804688 179.650390625 -234.990234375 c 0
 180 -235.009765625 215 -237.98046875 215 -255 c 0
 215 -272.01953125 180 -274.990234375 179.650390625 -275.009765625 c 0
 179.51953125 -275.01953125 179.419921875 -275.08984375 179.290039062 -275.110351562 c 0
 178.759765625 -275.169921875 178.26953125 -275.290039062 177.799804688 -275.51953125 c 2
 177.650390625 -275.610351562 l 2
 177.169921875 -275.879882812 176.740234375 -276.200195312 176.379882812 -276.610351562 c 0
 176.240234375 -276.759765625 176.150390625 -276.919921875 176.030273438 -277.080078125 c 0
 175.799804688 -277.400390625 175.58984375 -277.719726562 175.4296875 -278.110351562 c 0
 175.309570312 -278.400390625 175.25 -278.719726562 175.190429688 -279.030273438 c 0
 175.150390625 -279.259765625 175.030273438 -279.469726562 175.009765625 -279.700195312 c 0
 175.009765625 -279.809570312 175.049804688 -279.91015625 175.049804688 -280.009765625 c 0
 175.049804688 -280.110351562 175 -280.219726562 175.009765625 -280.3203125 c 0
 175.01953125 -280.559570312 175.139648438 -280.76953125 175.190429688 -281 c 0
 175.25 -281.309570312 175.299804688 -281.610351562 175.419921875 -281.900390625 c 0
 175.549804688 -282.200195312 175.73046875 -282.469726562 175.91015625 -282.740234375 c 0
 176.080078125 -282.98046875 176.23046875 -283.240234375 176.4296875 -283.450195312 c 0
 176.66015625 -283.6796875 176.9296875 -283.860351562 177.209960938 -284.059570312 c 0
 177.450195312 -284.23046875 177.669921875 -284.400390625 177.950195312 -284.530273438 c 0
 178.26953125 -284.6796875 178.610351562 -284.740234375 178.959960938 -284.799804688 c 0
 179.200195312 -284.860351562 179.400390625 -284.98046875 179.650390625 -285 c 0
 180 -285.009765625 215 -287.98046875 215 -305 c 0
 215 -322.01953125 180 -324.990234375 179.650390625 -325.009765625 c 0
 176.91015625 -325.209960938 174.83984375 -327.580078125 175.009765625 -330.309570312 c 0
 175.1796875 -332.959960938 177.379882812 -335 180 -335 c 2
 180.280273438 -334.990234375 l 2
 185.879882812 -334.6796875 235 -331.190429688 235 -305 c 0
 235 -291.559570312 222.059570312 -284.120117188 208.709960938 -280 c 1
EndSplineSet
Fore
Refer: 68 -1 N 0.25 0 0 0.25 180 -280 2
Refer: 4 -1 S 0.15625 0 0 0.21875 235 -155 2
Refer: 4 -1 S 0.15625 0 0 0.21875 125 -155 2
EndChar

StartChar: h
Encoding: 104 -1 29
Width: 360
GlyphClass: 5
Flags: W
LayerCount: 2
Back
SplineSet
360 -180 m 0
 360 -279.41015625 279.41015625 -360 180 -360 c 0
 80.599609375 -360 0 -279.41015625 0 -180 c 0
 0 -80.599609375 80.599609375 0 180 0 c 0
 279.41015625 0 360 -80.599609375 360 -180 c 1024
284.5703125 -177.969726562 m 0
 283.969726562 -176.620117188 269.580078125 -145 240 -145 c 0
 210.4296875 -145 196.030273438 -176.620117188 195.4296875 -177.969726562 c 0
 194.509765625 -180.040039062 195.110351562 -182.459960938 196.879882812 -183.879882812 c 0
 198.629882812 -185.299804688 201.139648438 -185.349609375 202.98046875 -184.01953125 c 0
 203.099609375 -183.9296875 215.599609375 -175 240 -175 c 0
 264.259765625 -175 276.740234375 -183.809570312 277.01953125 -184.009765625 c 0
 277.900390625 -184.669921875 278.959960938 -185 280 -185 c 0
 281.099609375 -185 282.209960938 -184.629882812 283.120117188 -183.91015625 c 0
 284.889648438 -182.490234375 285.5 -180.049804688 284.5703125 -177.969726562 c 0
164.5703125 -177.969726562 m 0
 163.969726562 -176.620117188 149.580078125 -145 120 -145 c 0
 90.4296875 -145 76.0302734375 -176.620117188 75.4296875 -177.969726562 c 0
 74.509765625 -180.040039062 75.1103515625 -182.459960938 76.8701171875 -183.879882812 c 0
 78.6298828125 -185.299804688 81.1396484375 -185.349609375 82.9697265625 -184.01953125 c 0
 83.099609375 -183.9296875 95.58984375 -175 120 -175 c 0
 144.259765625 -175 156.740234375 -183.809570312 157.01953125 -184.009765625 c 0
 157.900390625 -184.669921875 158.959960938 -185 160 -185 c 0
 161.099609375 -185 162.209960938 -184.629882812 163.120117188 -183.91015625 c 0
 164.900390625 -182.490234375 165.490234375 -180.049804688 164.5703125 -177.969726562 c 0
180 -220 m 0
 143.76953125 -220 119.73046875 -215.780273438 90 -210 c 0
 83.2099609375 -208.690429688 70 -210 70 -230 c 0
 70 -270 115.950195312 -320 180 -320 c 0
 244.040039062 -320 290 -270 290 -230 c 0
 290 -210 276.790039062 -208.6796875 270 -210 c 0
 240.26953125 -215.780273438 216.23046875 -220 180 -220 c 0
90 -230 m 1
 90 -230 120 -240 180 -240 c 0
 240 -240 270 -230 270 -230 c 1
 270 -230 250 -270 180 -270 c 0
 110 -270 90 -230 90 -230 c 1
EndSplineSet
Fore
Refer: 14 -1 S 0.25 0 0 -0.25 240 -145 2
Refer: 14 -1 S 0.25 0 0 -0.25 120 -145 2
Refer: 47 -1 S 0.25 0 0 0.25 180 -320 2
Refer: 36 -1 S 0.25 0 0 0.25 180 -320 2
EndChar

StartChar: s
Encoding: 115 -1 30
Width: 360
Flags: W
LayerCount: 2
Back
SplineSet
360 -180 m 0
 360 -279.41015625 279.41015625 -360 180 -360 c 0
 80.58984375 -360 0 -279.41015625 0 -180 c 0
 0 -80.58984375 80.58984375 0 180 0 c 0
 279.41015625 0 360 -80.58984375 360 -180 c 1024
180 -218.490234375 m 0
 150.33984375 -218.490234375 130.650390625 -215.030273438 106.309570312 -210.299804688 c 0
 100.740234375 -209.240234375 89.9296875 -210.299804688 89.9296875 -226.6796875 c 0
 89.9296875 -259.4296875 127.559570312 -300.370117188 180 -300.370117188 c 0
 232.440429688 -300.370117188 270.0703125 -259.4296875 270.0703125 -226.6796875 c 0
 270.0703125 -210.299804688 259.25 -209.23046875 253.690429688 -210.299804688 c 0
 229.349609375 -215.030273438 209.669921875 -218.490234375 180 -218.490234375 c 1024
166.5 -32.8095703125 m 4
 157.91015625 -8.5 131.259765625 4.259765625 106.940429688 -4.3095703125 c 0
 92.1796875 -9.509765625 81.73046875 -21.419921875 77.66015625 -35.349609375 c 1
 65.75 -27.0595703125 50.150390625 -24.349609375 35.41015625 -29.5498046875 c 0
 11.1103515625 -38.1298828125 -1.669921875 -64.7998046875 6.919921875 -89.1103515625 c 4
 8.1396484375 -92.5498046875 9.759765625 -95.740234375 11.6396484375 -98.6904296875 c 0
 31.150390625 -134.509765625 87.51953125 -159.690429688 121.650390625 -160 c 0
 148.01953125 -138.330078125 176.110351562 -83.349609375 168.830078125 -43.23046875 c 0
 168.450195312 -39.75 167.700195312 -36.25 166.5 -32.8095703125 c 4
193.5 -32.8095703125 m 0
 202.08984375 -8.5 228.75 4.259765625 253.059570312 -4.3095703125 c 0
 267.8203125 -9.509765625 278.26953125 -21.419921875 282.349609375 -35.349609375 c 1
 294.259765625 -27.0595703125 309.860351562 -24.349609375 324.599609375 -29.5498046875 c 0
 348.900390625 -38.1298828125 361.669921875 -64.7998046875 353.099609375 -89.1103515625 c 0
 351.870117188 -92.5498046875 350.259765625 -95.740234375 348.370117188 -98.6904296875 c 0
 328.860351562 -134.509765625 272.490234375 -159.690429688 238.349609375 -160 c 0
 211.98046875 -138.330078125 183.900390625 -83.349609375 191.1796875 -43.23046875 c 0
 191.549804688 -39.75 192.299804688 -36.25 193.5 -32.8095703125 c 0
EndSplineSet
Fore
Refer: 10 -1 N 0.550269 0.194104 -0.194104 0.550269 121.65 -160 2
Refer: 10 -1 N 0.550269 -0.194104 0.194104 0.550269 238.35 -160 2
Refer: 36 -1 N 0.20475 0 0 0.20475 180 -300.37 2
EndChar

StartChar: w
Encoding: 119 -1 31
Width: 360
Flags: W
LayerCount: 2
Back
SplineSet
360 -180 m 0
 360 -279.41015625 279.41015625 -360 180 -360 c 0
 80.58984375 -360 0 -279.41015625 0 -180 c 0
 0 -80.58984375 80.58984375 0 180 0 c 0
 279.41015625 0 360 -80.58984375 360 -180 c 1024
20 -210 m 0
 20 -237.614257812 42.3857421875 -260 70 -260 c 0
 97.6142578125 -260 120 -237.614257812 120 -210 c 0
 120 -182.385742188 97.6142578125 -160 70 -160 c 0
 42.3857421875 -160 20 -182.385742188 20 -210 c 0
240 -210 m 0
 240 -237.614257812 262.385742188 -260 290 -260 c 0
 317.614257812 -260 340 -237.614257812 340 -210 c 0
 340 -182.385742188 317.614257812 -160 290 -160 c 0
 262.385742188 -160 240 -182.385742188 240 -210 c 0
284.16015625 -177.23046875 m 0
 283.549804688 -176.3203125 269.009765625 -155 240 -155 c 0
 211 -155 196.450195312 -176.3203125 195.83984375 -177.23046875 c 0
 194.490234375 -179.25 194.799804688 -181.9296875 196.549804688 -183.610351562 c 0
 198.290039062 -185.280273438 201.009765625 -185.459960938 202.98046875 -184.030273438 c 0
 203.099609375 -183.9296875 215.599609375 -175 240 -175 c 0
 264.259765625 -175 276.740234375 -183.809570312 277.01953125 -184.009765625 c 0
 277.91015625 -184.669921875 278.959960938 -185 280 -185 c 0
 281.240234375 -185 282.48046875 -184.540039062 283.440429688 -183.629882812 c 0
 285.209960938 -181.959960938 285.509765625 -179.25 284.16015625 -177.23046875 c 0
120 -155 m 0
 91 -155 76.4501953125 -176.3203125 75.83984375 -177.23046875 c 0
 74.5 -179.25 74.7998046875 -181.9296875 76.5498046875 -183.610351562 c 0
 78.2998046875 -185.280273438 81.01953125 -185.459960938 82.9697265625 -184.030273438 c 0
 83.099609375 -183.9296875 95.58984375 -175 120 -175 c 0
 144.259765625 -175 156.740234375 -183.809570312 157.01953125 -184.009765625 c 0
 157.91015625 -184.669921875 158.959960938 -185 160 -185 c 0
 161.240234375 -185 162.48046875 -184.540039062 163.440429688 -183.629882812 c 0
 165.209960938 -181.959960938 165.51953125 -179.25 164.16015625 -177.219726562 c 0
 163.549804688 -176.3203125 149.009765625 -155 120 -155 c 0
218.709960938 -270 m 1
 232.059570312 -265.879882812 245 -258.440429688 245 -245 c 0
 245 -218.809570312 195.879882812 -215.3203125 190.26953125 -215.009765625 c 0
 187.5 -214.650390625 185.169921875 -216.950195312 185.009765625 -219.690429688 c 0
 184.83984375 -222.4296875 186.91015625 -224.799804688 189.650390625 -224.990234375 c 0
 190 -225.009765625 225 -227.98046875 225 -245 c 0
 225 -262.01953125 190 -264.990234375 189.650390625 -265.009765625 c 0
 189.549804688 -265.01953125 189.48046875 -265.0703125 189.389648438 -265.080078125 c 0
 188.150390625 -265.16015625 187.08984375 -265.73046875 186.290039062 -266.669921875 c 2
 186.139648438 -266.879882812 l 2
 185.849609375 -267.26953125 185.58984375 -267.66015625 185.41015625 -268.129882812 c 0
 185.299804688 -268.400390625 185.25 -268.700195312 185.200195312 -268.990234375 c 0
 185.150390625 -269.23046875 185.030273438 -269.450195312 185.009765625 -269.690429688 c 0
 185 -269.790039062 185.049804688 -269.889648438 185.049804688 -270 c 0
 185.049804688 -270.110351562 185 -270.209960938 185.009765625 -270.309570312 c 0
 185.030273438 -270.559570312 185.139648438 -270.76953125 185.200195312 -271.009765625 c 0
 185.259765625 -271.299804688 185.309570312 -271.599609375 185.419921875 -271.879882812 c 0
 185.549804688 -272.200195312 185.740234375 -272.48046875 185.9296875 -272.759765625 c 0
 186.099609375 -272.990234375 186.23046875 -273.23046875 186.4296875 -273.4296875 c 0
 186.66015625 -273.669921875 186.950195312 -273.860351562 187.240234375 -274.049804688 c 0
 187.48046875 -274.219726562 187.690429688 -274.379882812 187.950195312 -274.509765625 c 0
 188.259765625 -274.66015625 188.599609375 -274.719726562 188.959960938 -274.780273438 c 0
 189.190429688 -274.83984375 189.400390625 -274.959960938 189.650390625 -274.98046875 c 0
 190 -275.009765625 225 -277.98046875 225 -295 c 0
 225 -312.01953125 190 -314.990234375 189.650390625 -315.009765625 c 0
 186.919921875 -315.209960938 184.83984375 -317.580078125 185.009765625 -320.309570312 c 0
 185.1796875 -322.959960938 187.370117188 -325 190 -325 c 2
 190.26953125 -324.990234375 l 2
 195.879882812 -324.6796875 245 -321.190429688 245 -295 c 0
 245 -281.559570312 232.059570312 -274.120117188 218.709960938 -270 c 1
310.009765625 -160 m 0
 306.959960938 -160 303.969726562 -158.620117188 302 -156 c 0
 275.58984375 -120.790039062 241.389648438 -120.009765625 239.940429688 -120 c 0
 234.440429688 -119.940429688 230 -115.440429688 230.030273438 -109.950195312 c 0
 230.059570312 -104.440429688 234.5 -100 240 -100 c 0
 241.83984375 -100 285.370117188 -100.5 318 -144 c 0
 321.3203125 -148.419921875 320.419921875 -154.690429688 316 -158 c 0
 314.200195312 -159.349609375 312.099609375 -160 310.009765625 -160 c 0
49.990234375 -160 m 0
 47.91015625 -160 45.7998046875 -159.349609375 44 -158 c 0
 39.580078125 -154.690429688 38.6904296875 -148.419921875 42 -144 c 0
 74.6201171875 -100.5 118.16015625 -100 120 -100 c 0
 125.51953125 -100 130 -104.48046875 130 -110 c 0
 130 -115.509765625 125.549804688 -119.98046875 120.040039062 -120 c 0
 118.48046875 -120.01953125 84.349609375 -120.860351562 57.990234375 -156 c 0
 56.0400390625 -158.620117188 53.0302734375 -160 49.990234375 -160 c 0
EndSplineSet
Fore
Refer: 67 -1 N -0.25 0 0 -0.25 240 -155 2
Refer: 67 -1 N -0.25 0 0 -0.25 120 -155 2
Refer: 68 -1 N 0.25 0 0 0.25 190 -270 2
Refer: 12 -1 N -0.25 0 0 0.25 240 -110 2
Refer: 12 -1 N 0.25 0 0 0.25 120 -110 2
Refer: 4 -1 N 0.3125 0 0 0.3125 70 -210 2
Refer: 4 -1 S 0.3125 0 0 0.3125 290 -210 2
EndChar

StartChar: mouth.zigzag
Encoding: 81 -1 34
Width: 360
GlyphClass: 5
Flags: W
LayerCount: 2
Back
SplineSet
-348.278725 51.721275 m 2
 -308.278725 11.721275 l 2
 -307.606520591 11.0490705906 -306.905731515 10.3959499217 -306.1764727 9.76353787693 c 0
 -289.500092911 -4.69819125071 -264.210696171 -2.88956632092 -249.737634665 13.7998812711 c 0
 -249.104727055 14.5297115415 -248.502917303 15.2759903328 -247.932090482 16.0370927613 c 2
 -127.980982496 176.033596145 l 1
 -191.249670137 175.040507495 l 1
 -31.2496701372 -24.959492505 l 2
 -19.1675952965 -40.0620860558 2.45964736581 -44.572721906 19.7911423524 -34.6978996129 c 0
 24.3171003011 -32.1191820537 28.1484978479 -28.7882806549 31.2177790428 -24.9516791613 c 2
 191.249670137 175.040507495 l 1
 127.980982496 176.033596145 l 1
 247.980982496 16.033596145 l 2
 248.551809318 15.2724937165 249.15361907 14.5262149252 249.78652668 13.7963846548 c 0
 264.259588185 -2.89306293721 289.548984926 -4.701687867 306.225364715 9.76004126064 c 0
 306.954623529 10.3924533055 307.655412605 11.0455739743 308.327617015 11.7177783837 c 2
 348.278725 51.721275 l 2
 355.506639909 58.9713705488 359.986611262 68.9694096542 359.986611262 80.0055451599 c 0
 359.986611262 102.077816171 342.066725852 119.997701582 319.99445484 119.997701582 c 0
 308.958319334 119.997701582 298.960280229 115.517730229 291.721275 108.278725 c 2
 251.721275 68.278725 l 1
 312.019017504 63.966403855 l 1
 192.075397221 223.965518898 l 2
 191.06871579 225.307760806 189.966415075 226.60155439 188.768351462 227.837679508 c 0
 173.394617413 243.69982456 148.036592917 244.097853464 132.176355533 228.725968344 c 0
 130.940379078 227.528048816 129.79832265 226.269483489 128.750329863 224.959492505 c 2
 -31.2496701372 24.959492505 l 1
 31.2496701372 24.959492505 l 1
 -128.693950145 224.960377462 l 2
 -129.741942933 226.270368446 -130.88399936 227.528933773 -132.119975815 228.726853301 c 0
 -147.980213199 244.09873842 -173.338237695 243.700709517 -188.711971745 227.838564465 c 0
 -189.910035358 226.602439347 -191.012336073 225.308645763 -192.019017504 223.966403855 c 2
 -312.019017504 63.966403855 l 1
 -251.721275 68.278725 l 1
 -291.721275 108.278725 l 2
 -298.960280229 115.517730229 -308.958319334 119.997701582 -319.99445484 119.997701582 c 0
 -342.066725852 119.997701582 -359.986611262 102.077816171 -359.986611262 80.0055451599 c 0
 -359.986611262 68.9694096542 -355.506639909 58.9713705488 -348.278725 51.721275 c 2
-320 80 m 5
 -280 40 l 5
 -160 200 l 5
 0 0 l 5
 160 200 l 5
 280 40 l 5
 320 80 l 1029
EndSplineSet
Fore
SplineSet
-320 80 m 1049,0,-1
320 80 m 1049,1,-1
0 -40 m 129,-1,3
 -19 -40 -19 -40 -31 -25 c 9,4,-1
 -159 135 l 1,5,-1
 -248 16 l 17,6,7
 -261 0 -261 0 -280 0 c 1,8,9
 -296 0 -296 0 -308 12 c 9,10,-1
 -348 52 l 17,11,12
 -360 64 -360 64 -360 80 c 129,-1,13
 -360 96 -360 96 -348 108 c 129,-1,14
 -336 120 -336 120 -320 120 c 129,-1,15
 -304 120 -304 120 -292 108 c 9,16,-1
 -284 101 l 1,17,-1
 -192 224 l 17,18,19
 -179 240 -179 240 -160 240 c 129,-1,20
 -141 240 -141 240 -129 225 c 9,21,-1
 0 64 l 1,22,-1
 129 225 l 17,23,24
 141 240 141 240 160 240 c 129,-1,25
 179 240 179 240 192 224 c 9,26,-1
 284 101 l 1,27,-1
 292 108 l 17,28,29
 304 120 304 120 320 120 c 129,-1,30
 336 120 336 120 348 108 c 129,-1,31
 360 96 360 96 360 80 c 129,-1,32
 360 64 360 64 348 52 c 9,33,-1
 308 12 l 17,34,35
 296 0 296 0 280 0 c 1,36,37
 261 0 261 0 248 16 c 9,38,-1
 159 135 l 1,39,-1
 31 -25 l 17,40,2
 19 -40 19 -40 0 -40 c 129,-1,3
EndSplineSet
EndChar

StartChar: eye.squinting
Encoding: 82 -1 35
Width: 360
GlyphClass: 5
Flags: W
LayerCount: 2
Back
SplineSet
0 -40 m 1
 0 -40 -0.142142357583 -39.9994401267 -0.0202754802607 -40.000146083 c 0
 0.487893835487 -40.0030898305 5.45346101828 -40.0444035856 13.8628268057 -40.5359877119 c 0
 21.431005414 -40.9783987763 31.7885007887 -41.7857025309 44.1903163291 -43.250483894 c 0
 66.5134917457 -45.8870794156 95.4587053673 -50.668098647 126.638548681 -59.1716922781 c 0
 157.824858745 -67.6770495682 191.185641173 -79.9120912828 222.466882361 -97.0947448935 c 0
 247.503128225 -110.847048959 271.154077716 -127.711527716 291.721275 -148.278725 c 1
 320 -80 l 1
 277.270866135 -80 236.573954782 -85.0531764312 198.767941194 -93.0650468605 c 0
 151.507942125 -103.080410901 108.740980325 -117.720225989 72.0772916377 -133.157568594 c 0
 35.4117657449 -148.595684759 4.83649549879 -164.84460236 -17.9939108344 -178.232065759 c 0
 -46.5307128934 -194.965687909 -62.9736340864 -207.236405229 -63.9664026211 -207.980981571 c 2
 -63.9664026211 -207.980981571 -63.9604785066 -207.988896164 -64.027662504 -208.026926479 c 0
 -73.6914954624 -215.287158298 -79.9920942601 -226.915572222 -79.9920942601 -240.003957297 c 0
 -79.9920942601 -262.077828804 -62.0709094502 -279.999013614 -39.9970379428 -279.999013614 c 0
 -31.0115515104 -279.999013614 -22.7141710576 -277.029448288 -16.0335973789 -272.019018429 c 0
 -16.0335973789 -272.019018429 -16.1450503465 -272.101919297 -16.0464864082 -272.028882914 c 0
 -15.6274769848 -271.718394784 -11.5989331081 -268.748933743 -4.40416414683 -263.97087937 c 0
 2.07103960832 -259.67068908 11.1108000999 -253.905681429 22.3870984131 -247.29340179 c 0
 42.6847156987 -235.391134063 70.2306668111 -220.7504515 103.066741284 -206.924735933 c 0
 129.33560874 -195.864160162 158.984022517 -185.328229542 190.984619617 -177.070010935 c 0
 230.992354237 -166.745434259 274.64523822 -160 320 -160 c 1
 319 -160 321.004658137 -159.98875297 320.004658137 -159.98875297 c 1
 325.101135842 -159.98875297 330.280925827 -159.008386505 335.279174665 -156.937945533 c 0
 355.672666501 -148.490282673 365.370838602 -125.074134108 356.92277376 -104.679671846 c 0
 354.852234265 -99.681185166 351.882600203 -95.3251502027 348.278725 -91.721275 c 0
 321.438514876 -64.8810648763 291.43910619 -43.7025623803 260.89815722 -26.9265481569 c 0
 222.707904865 -5.94880390591 183.586511473 8.23489136059 147.709873815 18.0194289036 c 0
 111.826769408 27.8057301056 79.1282634068 33.1857635593 53.6568576752 36.1941973071 c 0
 21.821469494 39.9542825254 1.26034194632 39.9999999996 2.55784585053e-23 40 c 0
 -22.0766 40 -40 22.0766 -40 0 c 0
 -40 -22.0766 -22.0766 -40 -2.40000000168e-08 -40 c 0
 0 -40 0 -40 0 -40 c 1
0 0 m 0
 0 0 200 0 320 -120 c 1
 120 -120 -40 -240 -40 -240 c 1024
EndSplineSet
Fore
SplineSet
-16 -272 m 1,0,1
 -27 -280 -27 -280 -40 -280 c 257,2,3
 -56 -280 -56 -280 -68 -268.5 c 129,-1,4
 -80 -257 -80 -257 -80 -240 c 257,5,6
 -80 -221 -80 -221 -64 -208 c 1,7,8
 1 -163 1 -163 71 -133.5 c 129,-1,9
 141 -104 141 -104 210 -91 c 1,10,11
 157 -64 157 -64 96.5 -52 c 129,-1,12
 36 -40 36 -40 0 -40 c 1,13,14
 -17 -40 -17 -40 -28.5 -28 c 129,-1,15
 -40 -16 -40 -16 -40 0 c 129,-1,16
 -40 16 -40 16 -28.5 28 c 129,-1,17
 -17 40 -17 40 0 40 c 1,18,19
 50 40 50 40 119 25 c 129,-1,20
 188 10 188 10 246.5 -19.5 c 129,-1,21
 305 -49 305 -49 348 -91 c 257,22,23
 360 -103 360 -103 360 -119.5 c 129,-1,24
 360 -136 360 -136 348.5 -148 c 129,-1,25
 337 -160 337 -160 320 -160 c 1,26,27
 230 -160 230 -160 139.5 -193 c 129,-1,28
 49 -226 49 -226 -16 -272 c 1,0,1
EndSplineSet
EndChar

StartChar: mouth.grinning
Encoding: 83 -1 36
Width: 360
GlyphClass: 5
Flags: W
LayerCount: 2
Back
SplineSet
0 400 m 0
 144.921875 400 241.078125 416.87890625 360 440 c 0
 387.16015625 445.23828125 440 440 440 360 c 0
 440 200 256.16015625 0 0 0 c 0
 -256.16015625 0 -440 200 -440 360 c 0
 -440 440 -387.16015625 445.23828125 -360 440 c 0
 -241.078125 416.87890625 -144.921875 400 0 400 c 0
EndSplineSet
Fore
SplineSet
0 400 m 257,0,1
 104 400 104 400 190.5 411.5 c 129,-1,2
 277 423 277 423 360 440 c 257,3,4
 397 446 397 446 418.5 425.5 c 129,-1,5
 440 405 440 405 440 360 c 1,6,7
 440 277 440 277 379.5 191 c 129,-1,8
 319 105 319 105 217.5 52.5 c 129,-1,9
 116 0 116 0 0 0 c 257,10,11
 -116 0 -116 0 -217.5 52.5 c 129,-1,12
 -319 105 -319 105 -379.5 191 c 129,-1,13
 -440 277 -440 277 -440 360 c 1,14,15
 -440 405 -440 405 -418.5 425.5 c 129,-1,16
 -397 446 -397 446 -360 440 c 257,17,18
 -277 423 -277 423 -190.5 411.5 c 129,-1,19
 -104 400 -104 400 0 400 c 257,0,1
EndSplineSet
EndChar

StartChar: teeth.grinning
Encoding: 84 -1 47
Width: 360
GlyphClass: 5
Flags: W
LayerCount: 2
Back
SplineSet
-360 360 m 1
 -360 360 -240 320 0 320 c 0
 240 320 360 360 360 360 c 1
 360 360 280 200 0 200 c 0
 -280 200 -360 360 -360 360 c 1
EndSplineSet
Fore
SplineSet
0 320 m 129,-1,1
 -110 320 -110 320 -205 331 c 129,-1,2
 -300 342 -300 342 -360 360 c 1,3,4
 -319 290 -319 290 -225 245 c 129,-1,5
 -131 200 -131 200 0 200 c 129,-1,6
 131 200 131 200 225 245 c 129,-1,7
 319 290 319 290 360 360 c 1,8,9
 300 342 300 342 205 331 c 129,-1,0
 110 320 110 320 0 320 c 129,-1,1
EndSplineSet
EndChar

StartChar: waterdrop
Encoding: 85 -1 48
Width: 360
GlyphClass: 5
Flags: W
LayerCount: 2
Back
SplineSet
200 -400 m 4
 200 -510.3828125 110.3828125 -600 0 -600 c 4
 -110.3828125 -600 -200 -510.3828125 -200 -400 c 4
 -200 -289.51953125 -40 0 0 0 c 4
 40 0 200 -289.51953125 200 -400 c 4
EndSplineSet
Fore
SplineSet
0 -600 m 129,-1,1
 -83 -600 -83 -600 -141.5 -540 c 129,-1,2
 -200 -480 -200 -480 -200 -400 c 129,-1,3
 -200 -320 -200 -320 -115 -160 c 129,-1,4
 -30 0 -30 0 0 0 c 129,-1,5
 30 0 30 0 115 -160 c 129,-1,6
 200 -320 200 -320 200 -400 c 129,-1,7
 200 -480 200 -480 141.5 -540 c 129,-1,0
 83 -600 83 -600 0 -600 c 129,-1,1
EndSplineSet
EndChar

StartChar: eye.tall
Encoding: 86 -1 49
Width: 360
GlyphClass: 5
Flags: W
LayerCount: 2
Back
SplineSet
100 220 m 4
 100 120.6015625 55.23828125 0 0 0 c 4
 -55.23828125 0 -100 120.6015625 -100 220 c 4
 -100 319.3984375 -55.23828125 440 0 440 c 4
 55.23828125 440 100 319.3984375 100 220 c 4
EndSplineSet
Fore
SplineSet
-100 220 m 128,-1,1
 -100 299 -100 299 -69.5 369.5 c 128,-1,2
 -39 440 -39 440 0 440 c 128,-1,3
 39 440 39 440 69.5 369.5 c 128,-1,4
 100 299 100 299 100 220 c 128,-1,5
 100 141 100 141 69.5 70.5 c 128,-1,6
 39 0 39 0 0 0 c 128,-1,7
 -39 0 -39 0 -69.5 70.5 c 128,-1,0
 -100 141 -100 141 -100 220 c 128,-1,1
EndSplineSet
EndChar

StartChar: i
Encoding: 105 -1 50
Width: 360
GlyphClass: 5
Flags: W
LayerCount: 2
Back
SplineSet
360 -180 m 0
 360 -279.41015625 279.41015625 -360 180 -360 c 0
 80.599609375 -360 0 -279.41015625 0 -180 c 0
 0 -80.599609375 80.599609375 0 180 0 c 0
 279.41015625 0 360 -80.599609375 360 -180 c 1024
160 -180 m 0
 155.809570312 -180 151.91015625 -177.349609375 150.509765625 -173.16015625 c 0
 148.48046875 -167.169921875 140.33984375 -150 130 -150 c 0
 119.379882812 -150 111.120117188 -168.26953125 109.490234375 -173.16015625 c 0
 107.740234375 -178.389648438 102.110351562 -181.240234375 96.83984375 -179.48046875 c 0
 91.599609375 -177.740234375 88.76953125 -172.0703125 90.51953125 -166.830078125 c 0
 91.76953125 -163.0703125 103.559570312 -130 130 -130 c 0
 156.440429688 -130 168.23046875 -163.0703125 169.490234375 -166.83984375 c 0
 171.240234375 -172.080078125 168.41015625 -177.75 163.169921875 -179.490234375 c 0
 162.110351562 -179.830078125 161.040039062 -180 160 -180 c 0
260 -180 m 0
 255.809570312 -180 251.91015625 -177.349609375 250.51953125 -173.16015625 c 0
 248.490234375 -167.169921875 240.330078125 -150 230 -150 c 0
 219.379882812 -150 211.110351562 -168.26953125 209.48046875 -173.16015625 c 0
 207.73046875 -178.389648438 202.120117188 -181.240234375 196.830078125 -179.48046875 c 0
 191.599609375 -177.740234375 188.759765625 -172.0703125 190.509765625 -166.830078125 c 0
 191.76953125 -163.0703125 203.549804688 -130 230 -130 c 0
 256.450195312 -130 268.23046875 -163.0703125 269.48046875 -166.83984375 c 0
 271.23046875 -172.080078125 268.400390625 -177.75 263.16015625 -179.490234375 c 0
 262.110351562 -179.830078125 261.040039062 -180 260 -180 c 0
180 -220 m 0
 143.76953125 -220 119.73046875 -215.780273438 90 -210 c 0
 83.2099609375 -208.690429688 70 -210 70 -230 c 0
 70 -270 115.950195312 -320 180 -320 c 0
 244.040039062 -320 290 -270 290 -230 c 0
 290 -210 276.790039062 -208.6796875 270 -210 c 0
 240.26953125 -215.780273438 216.23046875 -220 180 -220 c 0
90 -230 m 1
 90 -230 120 -240 180 -240 c 0
 240 -240 270 -230 270 -230 c 1
 270 -230 256.559570312 -297.5 180 -297.5 c 0
 103.440429688 -297.5 90 -230 90 -230 c 1
180 -275.940429688 m 0
 144.040039062 -275.940429688 117.280273438 -272.219726562 100.629882812 -268.490234375 c 2
 92.3798828125 -249.780273438 l 1
 100.610351562 -252.900390625 131.26953125 -258.75 180.009765625 -258.75 c 0
 229.549804688 -258.75 260.379882812 -252.58984375 268.650390625 -249.370117188 c 1
 261.639648438 -267.790039062 l 2
 245.299804688 -271.58984375 217.450195312 -275.940429688 180 -275.940429688 c 0
EndSplineSet
Fore
Refer: 9 -1 N 0.25 0 0 0.25 230 -140 2
Refer: 9 -1 N 0.25 0 0 0.25 130 -140 2
Refer: 36 -1 N 0.25 0 0 0.25 180 -320 2
EndChar

StartChar: j
Encoding: 106 -1 51
Width: 360
GlyphClass: 5
Flags: W
LayerCount: 2
Back
SplineSet
360 -180 m 0
 360 -279.41015625 279.41015625 -360 180 -360 c 0
 80.599609375 -360 0 -279.41015625 0 -180 c 0
 0 -80.599609375 80.599609375 0 180 0 c 0
 279.41015625 0 360 -80.599609375 360 -180 c 1024
180 -220 m 0
 143.76953125 -220 119.73046875 -215.780273438 90 -210 c 0
 83.2099609375 -208.690429688 70 -210 70 -230 c 0
 70 -270 115.950195312 -320 180 -320 c 0
 244.040039062 -320 290 -270 290 -230 c 0
 290 -210 276.790039062 -208.6796875 270 -210 c 0
 240.26953125 -215.780273438 216.23046875 -220 180 -220 c 0
90 -230 m 1
 90 -230 120 -240 180 -240 c 0
 240 -240 270 -230 270 -230 c 1
 270 -230 250 -270 180 -270 c 0
 110 -270 90 -230 90 -230 c 1
60.009765625 -200 m 0
 56.9697265625 -200 53.9697265625 -198.620117188 52 -196 c 0
 48.6796875 -191.58984375 49.580078125 -185.3203125 54 -182.009765625 c 0
 55.4296875 -180.940429688 83.509765625 -160.1796875 122.559570312 -152.6796875 c 1
 97.8095703125 -140.26953125 70.33984375 -140 69.990234375 -140 c 0
 64.4697265625 -139.98046875 60 -135.5 60.009765625 -129.98046875 c 0
 60.009765625 -124.469726562 64.48046875 -120 70 -120 c 0
 72.2099609375 -120 124.51953125 -120.379882812 157.0703125 -152.9296875 c 0
 159.9296875 -155.790039062 160.790039062 -160.08984375 159.240234375 -163.830078125 c 0
 157.690429688 -167.5703125 154.040039062 -170 150 -170 c 0
 103.870117188 -170 66.3701171875 -197.719726562 66 -198 c 0
 64.2001953125 -199.349609375 62.08984375 -200 60.009765625 -200 c 0
299.990234375 -199.990234375 m 0
 297.91015625 -199.990234375 295.809570312 -199.349609375 294.009765625 -198.009765625 c 0
 293.629882812 -197.719726562 255.900390625 -170 210 -170 c 0
 205.959960938 -170 202.299804688 -167.5703125 200.759765625 -163.830078125 c 0
 199.209960938 -160.08984375 200.0703125 -155.790039062 202.9296875 -152.9296875 c 0
 235.490234375 -120.379882812 287.790039062 -120 290 -120 c 0
 295.51953125 -120 299.98046875 -124.469726562 299.990234375 -129.98046875 c 0
 300 -135.5 295.530273438 -139.98046875 290.01953125 -140 c 0
 289.66015625 -140 262.190429688 -140.26953125 237.440429688 -152.6796875 c 1
 276.490234375 -160.1796875 304.5703125 -180.9296875 305.990234375 -182.009765625 c 0
 310.400390625 -185.3203125 311.299804688 -191.5703125 308 -195.990234375 c 0
 306.040039062 -198.599609375 303.040039062 -199.990234375 299.990234375 -199.990234375 c 0
EndSplineSet
Fore
Refer: 35 -1 S -0.25 0 0 0.25 290 -130 2
Refer: 35 -1 S 0.25 0 0 0.25 70 -130 2
Refer: 47 -1 N 0.25 0 0 0.25 180 -320 2
Refer: 36 -1 N 0.25 0 0 0.25 180 -320 2
EndChar

StartChar: k
Encoding: 107 -1 52
Width: 360
GlyphClass: 5
Flags: W
LayerCount: 2
Back
SplineSet
360 -180 m 0
 360 -279.41015625 279.41015625 -360 180 -360 c 0
 80.599609375 -360 0 -279.41015625 0 -180 c 0
 0 -80.599609375 80.599609375 0 180 0 c 0
 279.41015625 0 360 -80.599609375 360 -180 c 1024
284.5703125 -177.969726562 m 0
 283.969726562 -176.620117188 269.580078125 -145 240 -145 c 0
 210.4296875 -145 196.030273438 -176.620117188 195.4296875 -177.969726562 c 0
 194.509765625 -180.040039062 195.110351562 -182.459960938 196.879882812 -183.879882812 c 0
 198.629882812 -185.299804688 201.139648438 -185.349609375 202.98046875 -184.01953125 c 0
 203.099609375 -183.9296875 215.599609375 -175 240 -175 c 0
 264.259765625 -175 276.740234375 -183.809570312 277.01953125 -184.009765625 c 0
 277.900390625 -184.669921875 278.959960938 -185 280 -185 c 0
 281.099609375 -185 282.209960938 -184.629882812 283.120117188 -183.91015625 c 0
 284.889648438 -182.490234375 285.5 -180.049804688 284.5703125 -177.969726562 c 0
164.5703125 -177.969726562 m 0
 163.969726562 -176.620117188 149.580078125 -145 120 -145 c 0
 90.4296875 -145 76.0302734375 -176.620117188 75.4296875 -177.969726562 c 0
 74.509765625 -180.040039062 75.1103515625 -182.459960938 76.8701171875 -183.879882812 c 0
 78.6298828125 -185.299804688 81.1396484375 -185.349609375 82.9697265625 -184.01953125 c 0
 83.099609375 -183.9296875 95.58984375 -175 120 -175 c 0
 144.259765625 -175 156.740234375 -183.809570312 157.01953125 -184.009765625 c 0
 157.900390625 -184.669921875 158.959960938 -185 160 -185 c 0
 161.099609375 -185 162.209960938 -184.629882812 163.120117188 -183.91015625 c 0
 164.900390625 -182.490234375 165.490234375 -180.049804688 164.5703125 -177.969726562 c 0
180 -220 m 0
 143.76953125 -220 119.73046875 -215.780273438 90 -210 c 0
 83.2099609375 -208.690429688 70 -210 70 -230 c 0
 70 -270 115.950195312 -320 180 -320 c 0
 244.040039062 -320 290 -270 290 -230 c 0
 290 -210 276.790039062 -208.6796875 270 -210 c 0
 240.26953125 -215.780273438 216.23046875 -220 180 -220 c 0
90 -230 m 1
 90 -230 120 -240 180 -240 c 0
 240 -240 270 -230 270 -230 c 1
 270 -230 250 -270 180 -270 c 0
 110 -270 90 -230 90 -230 c 1
350 -110 m 0
 350 -137.620117188 327.620117188 -160 300 -160 c 0
 272.379882812 -160 250 -137.620117188 250 -110 c 0
 250 -82.3798828125 290 -10 300 -10 c 0
 310 -10 350 -82.3798828125 350 -110 c 0
EndSplineSet
Fore
Refer: 48 -1 N 0.25 0 0 0.25 300 -10 2
EndChar

StartChar: l
Encoding: 108 -1 53
Width: 360
GlyphClass: 5
Flags: W
LayerCount: 2
Back
SplineSet
307.280273438 -52.7197265625 m 0
 377.5703125 -123.009765625 377.5703125 -236.990234375 307.280273438 -307.280273438 c 0
 236.990234375 -377.5703125 123.01953125 -377.5703125 52.7197265625 -307.280273438 c 0
 -17.5703125 -236.990234375 -17.5703125 -123.009765625 52.7197265625 -52.7197265625 c 0
 123.009765625 17.5703125 236.98046875 17.5703125 307.280273438 -52.7197265625 c 1024
192.790039062 -192.799804688 m 0
 157.849609375 -227.740234375 130.599609375 -246.83984375 96.33984375 -269.940429688 c 0
 88.5302734375 -275.23046875 77.0595703125 -289.23046875 96.349609375 -308.530273438 c 0
 134.919921875 -347.099609375 227.459960938 -351 289.219726562 -289.240234375 c 0
 350.990234375 -227.469726562 347.099609375 -134.940429688 308.509765625 -96.3603515625 c 0
 289.219726562 -77.0595703125 275.209960938 -88.5400390625 269.9296875 -96.3603515625 c 0
 246.849609375 -130.58984375 227.740234375 -157.849609375 192.790039062 -192.799804688 c 0
115.639648438 -289.23046875 m 2
 115.639648438 -289.23046875 154.219726562 -269.940429688 212.080078125 -212.0703125 c 0
 269.950195312 -154.209960938 289.23046875 -115.639648438 289.23046875 -115.639648438 c 1
 289.23046875 -115.639648438 308.509765625 -173.509765625 241.009765625 -241.009765625 c 0
 173.509765625 -308.51953125 115.639648438 -289.23046875 115.639648438 -289.23046875 c 2
82.650390625 -252.33984375 m 0
 80.5 -254.490234375 77.400390625 -255.639648438 74.16015625 -255.169921875 c 0
 68.6904296875 -254.389648438 64.8896484375 -249.330078125 65.6796875 -243.860351562 c 0
 65.9296875 -242.099609375 71.1103515625 -207.559570312 93.419921875 -174.639648438 c 1
 67.150390625 -183.370117188 47.5302734375 -202.599609375 47.2802734375 -202.849609375 c 0
 43.3701171875 -206.740234375 37.0400390625 -206.73046875 33.1396484375 -202.8203125 c 0
 29.240234375 -198.919921875 29.240234375 -192.599609375 33.1396484375 -188.700195312 c 0
 34.7001953125 -187.139648438 71.9599609375 -150.419921875 117.990234375 -150.419921875 c 0
 122.040039062 -150.419921875 125.6796875 -152.849609375 127.23046875 -156.58984375 c 0
 128.780273438 -160.330078125 127.919921875 -164.629882812 125.059570312 -167.490234375 c 0
 92.4404296875 -200.110351562 85.5302734375 -246.23046875 85.4599609375 -246.6796875 c 0
 85.150390625 -248.919921875 84.1201171875 -250.870117188 82.650390625 -252.33984375 c 0
252.330078125 -82.6396484375 m 0
 250.860351562 -84.1103515625 248.919921875 -85.1396484375 246.700195312 -85.4599609375 c 0
 246.23046875 -85.5302734375 199.940429688 -92.6103515625 167.490234375 -125.059570312 c 0
 164.629882812 -127.919921875 160.330078125 -128.780273438 156.58984375 -127.23046875 c 0
 152.849609375 -125.6796875 150.419921875 -122.040039062 150.419921875 -117.990234375 c 0
 150.419921875 -71.9501953125 187.139648438 -34.7001953125 188.700195312 -33.1396484375 c 0
 192.599609375 -29.240234375 198.919921875 -29.240234375 202.8203125 -33.1396484375 c 0
 206.73046875 -37.0302734375 206.740234375 -43.3701171875 202.849609375 -47.26953125 c 0
 202.58984375 -47.5302734375 183.360351562 -67.1396484375 174.629882812 -93.41015625 c 1
 207.549804688 -71.099609375 242.080078125 -65.919921875 243.83984375 -65.669921875 c 0
 249.299804688 -64.8896484375 254.360351562 -68.669921875 255.150390625 -74.1396484375 c 0
 255.639648438 -77.3798828125 254.490234375 -80.490234375 252.330078125 -82.6396484375 c 0
301.009765625 -120.549804688 m 0
 328.419921875 -123.889648438 353.349609375 -104.370117188 356.6796875 -76.9501953125 c 0
 360.01953125 -49.5400390625 340.509765625 -24.6103515625 313.08984375 -21.26953125 c 0
 285.6796875 -17.9404296875 209 -48.900390625 207.790039062 -58.830078125 c 0
 206.580078125 -68.75 273.599609375 -117.200195312 301.009765625 -120.549804688 c 0
121.5703125 -299.990234375 m 0
 124.91015625 -327.400390625 105.389648438 -352.330078125 77.9697265625 -355.66015625 c 0
 50.5595703125 -359 25.6298828125 -339.490234375 22.2900390625 -312.0703125 c 0
 18.9501953125 -284.650390625 49.919921875 -207.969726562 59.849609375 -206.759765625 c 0
 69.76953125 -205.559570312 118.219726562 -272.580078125 121.5703125 -299.990234375 c 0
EndSplineSet
Fore
Refer: 48 -1 N 0.0302075 0.248168 -0.248168 0.0302075 207.789 -58.8302 2
Refer: 48 -1 S 0.248168 0.0302075 -0.0302075 0.248168 59.8484 -206.757 2
Refer: 35 -1 N -0.176777 -0.176777 -0.176777 0.176777 195.776 -40.2121 2
Refer: 35 -1 N 0.176777 0.176777 -0.176777 0.176777 40.2121 -195.776 2
Refer: 47 -1 N 0.241123 0.241123 -0.241123 0.241123 289.227 -289.227 2
Refer: 36 -1 N 0.241123 0.241123 -0.241123 0.241123 289.227 -289.227 2
EndChar

StartChar: eyebrow.8
Encoding: 87 -1 54
Width: 360
GlyphClass: 5
Flags: W
LayerCount: 2
Back
SplineSet
-7.87551052746 39.2235037613 m 1
 -7.87551052746 39.2235037613 -7.87800096398 39.2359072297 -7.81626099448 39.2353536679 c 1
 -5.33104901263 39.7452976212 -2.6971081471 40.0125262423 -0.00124521825989 40.0125262423 c 1
 22.0788453726 40.0125262423 40.0050792899 22.0862923251 40.0050792899 0.00620173421525 c 1
 40.0050792899 -19.3780259279 26.1890145046 -35.5608029575 7.87551052746 -39.2235037613 c 1
 7.87551052746 -39.2235037613 8.10532675454 -39.1763307523 7.99257620943 -39.1998842906 c 1
 7.74700309749 -39.2511844035 3.08710363318 -40.2348304254 -4.83096077075 -42.542272723 c 1
 -11.9571085057 -44.6189386687 -21.7214769713 -47.7678777593 -33.2822116923 -52.2595074787 c 1
 -54.0975324155 -60.3467714319 -80.6994719432 -72.7903974797 -108.322612001 -91.0216699179 c 1
 -130.427432499 -105.610851447 -153.169496086 -123.87836215 -174.366189797 -146.589105411 c 1
 -186.145043811 -159.209306141 -197.454855745 -173.205353443 -207.953243101 -188.757658892 c 1
 -221.076521164 -208.198476041 -232.941459979 -230.074702072 -242.844521725 -254.832356436 c 9
 -242.8650975 -254.883795874 l 17
 -248.762940156 -269.628402513 -263.186729897 -280.055588579 -280.026701232 -280.055588579 c 1
 -302.106940784 -280.055588579 -320.033295638 -262.129233724 -320.033295638 -240.048994173 c 1
 -320.033295638 -234.808725956 -319.023597721 -229.802424364 -317.155478275 -225.167643564 c 1
 -305.110666221 -195.055613429 -290.511707821 -168.083519514 -274.30701712 -144.077899322 c 1
 -261.343029464 -124.873054899 -247.357460595 -107.569157194 -232.853727372 -92.0294430258 c 1
 -206.741764054 -64.0523394709 -178.976621761 -41.8057009083 -152.308389371 -24.2046675307 c 1
 -118.965213318 -2.19817133603 -87.3104507849 12.5898238121 -62.212866783 22.3408523505 c 1
 -30.8377159275 34.530869978 -9.64771884745 38.8690620965 -7.87551052746 39.2235037613 c 1
0 0 m 0
 0 0 -200 -40 -280 -240 c 1024
EndSplineSet
Fore
SplineSet
-242 -253 m 257,0,1
 -246 -264 -246 -264 -256 -272 c 129,-1,2
 -266 -280 -266 -280 -280 -280 c 1,3,4
 -297 -280 -297 -280 -308.5 -268 c 129,-1,5
 -320 -256 -320 -256 -320 -240 c 1,6,7
 -320 -233 -320 -233 -318 -227 c 257,8,9
 -277 -124 -277 -124 -193.5 -55 c 129,-1,10
 -110 14 -110 14 -9 39 c 1,11,12
 -5 40 -5 40 0 40 c 1,13,14
 17 40 17 40 28.5 28 c 129,-1,15
 40 16 40 16 40 -0 c 257,16,17
 40 -13 40 -13 32 -24 c 129,-1,18
 24 -35 24 -35 9 -39 c 1,19,20
 -72 -59 -72 -59 -140.5 -115 c 129,-1,21
 -209 -171 -209 -171 -242 -253 c 257,0,1
EndSplineSet
EndChar

StartChar: beaming.teeth
Encoding: 162 -1 55
Width: 360
LayerCount: 2
Back
SplineSet
90 -230 m 1
 90 -230 120 -240 180 -240 c 5
 240 -240 270 -230 270 -230 c 1
 270 -230 256.559570312 -297.5 180 -297.5 c 5
 103.440429688 -297.5 90 -230 90 -230 c 1
180 -275.938476562 m 5
 144.040039062 -275.938476562 117.280273438 -272.217773438 100.629882812 -268.48828125 c 9
 92.3701171875 -249.778320312 l 1
 100.610351562 -252.887695312 131.259765625 -258.748046875 180 -258.748046875 c 5
 229.540039062 -258.748046875 260.370117188 -252.587890625 268.639648438 -249.377929688 c 1
 261.629882812 -267.797851562 l 17
 245.299804688 -271.587890625 217.450195312 -275.938476562 180 -275.938476562 c 5
EndSplineSet
Fore
SplineSet
270 -230 m 1,0,1
 234 -240 234 -240 180 -240 c 129,-1,2
 126 -240 126 -240 90 -230 c 1,3,4
 97 -258 97 -258 120 -278 c 129,-1,5
 143 -298 143 -298 180 -298 c 129,-1,6
 217 -298 217 -298 240 -278 c 129,-1,7
 263 -258 263 -258 270 -230 c 1,0,1
EndSplineSet
EndChar

StartChar: beaming.teeth2
Encoding: 163 -1 56
Width: 360
Flags: W
LayerCount: 2
Fore
SplineSet
180 -276 m 129,-1,1
 135 -276 135 -276 98 -268 c 1,2,-1
 92 -250 l 1,3,4
 127 -259 127 -259 180 -259 c 129,-1,5
 233 -259 233 -259 267 -250 c 1,6,-1
 260 -268 l 1,7,0
 225 -276 225 -276 180 -276 c 129,-1,1
EndSplineSet
EndChar

StartChar: n
Encoding: 110 -1 57
Width: 360
Flags: W
LayerCount: 2
Back
SplineSet
0 -180 m 0
 0 -279.411132812 80.5888671875 -360 180 -360 c 0
 279.411132812 -360 360 -279.411132812 360 -180 c 0
 360 -80.5888671875 279.411132812 0 180 0 c 0
 80.5888671875 0 0 -80.5888671875 0 -180 c 0
105.150390625 -236.209960938 m 0
 105.599609375 -238 116.830078125 -280 180 -280 c 0
 243.1796875 -280 254.400390625 -238 254.849609375 -236.209960938 c 0
 255.400390625 -234.040039062 254.419921875 -231.790039062 252.48046875 -230.669921875 c 0
 250.530273438 -229.559570312 248.08984375 -229.889648438 246.48046875 -231.440429688 c 0
 246.290039062 -231.629882812 226.940429688 -250 180 -250 c 0
 133.059570312 -250 113.700195312 -231.629882812 113.51953125 -231.450195312 c 0
 112.559570312 -230.5 111.280273438 -230 110 -230 c 0
 109.16015625 -230 108.309570312 -230.209960938 107.540039062 -230.639648438 c 0
 105.580078125 -231.759765625 104.599609375 -234.030273438 105.150390625 -236.209960938 c 0
95 -135 m 0
 95 -154.330078125 106.193359375 -170 120 -170 c 0
 133.806640625 -170 145 -154.330078125 145 -135 c 0
 145 -115.669921875 133.806640625 -100 120 -100 c 0
 106.193359375 -100 95 -115.669921875 95 -135 c 0
215 -135 m 0
 215 -154.330078125 226.193359375 -170 240 -170 c 0
 253.806640625 -170 265 -154.330078125 265 -135 c 0
 265 -115.669921875 253.806640625 -100 240 -100 c 0
 226.193359375 -100 215 -115.669921875 215 -135 c 0
EndSplineSet
Fore
Refer: 66 -1 S 0.25 0 0 0.25 180 -280 2
Refer: 4 -1 N 0.15625 0 0 0.21875 240 -135 2
Refer: 4 -1 N 0.15625 0 0 0.21875 120 -135 2
EndChar

StartChar: t
Encoding: 116 -1 58
Width: 360
Flags: W
LayerCount: 2
Back
SplineSet
360 -180 m 0
 360 -279.41015625 279.41015625 -360 180 -360 c 0
 80.58984375 -360 0 -279.41015625 0 -180 c 0
 0 -80.58984375 80.58984375 0 180 0 c 0
 279.41015625 0 360 -80.58984375 360 -180 c 1024
180 -210 m 0
 143.76953125 -210 119.73046875 -205.780273438 90 -200 c 0
 83.2099609375 -198.690429688 70 -200 70 -220 c 0
 70 -260 115.950195312 -310 180 -310 c 0
 244.040039062 -310 290 -260 290 -220 c 0
 290 -200 276.790039062 -198.6796875 270 -200 c 0
 240.26953125 -205.780273438 216.23046875 -210 180 -210 c 0
90 -220 m 1
 90 -220 120 -230 180 -230 c 0
 240 -230 270 -220 270 -220 c 1
 270 -220 250 -260 180 -260 c 0
 110 -260 90 -220 90 -220 c 1
156.8203125 -44.1298828125 m 2
 111.400390625 -52.1396484375 l 1
 88 -9.6103515625 l 2
 85.419921875 -4.919921875 80.1201171875 -2.41015625 74.8798828125 -3.330078125 c 0
 69.6103515625 -4.259765625 65.509765625 -8.4404296875 64.6904296875 -13.7197265625 c 2
 57.240234375 -61.6904296875 l 1
 11.8203125 -69.7001953125 l 2
 6.4697265625 -70.6396484375 2.33984375 -74.9501953125 1.6103515625 -80.33984375 c 0
 0.8798828125 -85.73046875 3.7197265625 -90.9697265625 8.6396484375 -93.3095703125 c 2
 49.33984375 -112.629882812 l 1
 41.8603515625 -160.75 l 2
 41.0302734375 -166.110351562 43.75 -171.389648438 48.58984375 -173.83984375 c 0
 50.3798828125 -174.740234375 52.2998046875 -175.169921875 54.2099609375 -175.169921875 c 0
 57.48046875 -175.169921875 60.7099609375 -173.889648438 63.1201171875 -171.450195312 c 2
 98.240234375 -135.83984375 l 1
 143.419921875 -157.290039062 l 2
 148.3203125 -159.610351562 154.16015625 -158.51953125 157.879882812 -154.5703125 c 0
 161.599609375 -150.620117188 162.33984375 -144.73046875 159.73046875 -139.98046875 c 2
 136.25 -97.2998046875 l 1
 167.900390625 -65.2197265625 l 2
 171.719726562 -61.349609375 172.58984375 -55.4501953125 170.0703125 -50.6298828125 c 0
 167.530273438 -45.8095703125 162.139648438 -43.2001953125 156.8203125 -44.1298828125 c 2
203.1796875 -44.1298828125 m 2
 248.599609375 -52.1396484375 l 1
 272 -9.6103515625 l 2
 274.580078125 -4.919921875 279.879882812 -2.41015625 285.120117188 -3.330078125 c 0
 290.379882812 -4.259765625 294.48046875 -8.4404296875 295.299804688 -13.7197265625 c 2
 302.75 -61.6904296875 l 1
 348.169921875 -69.7001953125 l 2
 353.530273438 -70.6396484375 357.66015625 -74.9404296875 358.379882812 -80.330078125 c 0
 359.099609375 -85.7197265625 356.26953125 -90.9599609375 351.349609375 -93.2998046875 c 2
 310.650390625 -112.620117188 l 1
 318.129882812 -160.740234375 l 2
 318.959960938 -166.099609375 316.240234375 -171.379882812 311.400390625 -173.830078125 c 0
 309.610351562 -174.73046875 307.690429688 -175.16015625 305.780273438 -175.16015625 c 0
 302.509765625 -175.16015625 299.280273438 -173.879882812 296.870117188 -171.440429688 c 2
 261.75 -135.830078125 l 1
 216.5703125 -157.280273438 l 2
 211.669921875 -159.599609375 205.830078125 -158.509765625 202.110351562 -154.559570312 c 0
 198.389648438 -150.610351562 197.650390625 -144.719726562 200.259765625 -139.969726562 c 2
 223.740234375 -97.2998046875 l 1
 192.08984375 -65.2197265625 l 2
 188.26953125 -61.349609375 187.400390625 -55.4501953125 189.919921875 -50.6298828125 c 0
 192.469726562 -45.8095703125 197.860351562 -43.2001953125 203.1796875 -44.1298828125 c 2
EndSplineSet
Fore
Refer: 88 -1 N -0.547115 0.0964712 0.0964712 0.547115 282.955 -15.642 2
Refer: 88 -1 N 0.547115 0.0964712 -0.0964712 0.547115 77.0448 -15.642 2
Refer: 36 -1 N 0.25 0 0 0.25 180 -310 2
Refer: 47 -1 N 0.25 0 0 0.25 180 -310 2
EndChar

StartChar: o
Encoding: 111 -1 59
Width: 360
Flags: W
LayerCount: 2
Back
SplineSet
0 -180 m 0
 0 -80.58984375 80.58984375 0 180 0 c 0
 279.41015625 0 360 -80.58984375 360 -180 c 0
 360 -279.41015625 279.41015625 -360 180 -360 c 0
 80.58984375 -360 0 -279.41015625 0 -180 c 1024
86.650390625 -128.709960938 m 0
 88.4296875 -130.3203125 91.08984375 -130.419921875 93 -129 c 0
 93.3896484375 -128.709960938 132.219726562 -100 180 -100 c 0
 227.66015625 -100 266.620117188 -128.709960938 267 -129 c 0
 268.91015625 -130.419921875 271.5703125 -130.299804688 273.349609375 -128.709960938 c 0
 275.120117188 -127.110351562 275.51953125 -124.469726562 274.290039062 -122.4296875 c 0
 273 -120.290039062 242.120117188 -70 180 -70 c 0
 117.879882812 -70 86.990234375 -120.280273438 85.7099609375 -122.4296875 c 0
 84.48046875 -124.48046875 84.8701171875 -127.110351562 86.650390625 -128.709960938 c 0
90 -215 m 0
 90 -234.330078125 101.193359375 -250 115 -250 c 0
 128.806640625 -250 140 -234.330078125 140 -215 c 0
 140 -195.669921875 128.806640625 -180 115 -180 c 0
 101.193359375 -180 90 -195.669921875 90 -215 c 0
220 -215 m 0
 220 -234.330078125 231.193359375 -250 245 -250 c 0
 258.806640625 -250 270 -234.330078125 270 -215 c 0
 270 -195.669921875 258.806640625 -180 245 -180 c 0
 231.193359375 -180 220 -195.669921875 220 -215 c 0
EndSplineSet
Fore
Refer: 11 -1 N -0.25 0 0 -0.25 180 -70 2
Refer: 4 -1 S 0.15625 0 0 0.21875 245 -215 2
Refer: 4 -1 S 0.15625 0 0 0.21875 115 -215 2
EndChar

StartChar: u
Encoding: 117 -1 60
Width: 360
Flags: W
LayerCount: 2
Back
SplineSet
0 -180 m 0
 0 -279.411132812 80.5888671875 -360 180 -360 c 0
 279.411132812 -360 360 -279.411132812 360 -180 c 0
 360 -80.5888671875 279.411132812 0 180 0 c 0
 80.5888671875 0 0 -80.5888671875 0 -180 c 0
90 -155 m 0
 90 -174.330078125 101.193359375 -190 115 -190 c 0
 128.806640625 -190 140 -174.330078125 140 -155 c 0
 140 -135.669921875 128.806640625 -120 115 -120 c 0
 101.193359375 -120 90 -135.669921875 90 -155 c 0
284.5703125 -177.969726562 m 0
 283.969726562 -176.620117188 269.580078125 -145 240 -145 c 0
 210.4296875 -145 196.030273438 -176.620117188 195.4296875 -177.969726562 c 0
 194.509765625 -180.040039062 195.110351562 -182.459960938 196.879882812 -183.879882812 c 0
 198.629882812 -185.299804688 201.139648438 -185.349609375 202.98046875 -184.01953125 c 0
 203.099609375 -183.9296875 215.599609375 -175 240 -175 c 0
 264.259765625 -175 276.740234375 -183.809570312 277.01953125 -184.009765625 c 0
 277.900390625 -184.669921875 278.959960938 -185 280 -185 c 0
 281.099609375 -185 282.209960938 -184.629882812 283.120117188 -183.91015625 c 0
 284.889648438 -182.490234375 285.5 -180.049804688 284.5703125 -177.969726562 c 0
59.990234375 -110 m 0
 57.91015625 -110 55.7998046875 -109.349609375 54 -108 c 0
 49.580078125 -104.690429688 48.6904296875 -98.419921875 52 -94 c 0
 84.6201171875 -50.5 128.16015625 -50 130 -50 c 0
 135.51953125 -50 140 -54.48046875 140 -60 c 0
 140 -65.509765625 135.549804688 -69.98046875 130.040039062 -70 c 0
 128.490234375 -70.01953125 94.3603515625 -70.8603515625 68 -106 c 0
 66.0400390625 -108.620117188 63.0302734375 -110 59.990234375 -110 c 0
290.009765625 -140 m 0
 286.959960938 -140 283.969726562 -138.620117188 282 -136 c 0
 256.080078125 -101.440429688 212.389648438 -109.719726562 211.959960938 -109.799804688 c 0
 206.490234375 -110.900390625 201.280273438 -107.360351562 200.190429688 -101.959960938 c 0
 199.110351562 -96.5498046875 202.620117188 -91.2802734375 208.030273438 -90.1904296875 c 0
 210.33984375 -89.7197265625 264.599609375 -79.4697265625 297.990234375 -123.990234375 c 0
 301.309570312 -128.41015625 300.41015625 -134.6796875 295.990234375 -137.990234375 c 0
 294.200195312 -139.349609375 292.099609375 -140 290.009765625 -140 c 0
200.790039062 -270.419921875 m 1
 214.139648438 -266.299804688 227.080078125 -258.860351562 227.080078125 -245.419921875 c 0
 227.080078125 -219.23046875 177.959960938 -215.740234375 172.360351562 -215.4296875 c 0
 169.620117188 -215.169921875 167.26953125 -217.360351562 167.08984375 -220.110351562 c 0
 166.919921875 -222.849609375 168.990234375 -225.219726562 171.73046875 -225.41015625 c 0
 172.080078125 -225.4296875 207.080078125 -228.400390625 207.080078125 -245.419921875 c 0
 207.080078125 -262.440429688 172.080078125 -265.41015625 171.73046875 -265.4296875 c 0
 171.58984375 -265.440429688 171.490234375 -265.51953125 171.360351562 -265.540039062 c 0
 170.83984375 -265.599609375 170.349609375 -265.719726562 169.900390625 -265.940429688 c 2
 169.709960938 -266.049804688 l 2
 169.240234375 -266.309570312 168.830078125 -266.620117188 168.459960938 -267.030273438 c 0
 168.3203125 -267.1796875 168.219726562 -267.33984375 168.099609375 -267.509765625 c 0
 167.870117188 -267.830078125 167.66015625 -268.139648438 167.509765625 -268.530273438 c 0
 167.389648438 -268.8203125 167.330078125 -269.139648438 167.26953125 -269.450195312 c 0
 167.23046875 -269.6796875 167.110351562 -269.889648438 167.08984375 -270.120117188 c 0
 167.08984375 -270.23046875 167.129882812 -270.330078125 167.129882812 -270.4296875 c 0
 167.129882812 -270.530273438 167.080078125 -270.639648438 167.08984375 -270.740234375 c 0
 167.099609375 -270.98046875 167.219726562 -271.190429688 167.26953125 -271.419921875 c 0
 167.330078125 -271.73046875 167.379882812 -272.030273438 167.5 -272.3203125 c 0
 167.629882812 -272.620117188 167.809570312 -272.889648438 167.990234375 -273.16015625 c 0
 168.16015625 -273.400390625 168.309570312 -273.66015625 168.509765625 -273.870117188 c 0
 168.740234375 -274.099609375 169.009765625 -274.280273438 169.290039062 -274.48046875 c 0
 169.530273438 -274.650390625 169.75 -274.8203125 170.030273438 -274.950195312 c 0
 170.349609375 -275.099609375 170.690429688 -275.16015625 171.040039062 -275.219726562 c 0
 171.280273438 -275.280273438 171.48046875 -275.400390625 171.73046875 -275.419921875 c 0
 172.080078125 -275.440429688 207.080078125 -278.41015625 207.080078125 -295.4296875 c 0
 207.080078125 -312.450195312 172.080078125 -315.419921875 171.73046875 -315.440429688 c 0
 168.990234375 -315.639648438 166.919921875 -318.009765625 167.08984375 -320.740234375 c 0
 167.259765625 -323.389648438 169.459960938 -325.4296875 172.080078125 -325.4296875 c 2
 172.360351562 -325.419921875 l 2
 177.959960938 -325.110351562 227.080078125 -321.620117188 227.080078125 -295.4296875 c 0
 227.080078125 -281.98046875 214.139648438 -274.540039062 200.790039062 -270.419921875 c 1
342.01953125 -258.030273438 m 0
 339.66015625 -250.129882812 334.23046875 -243.169921875 326.240234375 -239.280273438 c 0
 317.01953125 -234.790039062 306.6796875 -235.370117188 298.309570312 -239.879882812 c 1
 296.709960938 -230.51953125 290.809570312 -221.990234375 281.610351562 -217.509765625 c 0
 266.440429688 -210.110351562 248.129882812 -216.41015625 240.740234375 -231.5703125 c 0
 239.690429688 -233.719726562 238.940429688 -235.940429688 238.440429688 -238.16015625 c 0
 230.690429688 -263.719726562 244.83984375 -301.5703125 260.360351562 -317.639648438 c 0
 272.66015625 -318.940429688 289.889648438 -315.66015625 305.490234375 -308.91015625 c 0
 320.490234375 -294.309570312 332.8203125 -277.080078125 342.01953125 -258.030273438 c 0
356.540039062 -272.219726562 m 0
 363.9296875 -257.059570312 357.639648438 -238.75 342.490234375 -231.360351562 c 0
 333.26953125 -226.870117188 322.9296875 -227.450195312 314.559570312 -231.959960938 c 1
 312.959960938 -222.599609375 307.059570312 -214.0703125 297.860351562 -209.58984375 c 0
 282.690429688 -202.190429688 264.379882812 -208.5 256.990234375 -223.650390625 c 0
 255.940429688 -225.799804688 255.190429688 -228.01953125 254.690429688 -230.240234375 c 0
 246.950195312 -255.799804688 261.08984375 -293.650390625 276.610351562 -309.719726562 c 0
 298.83984375 -312.059570312 337.379882812 -299.9296875 352.759765625 -278.110351562 c 0
 354.209960938 -276.3203125 355.490234375 -274.370117188 356.540039062 -272.219726562 c 0
EndSplineSet
Fore
Refer: 10 -1 N 0.343294 -0.167436 0.167436 0.343294 260.36 -317.64 2
Refer: 10 -1 N 0.343294 -0.167436 0.167436 0.343294 276.61 -309.72 2
Refer: 69 -1 N 0.25 0 0 0.25 210 -100 2
Refer: 68 -1 N 0.25 0 0 0.25 172.08 -270.43 2
Refer: 12 -1 N 0.25 0 0 0.25 130 -60 2
Refer: 14 -1 S 0.25 0 0 -0.25 240 -145 2
Refer: 4 -1 N 0.15625 0 0 0.21875 115 -155 2
EndChar

StartChar: m
Encoding: 109 -1 61
Width: 360
Flags: W
LayerCount: 2
Back
SplineSet
360 -180 m 0
 360 -279.41015625 279.41015625 -360 180 -360 c 0
 80.599609375 -360 0 -279.41015625 0 -180 c 0
 0 -80.599609375 80.599609375 0 180 0 c 0
 279.41015625 0 360 -80.599609375 360 -180 c 1024
284.5703125 -177.969726562 m 0
 283.969726562 -176.620117188 269.580078125 -145 240 -145 c 0
 210.4296875 -145 196.030273438 -176.620117188 195.4296875 -177.969726562 c 0
 194.509765625 -180.040039062 195.110351562 -182.459960938 196.879882812 -183.879882812 c 0
 198.629882812 -185.299804688 201.139648438 -185.349609375 202.98046875 -184.01953125 c 0
 203.099609375 -183.9296875 215.599609375 -175 240 -175 c 0
 264.259765625 -175 276.740234375 -183.809570312 277.01953125 -184.009765625 c 0
 277.900390625 -184.669921875 278.959960938 -185 280 -185 c 0
 281.099609375 -185 282.209960938 -184.629882812 283.120117188 -183.91015625 c 0
 284.889648438 -182.490234375 285.5 -180.049804688 284.5703125 -177.969726562 c 0
164.5703125 -177.969726562 m 0
 163.969726562 -176.620117188 149.580078125 -145 120 -145 c 0
 90.4296875 -145 76.0302734375 -176.620117188 75.4296875 -177.969726562 c 0
 74.509765625 -180.040039062 75.1103515625 -182.459960938 76.8701171875 -183.879882812 c 0
 78.6298828125 -185.299804688 81.1396484375 -185.349609375 82.9697265625 -184.01953125 c 0
 83.099609375 -183.9296875 95.58984375 -175 120 -175 c 0
 144.259765625 -175 156.740234375 -183.809570312 157.01953125 -184.009765625 c 0
 157.900390625 -184.669921875 158.959960938 -185 160 -185 c 0
 161.099609375 -185 162.209960938 -184.629882812 163.120117188 -183.91015625 c 0
 164.900390625 -182.490234375 165.490234375 -180.049804688 164.5703125 -177.969726562 c 0
310 -160 m 0
 306.040039062 -160 302.280273438 -157.620117188 300.709960938 -153.709960938 c 0
 282.9296875 -109.259765625 238.48046875 -99.900390625 238.030273438 -99.7998046875 c 0
 232.620117188 -98.7197265625 229.099609375 -93.4501953125 230.190429688 -88.0302734375 c 0
 231.26953125 -82.6103515625 236.540039062 -79.1201171875 241.959960938 -80.1904296875 c 0
 244.219726562 -80.6396484375 297.51953125 -91.8701171875 319.280273438 -146.26953125 c 0
 321.330078125 -151.400390625 318.830078125 -157.219726562 313.700195312 -159.26953125 c 0
 312.5 -159.76953125 311.240234375 -160 310 -160 c 0
50 -160 m 0
 48.759765625 -160 47.509765625 -159.76953125 46.2900390625 -159.280273438 c 0
 41.16015625 -157.23046875 38.669921875 -151.41015625 40.7197265625 -146.280273438 c 0
 62.48046875 -91.8798828125 115.780273438 -80.650390625 118.040039062 -80.2001953125 c 0
 123.469726562 -79.1396484375 128.719726562 -82.6298828125 129.809570312 -88.0400390625 c 0
 130.889648438 -93.4404296875 127.389648438 -98.7001953125 122 -99.7998046875 c 0
 120.150390625 -100.1796875 76.9404296875 -109.599609375 59.2900390625 -153.709960938 c 0
 57.7197265625 -157.620117188 53.9599609375 -160 50 -160 c 0
180 -220 m 0
 143.76953125 -220 119.73046875 -215.780273438 90 -210 c 0
 83.2099609375 -208.690429688 70 -210 70 -230 c 0
 70 -270 115.950195312 -320 180 -320 c 0
 244.040039062 -320 290 -270 290 -230 c 0
 290 -210 276.790039062 -208.6796875 270 -210 c 0
 240.26953125 -215.780273438 216.23046875 -220 180 -220 c 0
90 -230 m 1
 90 -230 120 -240 180 -240 c 0
 240 -240 270 -230 270 -230 c 1
 270 -230 250 -270 180 -270 c 0
 110 -270 90 -230 90 -230 c 1
108.469726562 -282.290039062 m 0
 101.669921875 -309.059570312 74.4697265625 -325.240234375 47.7001953125 -318.440429688 c 0
 20.9404296875 -311.650390625 4.75 -284.450195312 11.5400390625 -257.6796875 c 0
 18.330078125 -230.91015625 74.91015625 -170.599609375 84.6103515625 -173.059570312 c 0
 94.3095703125 -175.530273438 115.259765625 -255.530273438 108.469726562 -282.290039062 c 0
251.330078125 -282.290039062 m 0
 258.129882812 -309.059570312 285.330078125 -325.240234375 312.099609375 -318.440429688 c 0
 338.870117188 -311.650390625 355.059570312 -284.450195312 348.259765625 -257.6796875 c 0
 341.459960938 -230.91015625 284.879882812 -170.599609375 275.1796875 -173.059570312 c 0
 265.5 -175.530273438 244.540039062 -255.530273438 251.330078125 -282.290039062 c 0
EndSplineSet
Fore
Refer: 48 -1 N 0.242308 0.0615383 -0.0615383 0.242308 275.175 -173.077 2
Refer: 48 -1 N 0.242308 -0.0615383 0.0615383 0.242308 84.6153 -173.077 2
Refer: 54 -1 N -0.25 0 0 0.25 240 -90 2
Refer: 54 -1 N 0.25 0 0 0.25 120 -90 2
Refer: 14 -1 S 0.25 0 0 -0.25 240 -145 2
Refer: 14 -1 N 0.25 0 0 -0.25 120 -145 2
Refer: 47 -1 N 0.25 0 0 0.25 180 -320 2
Refer: 36 -1 N 0.25 0 0 0.25 180 -320 2
EndChar

StartChar: p
Encoding: 112 -1 62
Width: 360
Flags: W
LayerCount: 2
Back
SplineSet
350.700195312 -325.580078125 m 0
 356.286132812 -322.221679688 360.02734375 -316.100585938 360.02734375 -309.11328125 c 0
 360.02734375 -307.03515625 359.671875 -305.044921875 359.059570312 -303.169921875 c 0
 356.469726562 -295.0703125 348.360351562 -290 339.849609375 -290 c 2
 320 -290 l 2
 314.48046875 -290 310 -285.51953125 310 -280 c 0
 310 -274.48046875 314.48046875 -270 320 -270 c 2
 335 -270 l 2
 343.185546875 -269.890625 349.797851562 -263.211914062 349.797851562 -255 c 0
 349.797851562 -246.720703125 343.076171875 -239.999023438 334.795898438 -239.999023438 c 0
 334.728515625 -239.999023438 334.66796875 -239.999023438 334.599609375 -240 c 0
 326.599609375 -240.209960938 320 -233.76953125 320 -225.76953125 c 2
 320 -225.740234375 l 2
 320 -222.809570312 320.599609375 -219.959960938 321.759765625 -217.26953125 c 0
 330.22265625 -198.280273438 334.928710938 -177.252929688 334.928710938 -155.134765625 c 0
 334.928710938 -151.849609375 334.904296875 -148.594726562 334.700195312 -145.360351562 c 0
 329.780273438 -66.599609375 264.110351562 -2.6904296875 185.240234375 -0.08984375 c 0
 97.240234375 2.8095703125 25 -67.66015625 25 -155 c 0
 25 -178.709960938 30.48046875 -201.08984375 40 -221.190429688 c 2
 40 -239.990234375 l 2
 40 -250.849609375 31.349609375 -260.200195312 20.490234375 -259.990234375 c 0
 20.3515625 -259.987304688 20.2119140625 -259.985351562 20.072265625 -259.985351562 c 0
 9.0341796875 -259.985351562 0.072265625 -268.947265625 0.072265625 -279.985351562 c 0
 0.072265625 -280.555664062 0.103515625 -281.1015625 0.150390625 -281.66015625 c 0
 1.009765625 -292.25 10.6904296875 -300 21.330078125 -300 c 2
 101.719726562 -300 l 2
 101.731445312 -300 101.743164062 -300 101.754882812 -300 c 0
 108.211914062 -300 113.454101562 -305.2421875 113.454101562 -311.700195312 c 0
 113.454101562 -314.942382812 112.133789062 -317.879882812 110 -320 c 1
 109.999023438 -319.999023438 79.7001953125 -327.5703125 79.7001953125 -327.5703125 c 2
 74.13671875 -328.965820312 70.0126953125 -334.002929688 70.0126953125 -339.99609375 c 0
 70.0126953125 -345.989257812 74.13671875 -351.024414062 79.7001953125 -352.419921875 c 0
 99.01953125 -357.25 118.83984375 -359.790039062 138.75 -359.98046875 c 2
 165.870117188 -360.240234375 l 2
 179.9296875 -360.379882812 193.900390625 -357.139648438 206.16015625 -350.240234375 c 0
 218.150390625 -343.495117188 231.985351562 -339.646484375 246.7109375 -339.646484375 c 0
 252.129882812 -339.646484375 257.450195312 -340.115234375 262.580078125 -341.110351562 c 0
 292.860351562 -346.990234375 324.25 -341.450195312 350.700195312 -325.580078125 c 0
187.360351562 -240.030273438 m 4
 179.8203125 -240.030273438 172.3203125 -239.25 164.919921875 -237.690429688 c 4
 137.990234375 -231.98046875 114.889648438 -216.540039062 101.540039062 -195.330078125 c 4
 100.614257812 -193.814453125 100.081054688 -192.033203125 100.081054688 -190.12890625 c 4
 100.081054688 -184.609375 104.561523438 -180.12890625 110.081054688 -180.12890625 c 4
 113.595703125 -180.12890625 116.676757812 -181.924804688 118.459960938 -184.669921875 c 4
 128.790039062 -201.08984375 147.709960938 -213.58984375 169.059570312 -218.120117188 c 4
 186.73046875 -221.870117188 214.129882812 -222.049804688 244.419921875 -201.700195312 c 4
 246.012695312 -200.629882812 247.928710938 -200.004882812 249.990234375 -200.004882812 c 4
 255.509765625 -200.004882812 259.991210938 -204.486328125 259.991210938 -210.005859375 c 4
 259.991210938 -213.46484375 258.251953125 -216.50390625 255.580078125 -218.299804688 c 4
 234.290039062 -232.599609375 210.690429688 -240.030273438 187.360351562 -240.030273438 c 4
120 -120 m 0
 120 -136.568359375 128.954101562 -150 140 -150 c 0
 151.045898438 -150 160 -136.568359375 160 -120 c 0
 160 -103.431640625 151.045898438 -90 140 -90 c 0
 128.954101562 -90 120 -103.431640625 120 -120 c 0
210 -140 m 0
 210 -156.568359375 218.954101562 -170 230 -170 c 0
 241.045898438 -170 250 -156.568359375 250 -140 c 0
 250 -123.431640625 241.045898438 -110 230 -110 c 0
 218.954101562 -110 210 -123.431640625 210 -140 c 0
EndSplineSet
Fore
Refer: 72 -1 N 0.25 0 0 0.25 110 -190 2
Refer: 4 -1 N 0.125 0 0 0.1875 230 -140 2
Refer: 4 -1 N 0.125 0 0 0.1875 140 -120 2
EndChar

StartChar: q
Encoding: 113 -1 63
Width: 360
Flags: W
LayerCount: 2
Back
SplineSet
360 -180 m 0
 360 -279.41015625 279.41015625 -360 180 -360 c 0
 80.599609375 -360 0 -279.41015625 0 -180 c 0
 0 -80.599609375 80.599609375 0 180 0 c 0
 279.41015625 0 360 -80.599609375 360 -180 c 1024
90 -165 m 0
 90 -184.330078125 101.193359375 -200 115 -200 c 0
 128.806640625 -200 140 -184.330078125 140 -165 c 0
 140 -145.669921875 128.806640625 -130 115 -130 c 0
 101.193359375 -130 90 -145.669921875 90 -165 c 0
284.5703125 -177.969726562 m 0
 283.969726562 -176.620117188 269.580078125 -145 240 -145 c 0
 210.4296875 -145 196.030273438 -176.620117188 195.4296875 -177.969726562 c 0
 194.509765625 -180.040039062 195.110351562 -182.459960938 196.879882812 -183.879882812 c 0
 198.629882812 -185.299804688 201.139648438 -185.349609375 202.98046875 -184.01953125 c 0
 203.099609375 -183.9296875 215.599609375 -175 240 -175 c 0
 264.259765625 -175 276.740234375 -183.809570312 277.01953125 -184.009765625 c 0
 277.900390625 -184.669921875 278.959960938 -185 280 -185 c 0
 281.099609375 -185 282.209960938 -184.629882812 283.120117188 -183.91015625 c 0
 284.889648438 -182.490234375 285.5 -180.049804688 284.5703125 -177.969726562 c 0
59.990234375 -124.580078125 m 0
 57.91015625 -124.580078125 55.7998046875 -123.9296875 54 -122.580078125 c 0
 49.580078125 -119.26953125 48.6904296875 -113 52 -108.580078125 c 0
 84.6201171875 -65.080078125 128.16015625 -64.580078125 130 -64.580078125 c 0
 135.51953125 -64.580078125 140 -69.0595703125 140 -74.580078125 c 0
 140 -80.08984375 135.549804688 -84.5595703125 130.040039062 -84.580078125 c 0
 128.48046875 -84.599609375 94.349609375 -85.4404296875 67.990234375 -120.580078125 c 0
 66.0400390625 -123.200195312 63.0302734375 -124.580078125 59.990234375 -124.580078125 c 0
290.009765625 -145.830078125 m 0
 286.959960938 -145.830078125 283.969726562 -144.450195312 282 -141.830078125 c 0
 256.080078125 -107.259765625 212.389648438 -115.559570312 211.959960938 -115.629882812 c 0
 206.490234375 -116.709960938 201.280273438 -113.200195312 200.190429688 -107.790039062 c 0
 199.110351562 -102.370117188 202.620117188 -97.1103515625 208.030273438 -96.01953125 c 0
 210.33984375 -95.5498046875 264.599609375 -85.2998046875 297.990234375 -129.8203125 c 0
 301.309570312 -134.240234375 300.41015625 -140.509765625 295.990234375 -143.8203125 c 0
 294.200195312 -145.190429688 292.099609375 -145.830078125 290.009765625 -145.830078125 c 0
232.540039062 -235.76953125 m 0
 230.66015625 -234.669921875 228.219726562 -234.900390625 226.5703125 -236.370117188 c 0
 226.469726562 -236.450195312 216.440429688 -245 180 -245 c 0
 143.58984375 -245 133.540039062 -236.459960938 133.540039062 -236.459960938 c 2
 131.950195312 -234.860351562 129.5 -234.559570312 127.540039062 -235.639648438 c 0
 125.58984375 -236.75 124.610351562 -239.030273438 125.16015625 -241.209960938 c 0
 125.259765625 -241.650390625 136.599609375 -285 180 -285 c 0
 223.400390625 -285 234.740234375 -241.650390625 234.849609375 -241.209960938 c 0
 235.379882812 -239.080078125 234.41015625 -236.900390625 232.540039062 -235.76953125 c 0
EndSplineSet
Fore
Refer: 69 -1 N 0.25 0 0 0.25 210 -105.835 2
Refer: 12 -1 N 0.25 0 0 0.25 130 -74.58 2
Refer: 14 -1 N 0.25 0 0 -0.25 240 -145 2
Refer: 4 -1 N 0.15625 0 0 0.21875 115 -165 2
Refer: 8 -1 N 0.25 0 0 0.25 180 -285 2
EndChar

StartChar: x
Encoding: 120 -1 64
Width: 360
Flags: W
LayerCount: 2
Back
SplineSet
360 -180 m 0
 360 -279.41015625 279.41015625 -360 180 -360 c 0
 80.599609375 -360 0 -279.41015625 0 -180 c 0
 0 -80.599609375 80.599609375 0 180 0 c 0
 279.41015625 0 360 -80.599609375 360 -180 c 1024
208.709960938 -280 m 1
 222.059570312 -275.879882812 235 -268.440429688 235 -255 c 0
 235 -228.809570312 185.879882812 -225.3203125 180.280273438 -225.009765625 c 0
 177.540039062 -224.740234375 175.190429688 -226.940429688 175.009765625 -229.690429688 c 0
 174.83984375 -232.4296875 176.91015625 -234.799804688 179.650390625 -234.990234375 c 0
 180 -235.009765625 215 -237.98046875 215 -255 c 0
 215 -272.01953125 180 -274.990234375 179.650390625 -275.009765625 c 0
 179.51953125 -275.01953125 179.419921875 -275.08984375 179.290039062 -275.110351562 c 0
 178.759765625 -275.169921875 178.26953125 -275.290039062 177.799804688 -275.51953125 c 2
 177.650390625 -275.610351562 l 2
 177.169921875 -275.879882812 176.740234375 -276.200195312 176.379882812 -276.610351562 c 0
 176.240234375 -276.759765625 176.150390625 -276.919921875 176.030273438 -277.080078125 c 0
 175.799804688 -277.400390625 175.58984375 -277.719726562 175.4296875 -278.110351562 c 0
 175.309570312 -278.400390625 175.25 -278.719726562 175.190429688 -279.030273438 c 0
 175.150390625 -279.259765625 175.030273438 -279.469726562 175.009765625 -279.700195312 c 0
 175.009765625 -279.809570312 175.049804688 -279.91015625 175.049804688 -280.009765625 c 0
 175.049804688 -280.110351562 175 -280.219726562 175.009765625 -280.3203125 c 0
 175.01953125 -280.559570312 175.139648438 -280.76953125 175.190429688 -281 c 0
 175.25 -281.309570312 175.299804688 -281.610351562 175.419921875 -281.900390625 c 0
 175.549804688 -282.200195312 175.73046875 -282.469726562 175.91015625 -282.740234375 c 0
 176.080078125 -282.98046875 176.23046875 -283.240234375 176.4296875 -283.450195312 c 0
 176.66015625 -283.6796875 176.9296875 -283.860351562 177.209960938 -284.059570312 c 0
 177.450195312 -284.23046875 177.669921875 -284.400390625 177.950195312 -284.530273438 c 0
 178.26953125 -284.6796875 178.610351562 -284.740234375 178.959960938 -284.799804688 c 0
 179.200195312 -284.860351562 179.400390625 -284.98046875 179.650390625 -285 c 0
 180 -285.009765625 215 -287.98046875 215 -305 c 0
 215 -322.01953125 180 -324.990234375 179.650390625 -325.009765625 c 0
 176.91015625 -325.209960938 174.83984375 -327.580078125 175.009765625 -330.309570312 c 0
 175.1796875 -332.959960938 177.379882812 -335 180 -335 c 2
 180.280273438 -334.990234375 l 2
 185.879882812 -334.6796875 235 -331.190429688 235 -305 c 0
 235 -291.559570312 222.059570312 -284.120117188 208.709960938 -280 c 1
160 -190 m 0
 155.809570312 -190 151.91015625 -187.349609375 150.509765625 -183.16015625 c 0
 148.48046875 -177.169921875 140.33984375 -160 130 -160 c 0
 119.379882812 -160 111.120117188 -178.26953125 109.490234375 -183.16015625 c 0
 107.740234375 -188.389648438 102.110351562 -191.240234375 96.83984375 -189.48046875 c 0
 91.599609375 -187.740234375 88.76953125 -182.080078125 90.51953125 -176.830078125 c 0
 91.76953125 -173.0703125 103.559570312 -140 130 -140 c 0
 156.440429688 -140 168.23046875 -173.0703125 169.490234375 -176.83984375 c 0
 171.240234375 -182.080078125 168.41015625 -187.75 163.169921875 -189.490234375 c 0
 162.110351562 -189.830078125 161.040039062 -190 160 -190 c 0
260 -190 m 0
 255.809570312 -190 251.91015625 -187.349609375 250.51953125 -183.16015625 c 0
 248.490234375 -177.169921875 240.330078125 -160 230 -160 c 0
 219.379882812 -160 211.110351562 -178.26953125 209.48046875 -183.16015625 c 0
 207.73046875 -188.389648438 202.120117188 -191.240234375 196.830078125 -189.48046875 c 0
 191.599609375 -187.740234375 188.759765625 -182.080078125 190.509765625 -176.830078125 c 0
 191.76953125 -173.0703125 203.549804688 -140 230 -140 c 0
 256.450195312 -140 268.23046875 -173.0703125 269.48046875 -176.83984375 c 0
 271.23046875 -182.080078125 268.400390625 -187.75 263.16015625 -189.490234375 c 0
 262.110351562 -189.830078125 261.040039062 -190 260 -190 c 0
EndSplineSet
Fore
Refer: 68 -1 S 0.25 0 0 0.25 180 -280 2
Refer: 9 -1 N 0.25 0 0 0.25 130 -150 2
Refer: 9 -1 N 0.25 0 0 0.25 230 -150 2
EndChar

StartChar: y
Encoding: 121 -1 65
Width: 360
Flags: W
LayerCount: 2
Back
SplineSet
0 -180 m 0
 0 -279.411132812 80.5888671875 -360 180 -360 c 0
 279.411132812 -360 360 -279.411132812 360 -180 c 0
 360 -80.5888671875 279.411132812 0 180 0 c 0
 80.5888671875 0 0 -80.5888671875 0 -180 c 0
95 -135 m 0
 95 -154.330078125 106.193359375 -170 120 -170 c 0
 133.806640625 -170 145 -154.330078125 145 -135 c 0
 145 -115.669921875 133.806640625 -100 120 -100 c 0
 106.193359375 -100 95 -115.669921875 95 -135 c 0
215 -135 m 0
 215 -154.330078125 226.193359375 -170 240 -170 c 0
 253.806640625 -170 265 -154.330078125 265 -135 c 0
 265 -115.669921875 253.806640625 -100 240 -100 c 0
 226.193359375 -100 215 -115.669921875 215 -135 c 0
273.349609375 -226.290039062 m 0
 271.5703125 -224.6796875 268.91015625 -224.580078125 267 -226 c 0
 266.610351562 -226.290039062 227.780273438 -255 180 -255 c 0
 132.33984375 -255 93.3798828125 -226.290039062 93 -226 c 0
 91.08984375 -224.580078125 88.4296875 -224.700195312 86.650390625 -226.290039062 c 0
 84.8798828125 -227.889648438 84.48046875 -230.530273438 85.7099609375 -232.5703125 c 0
 87 -234.719726562 117.879882812 -285 180 -285 c 0
 242.120117188 -285 273.009765625 -234.719726562 274.290039062 -232.5703125 c 0
 275.51953125 -230.51953125 275.129882812 -227.889648438 273.349609375 -226.290039062 c 0
295 -275 m 0
 295 -302.620117188 272.620117188 -325 245 -325 c 0
 217.379882812 -325 195 -302.620117188 195 -275 c 0
 195 -247.379882812 235 -175 245 -175 c 0
 255 -175 295 -247.379882812 295 -275 c 0
EndSplineSet
Fore
Refer: 48 -1 N 0.25 0 0 0.25 245 -175 2
Refer: 4 -1 S 0.15625 0 0 0.21875 240 -135 2
Refer: 4 -1 S 0.15625 0 0 0.21875 120 -135 2
Refer: 11 -1 N 0.25 -0 -0 0.25 180 -285 2
EndChar

StartChar: X
Encoding: 88 -1 66
Width: 360
GlyphClass: 5
Flags: W
LayerCount: 2
Back
SplineSet
-265.860635389 194.139360389 m 5
 -265.860635389 194.139360389 -265.988399835 194.265433316 -265.9451334 194.223192384 c 4
 -265.94257774 194.220697299 -264.112314969 192.434044501 -260.315440366 189.417520647 c 4
 -256.898124956 186.702547272 -251.887833141 182.991230993 -245.179475948 178.685580531 c 4
 -233.104197189 170.935258347 -215.528763925 161.257403777 -191.806922889 152.000099958 c 4
 -149.116694088 135.340498475 -86.4676789479 120 0 120 c 4
 86.4676789479 120 149.116694088 135.340498475 191.806922889 152.000099958 c 4
 215.528763925 161.257403777 233.104197189 170.935258347 245.179475948 178.685580531 c 4
 251.887833141 182.991230993 256.898124956 186.702547272 260.315440366 189.417520647 c 4
 264.112314969 192.434044501 265.94257774 194.220697299 265.9451334 194.223192384 c 4
 265.988396595 194.265430152 265.860638343 194.139363343 265.860638343 194.139363343 c 5
 268.220643773 196.499368491 271.203633379 198.29979334 274.64690432 199.253265965 c 4
 285.284567627 202.198930401 296.312895813 195.952600153 299.259038595 185.313209397 c 4
 300.212666055 181.869379302 300.203356981 178.384692763 299.393814215 175.146521706 c 5
 299.63634984 176.116664206 299.161948758 174.170335734 299.404484383 175.140478234 c 5
 299.125699095 174.025337085 296.264109898 162.93868373 288.204880258 146.687014045 c 4
 281.759238711 133.68919142 271.973262204 117.371754652 257.493543612 100.336791602 c 4
 247.440335871 88.5094883768 235.123630783 76.3430898782 220.148562163 64.7580653274 c 4
 201.42924225 50.2764101006 178.567182775 36.7236863837 150.928440354 25.831571144 c 4
 111.116567987 10.1421633145 61.4922518453 0 0 0 c 4
 -61.4922518453 0 -111.116567987 10.1421633145 -150.928440354 25.831571144 c 4
 -178.567182775 36.7236863837 -201.42924225 50.2764101006 -220.148562163 64.7580653274 c 4
 -235.123630783 76.3430898782 -247.440335871 88.5094883768 -257.493543612 100.336791602 c 4
 -271.973262204 117.371754652 -281.759238711 133.68919142 -288.204880258 146.687014045 c 4
 -296.264109501 162.93868293 -299.125699481 174.02533902 -299.404483983 175.140476634 c 4
 -300.214027131 178.378648069 -300.223336336 181.86333506 -299.269708682 185.307165554 c 4
 -296.323565718 195.946556032 -285.295236908 202.192885711 -274.657573018 199.247220854 c 4
 -271.214301399 198.293747957 -268.231311273 196.493322628 -265.860635389 194.139360389 c 5
EndSplineSet
Fore
SplineSet
-265.860635389 194.139360389 m 0,0,1
 -264.113574155 192.435044893 -264.113574155 192.435044893 -260.315440366 189.417520647 c 0,2,3
 -253.651688228 184.123332825 -253.651688228 184.123332825 -245.179475948 178.685580531 c 0,4,5
 -221.898863386 163.74329625 -221.898863386 163.74329625 -191.806922889 152.000099958 c 0,6,7
 -109.806666746 120 -109.806666746 120 0 120 c 128,-1,8
 109.806666746 120 109.806666746 120 191.806922889 152.000099958 c 0,9,10
 221.898863386 163.74329625 221.898863386 163.74329625 245.179475948 178.685580531 c 0,11,12
 253.651688228 184.123332825 253.651688228 184.123332825 260.315440366 189.417520647 c 0,13,14
 264.113574155 192.435044893 264.113574155 192.435044893 265.9451334 194.223192384 c 0,15,16
 269.5682036 197.846928158 269.5682036 197.846928158 274.64690432 199.253265965 c 0,17,18
 282.6251518 201.462514292 282.6251518 201.462514292 289.837291654 197.377633378 c 128,-1,19
 297.049431509 193.292752464 297.049431509 193.292752464 299.259038595 185.313209397 c 0,20,21
 300.665604778 180.233683945 300.665604778 180.233683945 299.393814215 175.146521706 c 0,22,23
 296.445460364 163.304382191 296.445460364 163.304382191 288.204880258 146.687014045 c 0,24,25
 276.039965397 122.156111349 276.039965397 122.156111349 257.493543612 100.336791602 c 0,26,27
 240.892140146 80.8057287011 240.892140146 80.8057287011 220.148562163 64.7580653274 c 0,28,29
 189.45912231 41.0160763484 189.45912231 41.0160763484 150.928440354 25.831571144 c 0,30,31
 85.3808285761 0 85.3808285761 0 0 0 c 128,-1,32
 -85.3808285761 0 -85.3808285761 0 -150.928440354 25.831571144 c 0,33,34
 -189.45912231 41.0160763484 -189.45912231 41.0160763484 -220.148562163 64.7580653274 c 0,35,36
 -240.892140146 80.8057287011 -240.892140146 80.8057287011 -257.493543612 100.336791602 c 0,37,38
 -276.039965397 122.156111349 -276.039965397 122.156111349 -288.204880258 146.687014045 c 0,39,40
 -296.445458256 163.30437794 -296.445458256 163.30437794 -299.404483983 175.140476634 c 0,41,42
 -300.676275155 180.227639506 -300.676275155 180.227639506 -299.269708682 185.307165554 c 0,43,44
 -297.060101459 193.286708412 -297.060101459 193.286708412 -289.847961197 197.371588955 c 128,-1,45
 -282.635820936 201.456469497 -282.635820936 201.456469497 -274.657573018 199.247220854 c 0,46,47
 -269.592139406 197.844556704 -269.592139406 197.844556704 -265.860635389 194.139360389 c 0,0,1
EndSplineSet
EndChar

StartChar: Y
Encoding: 89 -1 67
Width: 360
GlyphClass: 5
Flags: W
LayerCount: 2
Back
SplineSet
173.80078125 114.3984375 m 0
 180.80078125 107.6796875 182.0390625 96.9609375 176.640625 88.87890625 c 0
 174.23828125 85.2421875 116.0390625 0 0 0 c 0
 -116.0390625 0 -174.19921875 85.2421875 -176.640625 88.87890625 c 0
 -182 97 -180.80078125 107.80078125 -173.71875 114.51953125 c 0
 -166.640625 121.2421875 -155.71875 121.80078125 -148 116 c 4
 -147.6015625 115.6796875 -97.640625 80 0 80 c 0
 97.640625 80 147.640625 115.6796875 148.078125 116.08203125 c 0
 155.91796875 121.83984375 166.80078125 121.16015625 173.80078125 114.3984375 c 0
EndSplineSet
Fore
SplineSet
0 80 m 129,-1,1
 -47 80 -47 80 -86.5 90.5 c 129,-1,2
 -126 101 -126 101 -148 116 c 1,3,4
 -154 120 -154 120 -160 120 c 1,5,6
 -168 120 -168 120 -174 114 c 129,-1,7
 -180 108 -180 108 -180 100 c 1,8,9
 -180 94 -180 94 -176 88 c 1,10,11
 -148 50 -148 50 -102 25 c 129,-1,12
 -56 0 -56 0 0 0 c 129,-1,13
 56 0 56 0 102 25 c 129,-1,14
 148 50 148 50 176 88 c 1,15,16
 180 94 180 94 180 100 c 1,17,18
 180 108 180 108 174 114 c 129,-1,19
 168 120 168 120 160 120 c 1,20,21
 154 120 154 120 148 116 c 1,22,23
 126 101 126 101 86.5 90.5 c 129,-1,24
 47 80 47 80 0 80 c 129,-1,1
-42 47 m 1049,25,-1
NamedP: "TODO: "
EndSplineSet
EndChar

StartChar: mouth.kissing
Encoding: 90 -1 68
Width: 360
GlyphClass: 5
Flags: W
LayerCount: 2
Back
SplineSet
1.0132434765 19.9747261187 m 1
 1.48309314691 19.951233635 21.120626698 18.9635931367 48.3907361675 14.8609025603 c 0
 70.2177369184 11.5771082509 96.9242323096 6.32773944076 122.883984973 -2.27142862904 c 0
 132.505387538 -5.45851822874 142.034658758 -9.1122791515 151.207652736 -13.3538977075 c 0
 158.546433713 -16.7473709448 165.660428405 -20.5178080028 172.408678352 -24.7627549365 c 0
 179.155833579 -29.007013243 185.54552878 -33.7287534119 191.385101594 -39.0641462937 c 0
 196.055358938 -43.331180645 200.375856761 -47.9964982052 204.186276743 -53.1167500554 c 0
 208.471096188 -58.8744761846 212.105319312 -65.2145168678 214.79433906 -72.0950461464 c 0
 218.157070322 -80.6994347651 220 -90.0994759208 220 -100 c 4
 220 -109.900524079 218.157070322 -119.300565235 214.79433906 -127.904953854 c 0
 212.105319312 -134.785483132 208.471096188 -141.125523815 204.186276743 -146.883249945 c 0
 200.375856761 -152.003501795 196.055358938 -156.668819355 191.385101594 -160.935853706 c 0
 185.54552878 -166.271246588 179.155833579 -170.992986757 172.408678352 -175.237245064 c 0
 165.660428405 -179.482191997 158.546433713 -183.252629055 151.207652736 -186.646102293 c 0
 142.034658758 -190.887720848 132.505387538 -194.541481771 122.883984973 -197.728571371 c 0
 96.9242323096 -206.327739441 70.2177369184 -211.577108251 48.3907361675 -214.86090256 c 0
 21.1206265838 -218.963593154 1.4830933882 -219.951233628 1.01324328237 -219.974726128 c 0
 -4.05849919987 -220.228313205 -9.22976565473 -218.564869172 -13.3148755881 -214.917702142 c 0
 -21.5524227883 -207.563258554 -22.2740377072 -194.909743748 -14.9253176222 -186.678607316 c 0
 -11.2809889597 -182.596676575 -6.33191444972 -180.363985888 -1.26377458061 -180.047227145 c 2
 -1.26377458061 -180.047227145 1.00580942487 -179.910711054 6.0534528137 -179.369533866 c 0
 12.1219427708 -178.718907807 21.5289498822 -177.511392646 32.6032345366 -175.428784427 c 0
 48.5478016526 -172.430280455 67.9506402789 -167.575233937 85.6402725312 -160.250620582 c 0
 96.2492320181 -155.857848295 106.190208151 -150.590910051 114.404581622 -144.590566929 c 0
 121.718535625 -139.247952091 127.597954496 -133.392627361 131.80320699 -127.127458215 c 0
 134.728618756 -122.769051779 136.888248706 -118.195428869 138.273486042 -113.173131867 c 0
 139.38244132 -109.152519205 140 -104.815474615 140 -100 c 4
 140 -95.1845253847 139.38244132 -90.8474807949 138.273486042 -86.8268681332 c 0
 136.888248706 -81.8045711309 134.728618756 -77.2309482211 131.80320699 -72.8725417849 c 0
 127.597954496 -66.6073726388 121.718535625 -60.7520479088 114.404581622 -55.4094330709 c 0
 106.190208151 -49.4090899491 96.2492320181 -44.1421517051 85.6402725312 -39.7493794176 c 0
 72.3801620567 -34.2588649242 58.1417999234 -30.1384289241 45.1292230906 -27.1723268519 c 0
 33.5607237192 -24.5353894952 22.9634018377 -22.7992459786 14.8311453095 -21.6984418242 c 0
 4.37596467989 -20.2832004048 -1.26422135332 -19.9606097029 -1.26422135332 -19.9606097029 c 2
 -5.95620070074 -19.6673610281 -10.5642782291 -17.7299764352 -14.1471053689 -14.1483041828 c 0
 -21.9534474131 -6.34447843235 -21.9554903247 6.32899852715 -14.1516645745 14.135340571 c 0
 -10.5683435528 17.7198170116 -5.95829746848 19.6588225198 -1.26417549679 19.9522051443 c 2
 -1.26417549679 19.9522051443 1.00630430512 20.089342004 6.0534528137 20.6304661336 c 0
 12.1219427708 21.2810921932 21.5289498822 22.4886073536 32.6032345366 24.5712155726 c 0
 48.5478016526 27.5697195448 67.9506402789 32.4247660631 85.6402725312 39.7493794176 c 0
 96.2492320181 44.1421517051 106.190208151 49.4090899491 114.404581622 55.4094330709 c 0
 121.718535625 60.7520479088 127.597954496 66.6073726388 131.80320699 72.8725417849 c 0
 134.728618756 77.2309482211 136.888248706 81.8045711309 138.273486042 86.8268681332 c 0
 139.38244132 90.8474807949 140 95.1845253847 140 100 c 0
 140 104.815474615 139.38244132 109.152519205 138.273486042 113.173131867 c 0
 136.888248706 118.195428869 134.728618756 122.769051779 131.80320699 127.127458215 c 0
 127.597954496 133.392627361 121.718535625 139.247952091 114.404581622 144.590566929 c 0
 106.190208151 150.590910051 96.2492320181 155.857848295 85.6402725312 160.250620582 c 0
 72.3801620567 165.741135076 58.1417999234 169.861571076 45.1292230906 172.827673148 c 0
 33.5607237192 175.464610505 22.9634018377 177.200754021 14.8311453095 178.301558176 c 0
 4.37596467989 179.716799595 -1.26422135332 180.039390297 -1.26422135332 180.039390297 c 2
 -6.33236128195 180.356149005 -11.2814358603 182.588839701 -14.92576456 186.670770492 c 0
 -22.2744846372 194.901906931 -21.5528697064 207.555421735 -13.3153224992 214.909865316 c 0
 -9.23021251534 218.557032384 -4.05894598693 220.220476409 1.01279655112 219.96688928 c 0
 1.48419410403 219.943319403 21.1187059115 218.963882112 48.3907361675 214.86090256 c 0
 70.2177369184 211.577108251 96.9242323096 206.327739441 122.883984973 197.728571371 c 0
 132.505387538 194.541481771 142.034658758 190.887720848 151.207652736 186.646102293 c 0
 158.546433713 183.252629055 165.660428405 179.482191997 172.408678352 175.237245064 c 0
 179.155833579 170.992986757 185.54552878 166.271246588 191.385101594 160.935853706 c 0
 196.055358938 156.668819355 200.375856761 152.003501795 204.186276743 146.883249945 c 0
 208.471096188 141.125523815 212.105319312 134.785483132 214.79433906 127.904953854 c 0
 218.157070322 119.300565235 220 109.900524079 220 100 c 0
 220 90.0994759208 218.157070322 80.6994347651 214.79433906 72.0950461464 c 0
 212.105319312 65.2145168678 208.471096188 58.8744761846 204.186276743 53.1167500554 c 0
 200.375856761 47.9964982052 196.055358938 43.331180645 191.385101594 39.0641462937 c 0
 185.54552878 33.7287534119 179.155833579 29.007013243 172.408678352 24.7627549365 c 0
 165.660428405 20.5178080028 158.546433713 16.7473709448 151.207652736 13.3538977075 c 0
 142.034658758 9.1122791515 132.505387538 5.45851822874 122.883984973 2.27142862904 c 0
 96.9242323096 -6.32773944076 70.2177369184 -11.5771082509 48.3907361675 -14.8609025603 c 0
 21.1206265838 -18.9635931539 1.4830933882 -19.9512336275 1.01324328237 -19.9747261284 c 1
 1.0132434765 19.9747261187 l 1
EndSplineSet
Fore
SplineSet
0 20 m 1,0,1
 -8 20 -8 20 -14 14 c 129,-1,2
 -20 8 -20 8 -20 0 c 129,-1,3
 -20 -8 -20 -8 -14 -14 c 129,-1,4
 -8 -20 -8 -20 0 -20 c 1,5,6
 62 -26 62 -26 101 -47 c 129,-1,7
 140 -68 140 -68 140 -100 c 129,-1,8
 140 -132 140 -132 101 -153 c 129,-1,9
 62 -174 62 -174 0 -180 c 1,10,11
 -8 -180 -8 -180 -14 -186 c 129,-1,12
 -20 -192 -20 -192 -20 -200 c 129,-1,13
 -20 -208 -20 -208 -14 -214 c 129,-1,14
 -8 -220 -8 -220 0 -220 c 1,15,16
 2 -220 2 -220 14 -219 c 1,17,18
 115 -209 115 -209 167.5 -178 c 129,-1,19
 220 -147 220 -147 220 -100 c 1,20,21
 220 -33 220 -33 116 0 c 1,22,23
 220 33 220 33 220 100 c 1,24,25
 220 147 220 147 167.5 178 c 129,-1,26
 115 209 115 209 14 219 c 1,27,28
 2 220 2 220 0 220 c 1,29,30
 -8 220 -8 220 -14 214 c 129,-1,31
 -20 208 -20 208 -20 200 c 129,-1,32
 -20 192 -20 192 -14 186 c 129,-1,33
 -8 180 -8 180 0 180 c 1,34,35
 62 174 62 174 101 153 c 129,-1,36
 140 132 140 132 140 100 c 129,-1,37
 140 68 140 68 101 47 c 129,-1,38
 62 26 62 26 0 20 c 1,0,1
EndSplineSet
EndChar

StartChar: eyebrow.5
Encoding: 91 -1 69
Width: 360
GlyphClass: 5
Flags: W
LayerCount: 2
Back
SplineSet
7.87551049297 -39.2235037682 m 5
 7.87551049297 -39.2235037682 7.87800092947 -39.2359072366 7.81626095955 -39.2353536749 c 4
 5.33104898884 -39.7452976235 2.69710813492 -40.0125262423 0.00124521824917 -40.0125262423 c 4
 -22.0788453726 -40.0125262423 -40.0050792899 -22.0862923251 -40.0050792899 -0.00620173419014 c 4
 -40.0050792899 19.37802594 -26.1890144873 35.5608029778 -7.87551049297 39.2235037682 c 4
 -6.81086651644 39.436432563 1.27570890241 41.0123185589 14.6932116026 42.382616707 c 4
 25.428113285 43.4789470916 39.5765975806 44.4444444444 56.2962962963 44.4444444444 c 4
 74.3574705678 44.4444444444 95.37951771 43.3196637833 118.267393906 39.9624981752 c 4
 136.576757511 37.2769031782 156.085446141 33.1606819959 176.199457827 27.0078160757 c 4
 212.381330619 15.9397996355 250.632993404 -1.78587133285 286.694634931 -29.5764941611 c 4
 309.861123741 -47.4295681068 332.046194793 -69.4031658642 352.019017504 -96.033596145 c 4
 357.029447922 -102.714170036 359.999013614 -111.011550957 359.999013614 -119.997037942 c 4
 359.999013614 -142.070909448 342.077828804 -159.992094258 320.003957298 -159.992094258 c 4
 306.915572776 -159.992094258 295.287159282 -153.691495993 288.026927398 -144.027663724 c 4
 287.988897092 -143.960479739 287.980982496 -143.966403855 287.980982496 -143.966403855 c 6
 272.398249651 -123.189426728 255.51610534 -106.534766598 237.92457962 -92.9779944839 c 4
 210.584865211 -71.9088567743 181.343855557 -58.2415415033 152.795568762 -49.5086351276 c 4
 136.948380679 -44.6609883723 121.348496961 -41.354494232 106.577126439 -39.187847721 c 4
 88.1140849734 -36.479711444 70.9537116707 -35.5555555556 56.2962962963 -35.5555555556 c 4
 42.7279291683 -35.5555555556 31.2705606977 -36.3458881067 22.9026833321 -37.2004798376 c 4
 13.6042950252 -38.1501024732 8.1214394351 -39.1775983854 7.76606816477 -39.2452598882 c 4
 7.63269072553 -39.2706545072 7.87551049297 -39.2235037682 7.87551049297 -39.2235037682 c 5
EndSplineSet
Fore
SplineSet
7.87551049297 -39.2235037682 m 0,0,1
 4.02871024366 -40.0125262423 4.02871024366 -40.0125262423 0.00124521824917 -40.0125262423 c 0,2,3
 -16.5588227249 -40.0125262423 -16.5588227249 -40.0125262423 -28.2819510074 -28.2893979598 c 128,-1,4
 -40.0050792899 -16.5662696774 -40.0050792899 -16.5662696774 -40.0050792899 -0.00620173419014 c 0,5,6
 -40.0050792899 14.4119657507 -40.0050792899 14.4119657507 -30.8675000189 25.4322937371 c 128,-1,7
 -21.7299207479 36.4526217236 -21.7299207479 36.4526217236 -7.87551049297 39.2235037682 c 0,8,9
 0.852411735773 40.9690882099 0.852411735773 40.9690882099 14.6932116026 42.382616707 c 0,10,11
 34.8819415319 44.4444444444 34.8819415319 44.4444444444 56.2962962963 44.4444444444 c 0,12,13
 87.71119165 44.4444444444 87.71119165 44.4444444444 118.267393906 39.9624981752 c 0,14,15
 148.205123228 35.5712687573 148.205123228 35.5712687573 176.199457827 27.0078160757 c 0,16,17
 237.669892158 8.20404155344 237.669892158 8.20404155344 286.694634931 -29.5764941611 c 0,18,19
 323.379191741 -57.8471617943 323.379191741 -57.8471617943 352.019017504 -96.033596145 c 0,20,21
 359.999013614 -106.673590958 359.999013614 -106.673590958 359.999013614 -119.997037942 c 0,22,23
 359.999013614 -136.552441572 359.999013614 -136.552441572 348.279187271 -148.272267915 c 128,-1,24
 336.559360928 -159.992094258 336.559360928 -159.992094258 320.003957298 -159.992094258 c 0,25,26
 300.020664908 -159.992094258 300.020664908 -159.992094258 288.026927398 -144.027663724 c 0,27,28
 265.921219782 -114.553386903 265.921219782 -114.553386903 237.92457962 -92.9779944839 c 0,29,30
 200.42331731 -64.0779391263 200.42331731 -64.0779391263 152.795568762 -49.5086351276 c 0,31,32
 130.552715898 -42.7045577765 130.552715898 -42.7045577765 106.577126439 -39.187847721 c 0,33,34
 81.8135421851 -35.5555555556 81.8135421851 -35.5555555556 56.2962962963 -35.5555555556 c 0,35,36
 39.0092335938 -35.5555555556 39.0092335938 -35.5555555556 22.9026833321 -37.2004798376 c 0,37,38
 13.4182560107 -38.1691022023 13.4182560107 -38.1691022023 7.87551049297 -39.2235037682 c 0,0,1
EndSplineSet
EndChar

StartChar: halo.front
Encoding: 164 -1 70
Width: 360
Flags: W
LayerCount: 2
Back
SplineSet
0 -180 m 5
 0 -279.411132812 80.5888671875 -360 180 -360 c 5
 279.411132812 -360 360 -279.411132812 360 -180 c 5
 360 -80.5888671875 279.411132812 0 180 0 c 5
 80.5888671875 0 0 -80.5888671875 0 -180 c 5
273.349609375 -226.290039062 m 5
 271.5703125 -224.6796875 268.91015625 -224.580078125 267 -226 c 5
 266.610351562 -226.290039062 227.780273438 -255 180 -255 c 5
 132.33984375 -255 93.3798828125 -226.290039062 93 -226 c 5
 91.08984375 -224.580078125 88.4296875 -224.700195312 86.650390625 -226.290039062 c 5
 84.8798828125 -227.889648438 84.48046875 -230.530273438 85.7099609375 -232.5703125 c 5
 87 -234.719726562 117.879882812 -285 180 -285 c 5
 242.120117188 -285 273.009765625 -234.719726562 274.290039062 -232.5703125 c 5
 275.51953125 -230.51953125 275.129882812 -227.889648438 273.349609375 -226.290039062 c 5
260 -190 m 5
 255.809570312 -190 251.91015625 -187.349609375 250.51953125 -183.16015625 c 5
 248.490234375 -177.169921875 240.330078125 -160 230 -160 c 5
 219.379882812 -160 211.110351562 -178.26953125 209.48046875 -183.16015625 c 5
 207.73046875 -188.389648438 202.120117188 -191.240234375 196.830078125 -189.48046875 c 5
 191.599609375 -187.740234375 188.759765625 -182.080078125 190.509765625 -176.830078125 c 5
 191.76953125 -173.0703125 203.549804688 -140 230 -140 c 5
 256.450195312 -140 268.23046875 -173.0703125 269.48046875 -176.83984375 c 5
 271.23046875 -182.080078125 268.400390625 -187.75 263.16015625 -189.490234375 c 5
 262.110351562 -189.830078125 261.040039062 -190 260 -190 c 5
160 -190 m 5
 155.809570312 -190 151.91015625 -187.349609375 150.509765625 -183.16015625 c 5
 148.48046875 -177.169921875 140.33984375 -160 130 -160 c 5
 119.379882812 -160 111.120117188 -178.26953125 109.490234375 -183.16015625 c 5
 107.740234375 -188.389648438 102.110351562 -191.240234375 96.83984375 -189.48046875 c 5
 91.599609375 -187.740234375 88.76953125 -182.080078125 90.51953125 -176.830078125 c 5
 91.76953125 -173.0703125 103.549804688 -140 130 -140 c 5
 156.450195312 -140 168.23046875 -173.0703125 169.490234375 -176.83984375 c 5
 171.240234375 -182.080078125 168.41015625 -187.75 163.169921875 -189.490234375 c 5
 162.110351562 -189.830078125 161.040039062 -190 160 -190 c 5
331.75 -83.16015625 m 5
 331.75 -83.16015625 241.330078125 -84.76953125 180 -84.76953125 c 5
 140.950195312 -84.76953125 27.9404296875 -83.58984375 27.9404296875 -83.58984375 c 5
 22.73046875 -92.349609375 l 21
 53.16015625 -110.91015625 113.370117188 -121.51953125 180 -121.51953125 c 5
 245.959960938 -121.51953125 305.759765625 -111.120117188 336.51953125 -92.919921875 c 13
 337.299804688 -92.4501953125 l 5
 337.299804688 -92.4501953125 333.559570312 -85.8095703125 331.75 -83.16015625 c 5
237.76953125 -3.4501953125 m 5
 225.650390625 -2.509765625 213.040039062 -1.8603515625 200.040039062 -1.5498046875 c 5
 193.4296875 -1.3896484375 186.759765625 -1.2900390625 180 -1.2900390625 c 5
 173.280273438 -1.2900390625 166.639648438 -1.3896484375 160.0703125 -1.5400390625 c 5
 147.049804688 -1.849609375 134.4296875 -2.5 122.299804688 -3.4404296875 c 5
 53.400390625 -8.7998046875 1.6904296875 -24.509765625 1.6904296875 -52.8701171875 c 5
 1.6904296875 -88.75 84.330078125 -110.580078125 180 -110.580078125 c 5
 275.669921875 -110.580078125 358.309570312 -88.75 358.309570312 -52.8701171875 c 5
 358.309570312 -24.51953125 306.629882812 -8.8203125 237.76953125 -3.4501953125 c 5
180 -73.830078125 m 5
 111.389648438 -73.830078125 50.900390625 -65.5 50.900390625 -46.4697265625 c 5
 50.900390625 -41.1103515625 55.83984375 -36.240234375 64.2900390625 -31.98046875 c 5
 75.8203125 -26.169921875 94.0703125 -21.5400390625 116.1796875 -18.490234375 c 5
 135.290039062 -15.8701171875 157.16015625 -14.3896484375 180 -14.3896484375 c 5
 202.91015625 -14.3896484375 224.849609375 -15.8701171875 244 -18.51953125 c 5
 266.419921875 -21.6201171875 284.860351562 -26.349609375 296.3203125 -32.2900390625 c 5
 304.389648438 -36.4697265625 309.099609375 -41.23046875 309.099609375 -46.4697265625 c 5
 309.099609375 -65.5 248.610351562 -73.830078125 180 -73.830078125 c 5
244 -18.5302734375 m 21
 266.419921875 -21.6298828125 284.860351562 -26.3603515625 296.3203125 -32.2998046875 c 13
 296.940429688 -32.4697265625 l 5
 274.08984375 -15.73046875 251.240234375 -6.8701171875 237.76953125 -3.4501953125 c 5
 225.650390625 -2.509765625 213.040039062 -1.8603515625 200.040039062 -1.5498046875 c 5
 200.219726562 -1.6201171875 l 5
 244 -18.5302734375 l 21
64.2900390625 -31.990234375 m 5
 75.8203125 -26.1796875 94.0703125 -21.5498046875 116.1796875 -18.5 c 13
 159.83984375 -1.6201171875 l 5
 160.0703125 -1.5400390625 l 5
 147.049804688 -1.849609375 134.4296875 -2.5 122.299804688 -3.4404296875 c 5
 108.830078125 -6.8603515625 85.9697265625 -15.7099609375 63.1103515625 -32.4599609375 c 5
 64.2900390625 -31.990234375 l 5
284.719726562 -33.75 m 5
 278.120117188 -29.3203125 271.259765625 -24.650390625 264.709960938 -21.150390625 c 5
 239.469726562 -7.650390625 210.629882812 0 180 0 c 5
 150.709960938 0 123.049804688 -7 98.599609375 -19.41015625 c 5
 87.7099609375 -24.9404296875 79.7900390625 -29.400390625 76.900390625 -33.75 c 5
 284.719726562 -33.75 l 5
EndSplineSet
Fore
SplineSet
180 -74 m 129,-1,17
 125 -74 125 -74 88 -67 c 129,-1,21
 51 -60 51 -60 51 -46 c 1,19,20
 51 -39 51 -39 64 -32 c 5,17,18
 89 -13 89 -13 123 -3 c 5,15,16
 2 -14 2 -14 2 -53 c 1,13,14
 2 -78 2 -78 53.5 -94.5 c 129,-1,12
 105 -111 105 -111 180 -111 c 129,-1,0
 255 -111 255 -111 306.5 -94.5 c 129,-1,1
 358 -78 358 -78 358 -53 c 1,2,3
 358 -14 358 -14 237 -3 c 1,4,5
 271 -13 271 -13 296 -32 c 1,6,7
 309 -39 309 -39 309 -46 c 1,8,9
 309 -60 309 -60 272 -67 c 129,-1,10
 235 -74 235 -74 180 -74 c 129,-1,17
EndSplineSet
EndChar

StartChar: halo.back
Encoding: 165 -1 71
Width: 360
Flags: W
LayerCount: 2
Back
SplineSet
0 -180 m 1
 0 -279.411132812 80.5888671875 -360 180 -360 c 1
 279.411132812 -360 360 -279.411132812 360 -180 c 1
 360 -80.5888671875 279.411132812 0 180 0 c 1
 80.5888671875 0 0 -80.5888671875 0 -180 c 1
273.349609375 -226.290039062 m 1
 271.5703125 -224.6796875 268.91015625 -224.580078125 267 -226 c 1
 266.610351562 -226.290039062 227.780273438 -255 180 -255 c 1
 132.33984375 -255 93.3798828125 -226.290039062 93 -226 c 1
 91.08984375 -224.580078125 88.4296875 -224.700195312 86.650390625 -226.290039062 c 1
 84.8798828125 -227.889648438 84.48046875 -230.530273438 85.7099609375 -232.5703125 c 1
 87 -234.719726562 117.879882812 -285 180 -285 c 1
 242.120117188 -285 273.009765625 -234.719726562 274.290039062 -232.5703125 c 1
 275.51953125 -230.51953125 275.129882812 -227.889648438 273.349609375 -226.290039062 c 1
260 -190 m 1
 255.809570312 -190 251.91015625 -187.349609375 250.51953125 -183.16015625 c 1
 248.490234375 -177.169921875 240.330078125 -160 230 -160 c 1
 219.379882812 -160 211.110351562 -178.26953125 209.48046875 -183.16015625 c 1
 207.73046875 -188.389648438 202.120117188 -191.240234375 196.830078125 -189.48046875 c 1
 191.599609375 -187.740234375 188.759765625 -182.080078125 190.509765625 -176.830078125 c 1
 191.76953125 -173.0703125 203.549804688 -140 230 -140 c 1
 256.450195312 -140 268.23046875 -173.0703125 269.48046875 -176.83984375 c 1
 271.23046875 -182.080078125 268.400390625 -187.75 263.16015625 -189.490234375 c 1
 262.110351562 -189.830078125 261.040039062 -190 260 -190 c 1
160 -190 m 1
 155.809570312 -190 151.91015625 -187.349609375 150.509765625 -183.16015625 c 1
 148.48046875 -177.169921875 140.33984375 -160 130 -160 c 1
 119.379882812 -160 111.120117188 -178.26953125 109.490234375 -183.16015625 c 1
 107.740234375 -188.389648438 102.110351562 -191.240234375 96.83984375 -189.48046875 c 1
 91.599609375 -187.740234375 88.76953125 -182.080078125 90.51953125 -176.830078125 c 1
 91.76953125 -173.0703125 103.549804688 -140 130 -140 c 1
 156.450195312 -140 168.23046875 -173.0703125 169.490234375 -176.83984375 c 1
 171.240234375 -182.080078125 168.41015625 -187.75 163.169921875 -189.490234375 c 1
 162.110351562 -189.830078125 161.040039062 -190 160 -190 c 1
331.75 -83.16015625 m 1
 331.75 -83.16015625 241.330078125 -84.76953125 180 -84.76953125 c 1
 140.950195312 -84.76953125 27.9404296875 -83.58984375 27.9404296875 -83.58984375 c 1
 22.73046875 -92.349609375 l 17
 53.16015625 -110.91015625 113.370117188 -121.51953125 180 -121.51953125 c 1
 245.959960938 -121.51953125 305.759765625 -111.120117188 336.51953125 -92.919921875 c 9
 337.299804688 -92.4501953125 l 1
 337.299804688 -92.4501953125 333.559570312 -85.8095703125 331.75 -83.16015625 c 1
237.76953125 -3.4501953125 m 1
 225.650390625 -2.509765625 213.040039062 -1.8603515625 200.040039062 -1.5498046875 c 1
 193.4296875 -1.3896484375 186.759765625 -1.2900390625 180 -1.2900390625 c 1
 173.280273438 -1.2900390625 166.639648438 -1.3896484375 160.0703125 -1.5400390625 c 1
 147.049804688 -1.849609375 134.4296875 -2.5 122.299804688 -3.4404296875 c 1
 53.400390625 -8.7998046875 1.6904296875 -24.509765625 1.6904296875 -52.8701171875 c 1
 1.6904296875 -88.75 84.330078125 -110.580078125 180 -110.580078125 c 1
 275.669921875 -110.580078125 358.309570312 -88.75 358.309570312 -52.8701171875 c 1
 358.309570312 -24.51953125 306.629882812 -8.8203125 237.76953125 -3.4501953125 c 1
180 -73.830078125 m 1
 111.389648438 -73.830078125 50.900390625 -65.5 50.900390625 -46.4697265625 c 1
 50.900390625 -41.1103515625 55.83984375 -36.240234375 64.2900390625 -31.98046875 c 1
 75.8203125 -26.169921875 94.0703125 -21.5400390625 116.1796875 -18.490234375 c 1
 135.290039062 -15.8701171875 157.16015625 -14.3896484375 180 -14.3896484375 c 1
 202.91015625 -14.3896484375 224.849609375 -15.8701171875 244 -18.51953125 c 1
 266.419921875 -21.6201171875 284.860351562 -26.349609375 296.3203125 -32.2900390625 c 1
 304.389648438 -36.4697265625 309.099609375 -41.23046875 309.099609375 -46.4697265625 c 1
 309.099609375 -65.5 248.610351562 -73.830078125 180 -73.830078125 c 1
244 -18.5302734375 m 21
 266.419921875 -21.6298828125 284.860351562 -26.3603515625 296.3203125 -32.2998046875 c 13
 296.940429688 -32.4697265625 l 5
 274.08984375 -15.73046875 251.240234375 -6.8701171875 237.76953125 -3.4501953125 c 5
 225.650390625 -2.509765625 213.040039062 -1.8603515625 200.040039062 -1.5498046875 c 5
 200.219726562 -1.6201171875 l 5
 244 -18.5302734375 l 21
64.2900390625 -31.990234375 m 5
 75.8203125 -26.1796875 94.0703125 -21.5498046875 116.1796875 -18.5 c 13
 159.83984375 -1.6201171875 l 5
 160.0703125 -1.5400390625 l 5
 147.049804688 -1.849609375 134.4296875 -2.5 122.299804688 -3.4404296875 c 5
 108.830078125 -6.8603515625 85.9697265625 -15.7099609375 63.1103515625 -32.4599609375 c 5
 64.2900390625 -31.990234375 l 5
284.719726562 -33.75 m 1
 278.120117188 -29.3203125 271.259765625 -24.650390625 264.709960938 -21.150390625 c 1
 239.469726562 -7.650390625 210.629882812 0 180 0 c 1
 150.709960938 0 123.049804688 -7 98.599609375 -19.41015625 c 1
 87.7099609375 -24.9404296875 79.7900390625 -29.400390625 76.900390625 -33.75 c 1
 284.719726562 -33.75 l 1
EndSplineSet
Fore
SplineSet
180 -1 m 1,0,1
 135 -2 135 -2 116 -4 c 1,2,3
 64 -15 64 -15 64 -32 c 1,4,5
 97 -16 97 -16 180 -14 c 1,6,7
 262 -16 262 -16 296 -32 c 1,8,9
 296 -15 296 -15 244 -4 c 1,10,11
 225 -2 225 -2 180 -1 c 1,0,1
EndSplineSet
EndChar

StartChar: mouth.melting
Encoding: 166 -1 72
Width: 360
Flags: W
LayerCount: 2
Back
SplineSet
309.1171875 -199.60546875 m 0
 278.95703125 -199.60546875 248.95703125 -196.484375 219.35546875 -190.24609375 c 0
 111.63671875 -167.40625 19.234375 -105.64453125 -34.1640625 -20.8046875 c 0
 -37.8671875 -14.7421875 -40 -7.6171875 -40 0 c 0
 -40 22.078125 -22.078125 40 0 40 c 0
 14.05859375 40 26.3828125 32.81640625 33.515625 21.8359375 c 4
 74.8359375 -43.84375 150.515625 -93.84375 235.9140625 -111.96484375 c 0
 306.59765625 -126.96484375 416.1953125 -127.68359375 537.35546875 -46.28515625 c 0
 543.7265625 -42.00390625 551.390625 -39.50390625 559.63671875 -39.50390625 c 0
 581.71484375 -39.50390625 599.640625 -57.4296875 599.640625 -79.5078125 c 0
 599.640625 -93.34375 592.68359375 -105.5 581.99609375 -112.68359375 c 0
 496.8359375 -169.8828125 402.4375 -199.60546875 309.1171875 -199.60546875 c 0
EndSplineSet
Fore
SplineSet
34 21 m 1,0,1
 31 26 31 26 24 32 c 1,2,3
 13 40 13 40 0 40 c 257,4,5
 -16 40 -16 40 -28 28.5 c 129,-1,6
 -40 17 -40 17 -40 0 c 1,7,8
 -40 -11 -40 -11 -34 -21 c 1,9,10
 6 -84 6 -84 72 -128.5 c 129,-1,11
 138 -173 138 -173 219 -190 c 1,12,13
 265 -200 265 -200 309 -200 c 1,14,15
 450 -200 450 -200 582 -113 c 1,16,17
 600 -101 600 -101 600 -80 c 1,18,19
 600 -63 600 -63 588.5 -51.5 c 129,-1,20
 577 -40 577 -40 560 -40 c 1,21,22
 547 -40 547 -40 538 -46 c 1,23,24
 426 -120 426 -120 311 -120 c 1,25,26
 273 -120 273 -120 236 -112 c 1,27,28
 172 -98 172 -98 118.5 -63 c 129,-1,29
 65 -28 65 -28 34 21 c 1,0,1
EndSplineSet
EndChar

StartChar: z
Encoding: 122 -1 73
Width: 360
Flags: W
LayerCount: 2
Back
SplineSet
0 -180 m 0
 0 -279.411132812 80.5888671875 -360 180 -360 c 0
 279.411132812 -360 360 -279.411132812 360 -180 c 0
 360 -80.5888671875 279.411132812 0 180 0 c 0
 80.5888671875 0 0 -80.5888671875 0 -180 c 0
69.990234375 -170 m 0
 68.490234375 -170 66.9599609375 -169.66015625 65.5302734375 -168.950195312 c 0
 60.58984375 -166.48046875 58.58984375 -160.469726562 61.0595703125 -155.530273438 c 0
 61.580078125 -154.48046875 74.240234375 -130 110 -130 c 0
 145.76953125 -130 158.419921875 -154.490234375 158.940429688 -155.530273438 c 0
 161.41015625 -160.469726562 159.400390625 -166.48046875 154.469726562 -168.950195312 c 0
 149.559570312 -171.419921875 143.620117188 -169.440429688 141.110351562 -164.58984375 c 0
 140.669921875 -163.780273438 132.799804688 -150 110 -150 c 0
 86.830078125 -150 79.009765625 -164.330078125 78.9404296875 -164.469726562 c 0
 77.1904296875 -167.98046875 73.66015625 -170 69.990234375 -170 c 0
290 -170 m 0
 291.5 -170 293.030273438 -169.66015625 294.459960938 -168.950195312 c 0
 299.400390625 -166.48046875 301.400390625 -160.469726562 298.9296875 -155.530273438 c 0
 298.41015625 -154.48046875 285.75 -130 249.990234375 -130 c 0
 214.219726562 -130 201.5703125 -154.490234375 201.049804688 -155.530273438 c 0
 198.580078125 -160.469726562 200.58984375 -166.48046875 205.51953125 -168.950195312 c 0
 210.4296875 -171.419921875 216.370117188 -169.440429688 218.879882812 -164.58984375 c 0
 219.3203125 -163.780273438 227.190429688 -150 249.990234375 -150 c 0
 273.16015625 -150 280.98046875 -164.330078125 281.049804688 -164.469726562 c 0
 282.799804688 -167.98046875 286.330078125 -170 290 -170 c 0
295.030273438 -235.200195312 m 0
 298.259765625 -227.709960938 299.639648438 -222.629882812 299.690429688 -222.4296875 c 0
 301.030273438 -217.08984375 297.790039062 -211.6796875 292.440429688 -210.330078125 c 0
 287.080078125 -208.969726562 281.669921875 -212.209960938 280.290039062 -217.559570312 c 0
 279.549804688 -220.509765625 260.809570312 -290 180 -290 c 0
 99.1904296875 -290 80.4501953125 -220.509765625 79.7001953125 -217.549804688 c 0
 78.3203125 -212.209960938 72.91015625 -208.969726562 67.5498046875 -210.3203125 c 0
 62.2099609375 -211.669921875 58.9697265625 -217.080078125 60.2998046875 -222.419921875 c 0
 60.51953125 -223.299804688 83.3095703125 -310 180 -310 c 0
 196.5 -310 210.700195312 -307.33984375 223.150390625 -303.150390625 c 0
 266.450195312 -288.5703125 286.889648438 -254.049804688 295.030273438 -235.200195312 c 0
324.0703125 -266.809570312 m 2
 294.509765625 -236.299804688 l 1
 294.509765625 -236.299804688 287.709960938 -231.919921875 281.780273438 -241.98046875 c 0
 273.98046875 -255.200195312 261.030273438 -271.330078125 242.440429688 -283.690429688 c 0
 234.629882812 -288.879882812 221.049804688 -295.580078125 215.469726562 -296.870117188 c 0
 208.120117188 -298.559570312 211.58984375 -306.509765625 211.58984375 -306.509765625 c 1
 217.440429688 -305.240234375 222.099609375 -303.5 222.099609375 -303.5 c 1
 225.059570312 -306.459960938 l 1
 252.3203125 -333.719726562 l 2
 269.599609375 -351 302.3203125 -353.719726562 322.3203125 -333.719726562 c 0
 342.3203125 -313.719726562 341.360351562 -284.099609375 324.0703125 -266.809570312 c 2
299.150390625 -310.740234375 m 0
 301.280273438 -308.610351562 301.280273438 -305.16015625 299.150390625 -303.030273438 c 2
 262.860351562 -266.740234375 l 1
 254.900390625 -274.219726562 l 1
 291.4296875 -310.75 l 2
 293.559570312 -312.870117188 297.01953125 -312.870117188 299.150390625 -310.740234375 c 0
EndSplineSet
Fore
Refer: 84 -1 N 1 0 0 1 0 0 2
Refer: 83 -1 N 1 0 0 1 0 0 2
Refer: 7 -1 N 0.25 0 0 0.25 180 -300 2
Refer: 79 -1 N 0.25 0 0 0.25 250 -140 2
Refer: 79 -1 N 0.25 0 0 0.25 110 -140 2
EndChar

StartChar: braceleft
Encoding: 123 -1 74
Width: 360
Flags: W
LayerCount: 2
Back
SplineSet
360 -180 m 0
 360 -279.41015625 279.41015625 -360 180 -360 c 0
 80.599609375 -360 0 -279.41015625 0 -180 c 0
 0 -80.599609375 80.599609375 0 180 0 c 0
 279.41015625 0 360 -80.599609375 360 -180 c 1024
90 -145 m 0
 90 -164.330078125 101.193359375 -180 115 -180 c 0
 128.806640625 -180 140 -164.330078125 140 -145 c 0
 140 -125.669921875 128.806640625 -110 115 -110 c 0
 101.193359375 -110 90 -125.669921875 90 -145 c 0
220 -145 m 0
 220 -164.330078125 231.193359375 -180 245 -180 c 0
 258.806640625 -180 270 -164.330078125 270 -145 c 0
 270 -125.669921875 258.806640625 -110 245 -110 c 0
 231.193359375 -110 220 -125.669921875 220 -145 c 0
70 -212.620117188 m 1
 70 -252.259765625 115.959960938 -302.620117188 180 -302.620117188 c 0
 244.040039062 -302.620117188 290 -252.620117188 290 -212.620117188 c 1
 290 -212.620117188 186.669921875 -240.1796875 70 -212.620117188 c 1
185.450195312 -236.040039062 m 2
 174.540039062 -235.990234375 l 2
 142.379882812 -235.25 120 -230.030273438 120 -230.030273438 c 1
 120 -299.639648438 l 2
 120 -329.639648438 140 -359.639648438 180 -359.639648438 c 0
 220 -359.639648438 240 -329.639648438 240 -299.639648438 c 2
 240 -230.440429688 l 1
 220.780273438 -234.379882812 202.129882812 -235.860351562 185.450195312 -236.040039062 c 2
180 -318.4296875 m 0
 183.009765625 -318.4296875 185.450195312 -315.990234375 185.450195312 -312.98046875 c 2
 185.450195312 -236.040039062 l 1
 174.540039062 -235.990234375 l 1
 174.540039062 -312.98046875 l 2
 174.549804688 -315.990234375 176.990234375 -318.4296875 180 -318.4296875 c 0
EndSplineSet
Fore
Refer: 82 -1 N 0.25 0 0 0.25 180 -359.635 2
Refer: 81 -1 N 0.25 0 0 0.25 180 -359.635 2
Refer: 80 -1 N 0.25 0 0 0.25 180 -302.625 2
Refer: 4 -1 S 0.15625 0 0 0.21875 245 -145 2
Refer: 4 -1 S 0.15625 0 0 0.21875 115 -145 2
EndChar

StartChar: bar
Encoding: 124 -1 75
Width: 360
Flags: W
LayerCount: 2
Back
SplineSet
360 -180 m 0
 360 -279.41015625 279.41015625 -360 180 -360 c 0
 80.599609375 -360 0 -279.41015625 0 -180 c 0
 0 -80.599609375 80.599609375 0 180 0 c 0
 279.41015625 0 360 -80.599609375 360 -180 c 1024
154.5703125 -158.150390625 m 0
 153.969726562 -156.799804688 139.580078125 -125.1796875 110 -125.1796875 c 0
 80.4296875 -125.1796875 66.0302734375 -156.799804688 65.4296875 -158.150390625 c 0
 64.509765625 -160.219726562 65.1103515625 -162.639648438 66.8701171875 -164.059570312 c 0
 68.6396484375 -165.490234375 71.1396484375 -165.530273438 72.9697265625 -164.200195312 c 0
 73.099609375 -164.110351562 85.58984375 -155.1796875 110 -155.1796875 c 0
 134.259765625 -155.1796875 146.740234375 -163.990234375 147.01953125 -164.190429688 c 0
 147.900390625 -164.849609375 148.950195312 -165.1796875 150 -165.1796875 c 0
 151.099609375 -165.1796875 152.209960938 -164.809570312 153.110351562 -164.08984375 c 0
 154.900390625 -162.669921875 155.490234375 -160.23046875 154.5703125 -158.150390625 c 0
310 -135 m 0
 310 -170.900390625 280.900390625 -200 245 -200 c 0
 209.099609375 -200 180 -170.900390625 180 -135 c 0
 180 -99.099609375 209.099609375 -70 245 -70 c 0
 280.900390625 -70 310 -99.099609375 310 -135 c 0
220 -135 m 0
 220 -148.806640625 231.193359375 -160 245 -160 c 0
 258.806640625 -160 270 -148.806640625 270 -135 c 0
 270 -121.193359375 258.806640625 -110 245 -110 c 0
 231.193359375 -110 220 -121.193359375 220 -135 c 0
70 -212.620117188 m 1
 70 -252.259765625 115.959960938 -302.620117188 180 -302.620117188 c 0
 244.040039062 -302.620117188 290 -252.620117188 290 -212.620117188 c 1
 290 -212.620117188 186.669921875 -240.1796875 70 -212.620117188 c 1
185.450195312 -236.040039062 m 2
 174.540039062 -235.990234375 l 2
 142.379882812 -235.25 120 -230.030273438 120 -230.030273438 c 1
 120 -299.639648438 l 2
 120 -329.639648438 140 -359.639648438 180 -359.639648438 c 0
 220 -359.639648438 240 -329.639648438 240 -299.639648438 c 2
 240 -230.440429688 l 1
 220.780273438 -234.379882812 202.129882812 -235.860351562 185.450195312 -236.040039062 c 2
180 -318.4296875 m 0
 183.009765625 -318.4296875 185.450195312 -315.990234375 185.450195312 -312.98046875 c 2
 185.450195312 -236.040039062 l 1
 174.540039062 -235.990234375 l 1
 174.540039062 -312.98046875 l 2
 174.549804688 -315.990234375 176.990234375 -318.4296875 180 -318.4296875 c 0
EndSplineSet
Fore
Refer: 82 -1 N 0.25 0 0 0.25 180 -359.635 2
Refer: 81 -1 N 0.25 0 0 0.25 180 -359.635 2
Refer: 80 -1 N 0.25 0 0 0.25 180 -302.625 2
Refer: 14 -1 N 0.25 0 0 -0.25 110 -125.18 2
Refer: 4 -1 S 0.40625 0 0 0.40625 245 -135 2
Refer: 4 -1 S 0.15625 0 0 0.15625 245 -135 2
EndChar

StartChar: braceright
Encoding: 125 -1 76
Width: 360
Flags: W
LayerCount: 2
Back
SplineSet
355.969726562 -142.3203125 m 0
 376.799804688 -239.51953125 314.889648438 -335.209960938 217.690429688 -356.040039062 c 0
 120.490234375 -376.870117188 24.7998046875 -314.959960938 3.9697265625 -217.759765625 c 0
 -16.8603515625 -120.559570312 45.0595703125 -24.8701171875 142.25 -4.0400390625 c 0
 239.450195312 16.7998046875 335.139648438 -45.1201171875 355.969726562 -142.3203125 c 1024
292.83984375 -90.1201171875 m 0
 300.629882812 -126.48046875 277.469726562 -162.280273438 241.110351562 -170.0703125 c 0
 204.75 -177.860351562 168.950195312 -154.700195312 161.150390625 -118.33984375 c 0
 153.360351562 -81.98046875 176.51953125 -46.1796875 212.879882812 -38.3896484375 c 0
 249.240234375 -30.599609375 285.049804688 -53.75 292.83984375 -90.1201171875 c 0
202.690429688 -92.91015625 m 0
 202.690429688 -104.16015625 211.809570312 -113.280273438 223.059570312 -113.280273438 c 0
 234.309570312 -113.280273438 243.4296875 -104.16015625 243.4296875 -92.91015625 c 0
 243.4296875 -81.66015625 234.309570312 -72.5400390625 223.059570312 -72.5400390625 c 0
 211.809570312 -72.5400390625 202.690429688 -81.66015625 202.690429688 -92.91015625 c 0
140.879882812 -142.8203125 m 0
 145.440429688 -164.080078125 131.889648438 -185.009765625 110.629882812 -189.5703125 c 0
 89.3701171875 -194.129882812 68.4404296875 -180.580078125 63.8798828125 -159.3203125 c 0
 59.3203125 -138.059570312 72.8701171875 -117.129882812 94.1298828125 -112.5703125 c 0
 115.389648438 -108.009765625 136.3203125 -121.559570312 140.879882812 -142.8203125 c 0
145.2890625 -112.700195312 m 0
 147.536132812 -123.1875 157.860351562 -129.8671875 168.34765625 -127.620117188 c 0
 178.834960938 -125.373046875 185.514648438 -115.048828125 183.266601562 -104.561523438 c 0
 181.01953125 -94.07421875 170.696289062 -87.39453125 160.208984375 -89.642578125 c 0
 149.721679688 -91.8896484375 143.041992188 -102.212890625 145.2890625 -112.700195312 c 0
186.25 -209.370117188 m 0
 150.8203125 -216.959960938 126.440429688 -217.870117188 96.150390625 -218.450195312 c 0
 89.240234375 -218.599609375 76.599609375 -222.639648438 80.7900390625 -242.200195312 c 0
 89.169921875 -281.309570312 144.580078125 -320.5703125 207.209960938 -307.150390625 c 0
 269.830078125 -293.73046875 304.290039062 -235.209960938 295.91015625 -196.099609375 c 0
 291.719726562 -176.540039062 278.51953125 -178.01953125 272.16015625 -180.740234375 c 0
 244.299804688 -192.610351562 221.6796875 -201.780273438 186.25 -209.370117188 c 0
110 -240.040039062 m 5
 110 -300.040039062 l 6
 110 -330.040039062 130 -360.040039062 170 -360.040039062 c 4
 210 -360.040039062 230 -330.040039062 230 -300.040039062 c 6
 230 -240.040039062 l 5
 110 -240.040039062 l 5
170 -318.830078125 m 4
 173.009765625 -318.830078125 175.450195312 -316.389648438 175.450195312 -313.379882812 c 6
 175.450195312 -250.4296875 l 5
 164.540039062 -250.4296875 l 5
 164.540039062 -313.379882812 l 6
 164.549804688 -316.389648438 166.990234375 -318.830078125 170 -318.830078125 c 4
100.33984375 -238.009765625 m 2
 100.33984375 -238.009765625 131.76953125 -241.5 190.440429688 -228.9296875 c 0
 249.110351562 -216.360351562 276.349609375 -200.290039062 276.349609375 -200.290039062 c 1
 276.349609375 -200.290039062 265.1796875 -243.58984375 196.73046875 -258.259765625 c 0
 128.280273438 -272.9296875 100.33984375 -238.009765625 100.33984375 -238.009765625 c 2
EndSplineSet
Fore
Refer: 36 -1 N 0.244449 0.0523876 -0.0523876 0.244449 207.233 -307.107 2
Refer: 47 -1 N 0.244449 0.0523876 -0.0523876 0.244449 207.233 -307.107 2
Refer: 86 -1 N 1 0 0 1 0 0 2
Refer: 85 -1 N 1 0 0 1 0 0 2
Refer: 4 -1 N 0.121346 0 0 0.121346 102.377 -158.567 2
Refer: 4 -1 N 0.127298 0 0 0.127298 223.066 -92.9145 2
Refer: 4 -1 N 0.246087 0 0 0.246087 102.379 -151.067 2
Refer: 4 -1 N 0.420859 0 0 0.420859 226.994 -104.227 2
EndChar

StartChar: asciitilde
Encoding: 126 -1 77
Width: 360
Flags: W
LayerCount: 2
Back
SplineSet
360 -180 m 0
 360 -279.41015625 279.41015625 -360 180 -360 c 0
 80.599609375 -360 0 -279.41015625 0 -180 c 0
 0 -80.599609375 80.599609375 0 180 0 c 0
 279.41015625 0 360 -80.599609375 360 -180 c 1024
60.009765625 -200 m 0
 56.9697265625 -200 53.9697265625 -198.620117188 52 -196 c 0
 48.6796875 -191.58984375 49.580078125 -185.3203125 54 -182.009765625 c 0
 55.4296875 -180.940429688 83.509765625 -160.1796875 122.559570312 -152.6796875 c 1
 97.8095703125 -140.26953125 70.33984375 -140 69.990234375 -140 c 0
 64.4697265625 -139.98046875 60 -135.5 60.009765625 -129.98046875 c 0
 60.009765625 -124.469726562 64.48046875 -120 70 -120 c 0
 72.2099609375 -120 124.51953125 -120.379882812 157.0703125 -152.9296875 c 0
 159.9296875 -155.790039062 160.790039062 -160.08984375 159.240234375 -163.830078125 c 0
 157.690429688 -167.5703125 154.040039062 -170 150 -170 c 0
 103.870117188 -170 66.3701171875 -197.719726562 66 -198 c 0
 64.2001953125 -199.349609375 62.08984375 -200 60.009765625 -200 c 0
299.990234375 -199.990234375 m 0
 297.91015625 -199.990234375 295.809570312 -199.349609375 294.009765625 -198.009765625 c 0
 293.629882812 -197.719726562 255.900390625 -170 210 -170 c 0
 205.959960938 -170 202.299804688 -167.5703125 200.759765625 -163.830078125 c 0
 199.209960938 -160.08984375 200.0703125 -155.790039062 202.9296875 -152.9296875 c 0
 235.490234375 -120.379882812 287.790039062 -120 290 -120 c 0
 295.51953125 -120 299.98046875 -124.469726562 299.990234375 -129.98046875 c 0
 300 -135.5 295.530273438 -139.98046875 290.01953125 -140 c 0
 289.66015625 -140 262.190429688 -140.26953125 237.440429688 -152.6796875 c 1
 276.490234375 -160.1796875 304.5703125 -180.9296875 305.990234375 -182.009765625 c 0
 310.400390625 -185.3203125 311.299804688 -191.5703125 308 -195.990234375 c 0
 306.040039062 -198.599609375 303.040039062 -199.990234375 299.990234375 -199.990234375 c 0
70 -212.629882812 m 1
 70 -252.26953125 115.959960938 -302.629882812 180 -302.629882812 c 0
 244.040039062 -302.629882812 290 -252.629882812 290 -212.629882812 c 1
 290 -212.629882812 186.669921875 -240.190429688 70 -212.629882812 c 1
185.450195312 -236.040039062 m 2
 174.540039062 -235.990234375 l 2
 142.379882812 -235.25 120 -230.030273438 120 -230.030273438 c 1
 120 -299.639648438 l 2
 120 -329.639648438 140 -359.639648438 180 -359.639648438 c 0
 220 -359.639648438 240 -329.639648438 240 -299.639648438 c 2
 240 -230.440429688 l 1
 220.780273438 -234.389648438 202.129882812 -235.870117188 185.450195312 -236.040039062 c 2
180 -318.440429688 m 0
 183.009765625 -318.440429688 185.450195312 -316 185.450195312 -312.990234375 c 2
 185.450195312 -236.049804688 l 1
 174.540039062 -236 l 1
 174.540039062 -312.990234375 l 2
 174.549804688 -316 176.990234375 -318.440429688 180 -318.440429688 c 0
EndSplineSet
Fore
Refer: 82 -1 S 0.25 0 0 0.25 180 -359.635 2
Refer: 81 -1 S 0.25 0 0 0.25 180 -359.635 2
Refer: 80 -1 N 0.25 0 0 0.25 180 -302.625 2
Refer: 35 -1 N -0.25 0 0 0.25 290 -130 2
Refer: 35 -1 N 0.25 0 0 0.25 70 -130 2
EndChar

StartChar: uni007F
Encoding: 127 -1 78
Width: 360
Flags: W
LayerCount: 2
Back
SplineSet
360 -180 m 0
 360 -279.41015625 279.41015625 -360 180 -360 c 0
 80.599609375 -360 0 -279.41015625 0 -180 c 0
 0 -80.599609375 80.599609375 0 180 0 c 0
 279.41015625 0 360 -80.599609375 360 -180 c 1024
70 -212.629882812 m 1
 70 -252.26953125 115.959960938 -302.629882812 180 -302.629882812 c 0
 244.040039062 -302.629882812 290 -252.629882812 290 -212.629882812 c 1
 290 -212.629882812 186.669921875 -240.190429688 70 -212.629882812 c 1
120 -230.030273438 m 2
 120 -299.639648438 l 2
 120 -329.639648438 140 -359.639648438 180 -359.639648438 c 0
 220 -359.639648438 240 -329.639648438 240 -299.639648438 c 2
 240 -230.440429688 l 1
 177.08984375 -243.360351562 120 -230.030273438 120 -230.030273438 c 2
122.83984375 -123.299804688 m 0
 115.280273438 -120.379882812 108.129882812 -117.620117188 108.129882812 -113.620117188 c 0
 108.129882812 -107.030273438 116.969726562 -106.690429688 118.740234375 -106.690429688 c 0
 124.990234375 -106.690429688 128.099609375 -109.030273438 130.83984375 -111.099609375 c 0
 132.940429688 -112.690429688 135.120117188 -114.330078125 138.150390625 -114.330078125 c 0
 143.790039062 -114.330078125 146.360351562 -110.360351562 146.360351562 -106.669921875 c 0
 146.360351562 -99.3095703125 137.33984375 -94.1103515625 127.780273438 -91.9296875 c 2
 127.780273438 -88 l 2
 127.780273438 -82.8203125 123.5703125 -78.6103515625 118.389648438 -78.6103515625 c 0
 113.209960938 -78.6103515625 109 -82.8203125 109 -88 c 2
 109 -92.259765625 l 2
 97.5595703125 -95.58984375 90.5498046875 -104 90.5498046875 -114.610351562 c 0
 90.5498046875 -127.719726562 103.48046875 -133.099609375 114.889648438 -137.83984375 c 0
 123.059570312 -141.240234375 130.780273438 -144.450195312 130.780273438 -149.459960938 c 0
 130.780273438 -153.120117188 126.1796875 -157.080078125 118.75 -157.080078125 c 0
 111.25 -157.080078125 106.950195312 -154.080078125 103.150390625 -151.440429688 c 0
 100.530273438 -149.610351562 98.0498046875 -147.879882812 95.08984375 -147.879882812 c 0
 90.7900390625 -147.879882812 87.4296875 -151.5 87.4296875 -156.120117188 c 0
 87.4296875 -162.91015625 96.740234375 -169.6796875 109 -172.059570312 c 2
 109 -176.759765625 l 2
 109 -181.940429688 113.209960938 -186.139648438 118.389648438 -186.139648438 c 0
 123.5703125 -186.139648438 127.780273438 -181.9296875 127.780273438 -176.759765625 c 2
 127.73046875 -171.780273438 l 2
 140.690429688 -168.629882812 148.349609375 -159.559570312 148.349609375 -147.190429688 c 0
 148.360351562 -133.150390625 134.209960938 -127.690429688 122.83984375 -123.299804688 c 0
266.940429688 -147.360351562 m 0
 266.940429688 -133.3203125 252.790039062 -127.860351562 241.419921875 -123.469726562 c 0
 233.860351562 -120.549804688 226.719726562 -117.790039062 226.719726562 -113.790039062 c 0
 226.719726562 -107.200195312 235.559570312 -106.860351562 237.330078125 -106.860351562 c 0
 243.580078125 -106.860351562 246.6796875 -109.200195312 249.4296875 -111.26953125 c 0
 251.540039062 -112.860351562 253.709960938 -114.5 256.73046875 -114.5 c 0
 262.379882812 -114.5 264.950195312 -110.530273438 264.950195312 -106.83984375 c 0
 264.950195312 -99.4697265625 255.9296875 -94.2802734375 246.370117188 -92.099609375 c 2
 246.370117188 -88.1796875 l 2
 246.370117188 -83 242.150390625 -78.7900390625 236.98046875 -78.7900390625 c 0
 231.799804688 -78.7900390625 227.580078125 -83 227.580078125 -88.1796875 c 2
 227.580078125 -92.4404296875 l 2
 216.150390625 -95.76953125 209.129882812 -104.1796875 209.129882812 -114.790039062 c 0
 209.129882812 -127.900390625 222.059570312 -133.280273438 233.469726562 -138.01953125 c 0
 241.639648438 -141.419921875 249.360351562 -144.629882812 249.360351562 -149.639648438 c 0
 249.360351562 -153.299804688 244.76953125 -157.259765625 237.33984375 -157.259765625 c 0
 229.83984375 -157.259765625 225.540039062 -154.259765625 221.75 -151.620117188 c 0
 219.120117188 -149.790039062 216.639648438 -148.059570312 213.690429688 -148.059570312 c 0
 209.379882812 -148.059570312 206.01953125 -151.6796875 206.01953125 -156.299804688 c 0
 206.01953125 -163.08984375 215.330078125 -169.860351562 227.580078125 -172.240234375 c 2
 227.580078125 -176.940429688 l 2
 227.580078125 -182.110351562 231.809570312 -186.3203125 236.990234375 -186.3203125 c 0
 242.169921875 -186.3203125 246.370117188 -182.110351562 246.370117188 -176.940429688 c 2
 246.33984375 -171.959960938 l 2
 259.290039062 -168.790039062 266.940429688 -159.73046875 266.940429688 -147.360351562 c 0
209.700195312 -310.690429688 m 0
 209.700195312 -297.009765625 195.91015625 -291.6796875 184.830078125 -287.400390625 c 0
 177.459960938 -284.559570312 170.490234375 -281.860351562 170.490234375 -277.969726562 c 0
 170.490234375 -271.540039062 179.099609375 -271.219726562 180.830078125 -271.219726562 c 0
 186.919921875 -271.219726562 189.950195312 -273.509765625 192.629882812 -275.51953125 c 0
 194.6796875 -277.0703125 196.809570312 -278.669921875 199.759765625 -278.669921875 c 0
 205.259765625 -278.669921875 207.76953125 -274.790039062 207.76953125 -271.200195312 c 0
 207.76953125 -264.030273438 198.98046875 -258.959960938 189.650390625 -256.830078125 c 2
 189.650390625 -253 l 2
 189.650390625 -247.950195312 185.540039062 -243.83984375 180.490234375 -243.83984375 c 0
 175.440429688 -243.83984375 171.330078125 -247.950195312 171.330078125 -253 c 2
 171.330078125 -257.150390625 l 2
 160.1796875 -260.389648438 153.33984375 -268.599609375 153.33984375 -278.940429688 c 0
 153.33984375 -291.719726562 165.950195312 -296.969726562 177.0703125 -301.58984375 c 0
 185.040039062 -304.900390625 192.559570312 -308.030273438 192.559570312 -312.91015625 c 0
 192.559570312 -316.48046875 188.080078125 -320.33984375 180.830078125 -320.33984375 c 0
 173.51953125 -320.33984375 169.330078125 -317.419921875 165.629882812 -314.830078125 c 0
 163.080078125 -313.049804688 160.66015625 -311.360351562 157.780273438 -311.360351562 c 0
 153.58984375 -311.360351562 150.299804688 -314.900390625 150.299804688 -319.400390625 c 0
 150.299804688 -326.030273438 159.370117188 -332.620117188 171.3203125 -334.940429688 c 2
 171.3203125 -339.530273438 l 2
 171.3203125 -344.5703125 175.4296875 -348.669921875 180.490234375 -348.669921875 c 0
 185.540039062 -348.669921875 189.639648438 -344.5703125 189.639648438 -339.530273438 c 2
 189.610351562 -334.669921875 l 2
 202.240234375 -331.580078125 209.700195312 -322.740234375 209.700195312 -310.690429688 c 0
EndSplineSet
Fore
Refer: 87 -1 N 0.24375 0 0 0.24375 180.49 -348.67 2
Refer: 87 -1 N 0.25 0 0 0.25 236.99 -186.32 2
Refer: 87 -1 N 0.25 0 0 0.25 118.39 -186.14 2
Refer: 81 -1 N 0.25 0 0 0.25 180 -359.635 2
Refer: 80 -1 N 0.25 0 0 0.25 180 -302.625 2
EndChar

StartChar: eye.smiling2
Encoding: 92 -1 79
Width: 360
GlyphClass: 5
Flags: W
LayerCount: 2
Back
SplineSet
-124.199586685 -97.8496818214 m 5
 -124.199586685 -97.8496818214 -124.19335114 -97.8527907934 -124.240006575 -97.9305216024 c 4
 -130.757614658 -110.981317809 -144.331762803 -120.00503799 -159.996882228 -120.00503799 c 4
 -182.075404826 -120.00503799 -200.000365732 -102.080077084 -200.000365732 -80.001554486 c 4
 -200.000365732 -73.5881513131 -198.487866078 -67.5252236953 -195.800413315 -62.1503181786 c 4
 -194.921374132 -60.3922398147 -191.324155773 -53.4938882792 -184.164188935 -43.8948118588 c 4
 -178.438443613 -36.218537911 -170.42006431 -26.804959696 -159.675857073 -17.0374985713 c 4
 -146.253008538 -4.8349089941 -128.53600117 7.91393956298 -106.068563507 18.2201036284 c 4
 -90.474248844 25.3734589786 -72.6288881037 31.3300266741 -52.5321373551 35.1818236552 c 4
 -36.4550496418 38.2632012715 -18.9474268779 40 0 40 c 4
 18.9474268779 40 36.4550496418 38.2632012715 52.5321373551 35.1818236552 c 4
 72.6288881037 31.3300266741 90.474248844 25.3734589786 106.068563507 18.2201036284 c 4
 128.53600117 7.91393956298 146.253008538 -4.8349089941 159.675857073 -17.0374985713 c 4
 170.42006431 -26.804959696 178.438443613 -36.218537911 184.164188935 -43.8948118588 c 4
 191.324155141 -53.4938874325 194.921375069 -60.3922418966 195.800412474 -62.1503164966 c 4
 198.487865762 -67.5252224302 200.000365732 -73.5881506436 200.000365732 -80.0015544852 c 4
 200.000365732 -102.080077082 182.075404827 -120.005037987 159.99688223 -120.005037987 c 4
 144.331763474 -120.005037987 130.757615821 -110.981318578 124.240007426 -97.9305232939 c 4
 124.193351985 -97.8527924738 124.199587526 -97.8496835034 124.199587526 -97.8496835034 c 5
 124.199587526 -97.8496835034 124.440937587 -98.322227204 124.440755569 -98.3218815781 c 5
 124.440755569 -98.3218815781 124.482453034 -98.3998946604 124.46595161 -98.3693645107 c 4
 124.449235037 -98.3384363053 123.758749961 -97.066810677 122.335462091 -94.9493884783 c 4
 121.054295417 -93.0433996658 119.180314641 -90.4531592693 116.674716822 -87.4518014538 c 4
 111.593943272 -81.3657411589 103.955747876 -73.6321155985 93.3000916265 -66.219485164 c 4
 82.6381158502 -58.802458537 68.9409362245 -51.6401412516 51.1923631104 -46.636138259 c 4
 36.9875059509 -42.6312446106 20.1221102279 -40 0 -40 c 4
 -20.1221102279 -40 -36.9875059509 -42.6312446106 -51.1923631104 -46.636138259 c 4
 -68.9409362245 -51.6401412516 -82.6381158502 -58.802458537 -93.3000916265 -66.219485164 c 4
 -103.955747876 -73.6321155985 -111.593943272 -81.3657411589 -116.674716822 -87.4518014538 c 4
 -119.180314641 -90.4531592693 -121.054295417 -93.0433996658 -122.335462091 -94.9493884783 c 4
 -123.758749961 -97.066810677 -124.449235037 -98.3384363053 -124.46595161 -98.3693645107 c 4
 -124.482453034 -98.3998946604 -124.440755569 -98.3218815781 -124.440755569 -98.3218815781 c 5
 -124.440937587 -98.322227204 -124.199586685 -97.8496818214 -124.199586685 -97.8496818214 c 5
EndSplineSet
Fore
SplineSet
-124.199586685 -97.8496818214 m 1,0,1
 -135.26408849 -120.00503799 -135.26408849 -120.00503799 -159.996882228 -120.00503799 c 0,2,3
 -176.555774176 -120.00503799 -176.555774176 -120.00503799 -188.278069954 -108.282742212 c 128,-1,4
 -200.000365732 -96.5604464346 -200.000365732 -96.5604464346 -200.000365732 -80.001554486 c 0,5,6
 -200.000365732 -70.5502229992 -200.000365732 -70.5502229992 -195.800413315 -62.1503181786 c 0,7,8
 -191.773218286 -54.0959281316 -191.773218286 -54.0959281316 -184.164188935 -43.8948118588 c 0,9,10
 -173.516530123 -29.6199286162 -173.516530123 -29.6199286162 -159.675857073 -17.0374985713 c 0,11,12
 -135.990943043 4.49424145591 -135.990943043 4.49424145591 -106.068563507 18.2201036284 c 0,13,14
 -80.9769622463 29.7300124637 -80.9769622463 29.7300124637 -52.5321373551 35.1818236552 c 0,15,16
 -27.3933022758 40 -27.3933022758 40 0 40 c 128,-1,17
 27.3933022758 40 27.3933022758 40 52.5321373551 35.1818236552 c 0,18,19
 80.9769622463 29.7300124637 80.9769622463 29.7300124637 106.068563507 18.2201036284 c 0,20,21
 135.990943043 4.49424145591 135.990943043 4.49424145591 159.675857073 -17.0374985713 c 0,22,23
 173.516530123 -29.6199286162 173.516530123 -29.6199286162 184.164188935 -43.8948118588 c 0,24,25
 191.773216845 -54.0959262003 191.773216845 -54.0959262003 195.800412474 -62.1503164966 c 0,26,27
 200.000365732 -70.5502220083 200.000365732 -70.5502220083 200.000365732 -80.0015544852 c 0,28,29
 200.000365732 -96.560446433 200.000365732 -96.560446433 188.278069955 -108.28274221 c 128,-1,30
 176.555774178 -120.005037987 176.555774178 -120.005037987 159.99688223 -120.005037987 c 0,31,32
 135.264089802 -120.005037987 135.264089802 -120.005037987 124.240007426 -97.9305232939 c 0,33,-1
 124.440755569 -98.3218815781 l 1,34,35
 123.774964245 -97.0909326312 123.774964245 -97.0909326312 122.335462091 -94.9493884783 c 0,36,37
 119.862342002 -91.2701332199 119.862342002 -91.2701332199 116.674716822 -87.4518014538 c 0,38,39
 106.775034517 -75.5933584794 106.775034517 -75.5933584794 93.3000916265 -66.219485164 c 0,40,41
 74.6602407861 -53.2526324055 74.6602407861 -53.2526324055 51.1923631104 -46.636138259 c 128,-1,42
 27.6548102229 -40 27.6548102229 -40 0 -40 c 128,-1,43
 -27.6548102229 -40 -27.6548102229 -40 -51.1923631104 -46.636138259 c 128,-1,44
 -74.6602407861 -53.2526324055 -74.6602407861 -53.2526324055 -93.3000916265 -66.219485164 c 0,45,46
 -106.775034517 -75.5933584794 -106.775034517 -75.5933584794 -116.674716822 -87.4518014538 c 0,47,48
 -119.862342002 -91.2701332199 -119.862342002 -91.2701332199 -122.335462091 -94.9493884783 c 0,49,50
 -123.774964245 -97.0909326312 -123.774964245 -97.0909326312 -124.46595161 -98.3693645107 c 1,51,-1
 -124.199586685 -97.8496818214 l 1,0,1
EndSplineSet
EndChar

StartChar: mouth.grinning3
Encoding: 93 -1 80
Width: 360
GlyphClass: 5
Flags: W
LayerCount: 2
Back
SplineSet
-440 360 m 5
 26.6796875 249.76171875 440 360 440 360 c 5
 440 200 256.16015625 0 0 0 c 4
 -256.16015625 0 -440 201.44140625 -440 360 c 5
EndSplineSet
Fore
SplineSet
-440 360 m 1,0,1
 -309 329 -309 329 -170.5 317.5 c 128,-1,2
 -32 306 -32 306 72.5 312 c 128,-1,3
 177 318 177 318 263 328.5 c 128,-1,4
 349 339 349 339 394.5 349.5 c 2,5,-1
 440 360 l 1,6,7
 440 300 440 300 406.5 236.5 c 128,-1,8
 373 173 373 173 316.5 120 c 128,-1,9
 260 67 260 67 176 33.5 c 128,-1,10
 92 0 92 0 0 0 c 128,-1,11
 -92 0 -92 0 -176 34 c 128,-1,12
 -260 68 -260 68 -316.5 120.5 c 128,-1,13
 -373 173 -373 173 -406.5 236.5 c 128,-1,14
 -440 300 -440 300 -440 360 c 1,0,1
EndSplineSet
EndChar

StartChar: tongue.1
Encoding: 94 -1 81
Width: 360
GlyphClass: 5
Flags: W
LayerCount: 2
Back
SplineSet
-240 240 m 6
 -240 518.4375 l 5
 -240 518.4375 -11.640625 465.1171875 240 516.80078125 c 5
 240 240 l 6
 240 120 160 0 0 0 c 4
 -160 0 -240 120 -240 240 c 6
EndSplineSet
Fore
SplineSet
-240 240 m 21,0,1
 -240 142 -240 142 -176.5 71 c 133,-1,2
 -113 0 -113 0 0 0 c 133,-1,3
 113 0 113 0 176.5 71 c 133,-1,4
 240 142 240 142 240 240 c 13,5,6
 240 240 240 240 240 516.80078125 c 5,7,8
 169.540625 502.329375 169.540625 502.329375 93.0191414031 497.444882291 c 133,-1,9
 16.4976578063 492.560389582 16.4976578063 492.560389582 -37.2378914031 494.729211459 c 133,-1,10
 -90.9734406125 496.898033335 -90.9734406125 496.898033335 -143.943358597 503.296882291 c 133,-1,11
 -196.913276581 509.695731247 -196.913276581 509.695731247 -213.806641403 512.985273959 c 133,-1,12
 -230.700006225 516.274816671 -230.700006225 516.274816671 -240 518.4375 c 5,13,14
 -240 518.4375 -240 518.4375 -240 240 c 21,0,1
EndSplineSet
EndChar

StartChar: tongue.1n
Encoding: 95 -1 82
Width: 360
GlyphClass: 5
Flags: W
LayerCount: 2
Back
SplineSet
21.83984375 186.62890625 m 6
 21.83984375 494.34765625 l 5
 -21.83984375 494.5859375 l 5
 -21.83984375 186.62890625 l 6
 -21.83984375 174.57421875 -12.0546875 164.78515625 0 164.78515625 c 4
 12.0546875 164.78515625 21.83984375 174.57421875 21.83984375 186.62890625 c 6
EndSplineSet
Fore
SplineSet
21.83984375 186.62890625 m 2,0,1
 21.83984375 177.587518383 21.83984375 177.587518383 15.4402436124 171.186337316 c 128,-1,2
 9.04064347485 164.78515625 9.04064347485 164.78515625 0 164.78515625 c 128,-1,3
 -9.04064347485 164.78515625 -9.04064347485 164.78515625 -15.4402436124 171.186337316 c 128,-1,4
 -21.83984375 177.587518383 -21.83984375 177.587518383 -21.83984375 186.62890625 c 2,5,6
 -21.83984375 186.62890625 -21.83984375 186.62890625 -21.83984375 494.5859375 c 1,7,-1
 21.83984375 494.34765625 l 1,8,-1
 21.83984375 186.62890625 l 2,0,1
EndSplineSet
EndChar

